<svg width="28" height="28" viewBox="0 0 28 28" fill="none" xmlns="http://www.w3.org/2000/svg">
<g clip-path="url(#clip0_1455_5070)">
<path d="M27 13.9333C26.96 6.75341 21.1134 0.96681 13.9334 1.00014C6.75345 1.04014 0.966811 6.88674 1.00014 14.0667C1.03348 21.2466 6.88678 27.0332 14.0667 26.9999C21.1934 26.9665 26.96 21.1933 27 14.0667L27 13.9333Z" stroke="#E6E6E6" stroke-width="2"/>
<path d="M14 27L14 1M0.999999 14L27 14M24.0667 22C18.0467 17.7 9.95333 17.7 3.93333 22M3.93333 6C9.95333 10.3 18.0467 10.3 24.0667 6M15 26.6667C22.0333 20.7267 22.92 10.2133 16.98 3.18C16.38 2.46667 15.7133 1.80667 15 1.2M13 1.2C5.96667 7.14 5.08 17.6533 11.02 24.6867C11.6267 25.4 12.2867 26.0667 13 26.6667" stroke="#E6E6E6" stroke-width="2"/>
</g>
<defs>
<clipPath id="clip0_1455_5070">
<rect width="28" height="28" fill="white"/>
</clipPath>
</defs>
</svg>
