<svg width="28" height="28" viewBox="0 0 28 28" fill="none" xmlns="http://www.w3.org/2000/svg">
<g clip-path="url(#clip0_2229_703)">
<path d="M24 13.9487C23.9876 11.7159 23.2451 9.65827 22 8.00079C20.1652 5.55836 17.239 3.98484 13.9488 4.00011C8.42573 4.03088 3.97447 8.52826 4.00011 14.0513C4.02575 19.5743 8.52829 24.0255 14.0513 23.9999C19.5334 23.9742 23.9692 19.5333 24 14.0513L24 13.9487Z" stroke="#E6E6E6" stroke-width="2"/>
<path d="M14 24L14 4M14.7692 23.7436C20.1795 19.1744 20.8615 11.0872 16.2923 5.67693C15.8308 5.12821 15.3179 4.62051 14.7692 4.15385M13.2308 4.15385C7.82051 8.72308 7.13846 16.8103 11.7077 22.2205C12.1744 22.7692 12.682 23.2821 13.2308 23.7436" stroke="#E6E6E6" stroke-width="2"/>
<rect x="2" y="9" width="24" height="10" rx="1" fill="#C1C7CD" stroke="#E6E6E6" stroke-width="2" stroke-linejoin="round"/>
<path d="M5.70215 16H4.76465L4.77051 15.2617H5.70215C5.91504 15.2617 6.09473 15.2129 6.24121 15.1152C6.3877 15.0156 6.49902 14.8691 6.5752 14.6758C6.65137 14.4805 6.68945 14.2432 6.68945 13.9639V13.7676C6.68945 13.5566 6.66797 13.3711 6.625 13.2109C6.58203 13.0488 6.51855 12.9131 6.43457 12.8037C6.35059 12.6943 6.24609 12.6123 6.12109 12.5576C5.99805 12.5029 5.85645 12.4756 5.69629 12.4756H4.74707V11.7344H5.69629C5.98535 11.7344 6.24902 11.7832 6.4873 11.8809C6.72754 11.9785 6.93457 12.1182 7.1084 12.2998C7.28418 12.4814 7.41992 12.6963 7.51562 12.9443C7.61133 13.1924 7.65918 13.4688 7.65918 13.7734V13.9639C7.65918 14.2666 7.61133 14.543 7.51562 14.793C7.41992 15.041 7.28418 15.2559 7.1084 15.4375C6.93457 15.6172 6.72852 15.7559 6.49023 15.8535C6.25195 15.9512 5.98926 16 5.70215 16ZM5.30664 11.7344V16H4.35156V11.7344H5.30664ZM8.00348 14.4473V14.3857C8.00348 14.1533 8.03668 13.9395 8.10309 13.7441C8.16949 13.5469 8.26715 13.376 8.39605 13.2314C8.52496 13.0869 8.68316 12.9746 8.87066 12.8945C9.05816 12.8125 9.27301 12.7715 9.5152 12.7715C9.76129 12.7715 9.97809 12.8125 10.1656 12.8945C10.355 12.9746 10.5142 13.0869 10.6431 13.2314C10.772 13.376 10.8697 13.5469 10.9361 13.7441C11.0025 13.9395 11.0357 14.1533 11.0357 14.3857V14.4473C11.0357 14.6777 11.0025 14.8916 10.9361 15.0889C10.8697 15.2842 10.772 15.4551 10.6431 15.6016C10.5142 15.7461 10.356 15.8584 10.1685 15.9385C9.98102 16.0186 9.7652 16.0586 9.52105 16.0586C9.27887 16.0586 9.06305 16.0186 8.87359 15.9385C8.68414 15.8584 8.52496 15.7461 8.39605 15.6016C8.26715 15.4551 8.16949 15.2842 8.10309 15.0889C8.03668 14.8916 8.00348 14.6777 8.00348 14.4473ZM8.92047 14.3857V14.4473C8.92047 14.5723 8.93023 14.6895 8.94977 14.7988C8.97125 14.9082 9.00543 15.0039 9.0523 15.0859C9.09918 15.168 9.1607 15.2324 9.23688 15.2793C9.315 15.3242 9.40973 15.3467 9.52105 15.3467C9.63238 15.3467 9.72613 15.3242 9.8023 15.2793C9.87848 15.2324 9.94 15.168 9.98688 15.0859C10.0338 15.0039 10.067 14.9082 10.0865 14.7988C10.108 14.6895 10.1187 14.5723 10.1187 14.4473V14.3857C10.1187 14.2627 10.108 14.1475 10.0865 14.04C10.067 13.9307 10.0338 13.834 9.98688 13.75C9.94 13.666 9.8775 13.6006 9.79938 13.5537C9.7232 13.5068 9.62848 13.4834 9.5152 13.4834C9.40582 13.4834 9.31305 13.5068 9.23688 13.5537C9.1607 13.6006 9.09918 13.666 9.0523 13.75C9.00543 13.834 8.97125 13.9307 8.94977 14.04C8.93023 14.1475 8.92047 14.2627 8.92047 14.3857ZM12.3732 13.4951V16H11.4591V12.8301H12.3175L12.3732 13.4951ZM12.256 14.3037L12.0245 14.3096C12.0245 14.0869 12.0509 13.8828 12.1036 13.6973C12.1583 13.5098 12.2374 13.3467 12.3409 13.208C12.4445 13.0693 12.5724 12.9619 12.7247 12.8857C12.879 12.8096 13.0568 12.7715 13.2579 12.7715C13.3986 12.7715 13.5265 12.793 13.6417 12.8359C13.757 12.877 13.8556 12.9424 13.9376 13.0322C14.0216 13.1201 14.0861 13.2354 14.131 13.3779C14.1759 13.5186 14.1984 13.6875 14.1984 13.8848V16H13.2843V13.9961C13.2843 13.8555 13.2667 13.749 13.2316 13.6768C13.1984 13.6025 13.1495 13.5518 13.0851 13.5244C13.0206 13.4971 12.9435 13.4834 12.8536 13.4834C12.756 13.4834 12.6691 13.5049 12.5929 13.5479C12.5187 13.5889 12.4562 13.6465 12.4054 13.7207C12.3546 13.7949 12.3165 13.8818 12.2911 13.9814C12.2677 14.0811 12.256 14.1885 12.256 14.3037ZM14.1046 14.2568L13.8146 14.2803C13.8146 14.0654 13.84 13.8662 13.8907 13.6826C13.9415 13.499 14.0177 13.3398 14.1193 13.2051C14.2208 13.0684 14.3468 12.9619 14.4972 12.8857C14.6495 12.8096 14.8263 12.7715 15.0275 12.7715C15.1759 12.7715 15.3107 12.793 15.4318 12.8359C15.5548 12.8789 15.6603 12.9482 15.7482 13.0439C15.838 13.1396 15.9073 13.2656 15.9562 13.4219C16.005 13.5762 16.0294 13.7656 16.0294 13.9902V16H15.1095V13.9902C15.1095 13.8516 15.0919 13.7461 15.0568 13.6738C15.0236 13.6016 14.9747 13.5518 14.9103 13.5244C14.8478 13.4971 14.7726 13.4834 14.6847 13.4834C14.587 13.4834 14.5021 13.5039 14.4298 13.5449C14.3575 13.584 14.297 13.6387 14.2482 13.709C14.1993 13.7773 14.1632 13.8584 14.1398 13.9521C14.1163 14.0459 14.1046 14.1475 14.1046 14.2568ZM18.2604 15.2441V13.8848C18.2604 13.7891 18.2458 13.707 18.2165 13.6387C18.1872 13.5703 18.1413 13.5166 18.0788 13.4775C18.0163 13.4385 17.9352 13.4189 17.8356 13.4189C17.7516 13.4189 17.6784 13.4336 17.6159 13.4629C17.5554 13.4922 17.5085 13.5342 17.4753 13.5889C17.444 13.6436 17.4284 13.7109 17.4284 13.791H16.5143C16.5143 13.6484 16.5466 13.5156 16.611 13.3926C16.6755 13.2695 16.7673 13.1611 16.8864 13.0674C17.0075 12.9736 17.152 12.9014 17.32 12.8506C17.488 12.7979 17.6764 12.7715 17.8854 12.7715C18.1335 12.7715 18.3542 12.8135 18.5475 12.8975C18.7429 12.9795 18.8971 13.1035 19.0104 13.2695C19.1237 13.4336 19.1804 13.6406 19.1804 13.8906V15.2178C19.1804 15.4092 19.1911 15.5596 19.2126 15.6689C19.236 15.7764 19.2692 15.8701 19.3122 15.9502V16H18.3893C18.3464 15.9082 18.3141 15.7949 18.2927 15.6602C18.2712 15.5234 18.2604 15.3848 18.2604 15.2441ZM18.3747 14.0664L18.3805 14.5703H17.9264C17.8249 14.5703 17.737 14.583 17.6628 14.6084C17.5905 14.6338 17.5319 14.6689 17.487 14.7139C17.4421 14.7568 17.4089 14.8076 17.3874 14.8662C17.3679 14.9229 17.3581 14.9854 17.3581 15.0537C17.3581 15.1182 17.3737 15.1768 17.405 15.2295C17.4362 15.2803 17.4792 15.3203 17.5339 15.3496C17.5886 15.3789 17.652 15.3936 17.7243 15.3936C17.8434 15.3936 17.945 15.3701 18.029 15.3232C18.1149 15.2764 18.1813 15.2197 18.2282 15.1533C18.2751 15.085 18.2985 15.0215 18.2985 14.9629L18.5182 15.3438C18.4831 15.4219 18.4401 15.5029 18.3893 15.5869C18.3386 15.6689 18.2741 15.7461 18.196 15.8184C18.1179 15.8887 18.0231 15.9463 17.9118 15.9912C17.8024 16.0361 17.6706 16.0586 17.5163 16.0586C17.3171 16.0586 17.1364 16.0186 16.9743 15.9385C16.8122 15.8564 16.6823 15.7441 16.5846 15.6016C16.4889 15.459 16.4411 15.2949 16.4411 15.1094C16.4411 14.9434 16.4714 14.7959 16.5319 14.667C16.5925 14.5381 16.6833 14.4287 16.8044 14.3389C16.9274 14.249 17.0817 14.1816 17.2673 14.1367C17.4528 14.0898 17.6696 14.0664 17.9177 14.0664H18.3747ZM20.6848 12.8301V16H19.7678V12.8301H20.6848ZM19.7121 12.0098C19.7121 11.877 19.759 11.7686 19.8528 11.6846C19.9465 11.5986 20.0696 11.5557 20.2219 11.5557C20.3743 11.5557 20.4973 11.5986 20.5911 11.6846C20.6868 11.7686 20.7346 11.877 20.7346 12.0098C20.7346 12.1406 20.6868 12.249 20.5911 12.335C20.4973 12.4189 20.3743 12.4609 20.2219 12.4609C20.0696 12.4609 19.9465 12.4189 19.8528 12.335C19.759 12.249 19.7121 12.1406 19.7121 12.0098ZM22.1805 13.5068V16H21.2635V12.8301H22.1248L22.1805 13.5068ZM22.0604 14.3037L21.8318 14.3096C21.8318 14.0713 21.8611 13.8574 21.9197 13.668C21.9783 13.4785 22.0613 13.3174 22.1688 13.1846C22.2781 13.0498 22.408 12.9473 22.5584 12.877C22.7107 12.8066 22.8787 12.7715 23.0623 12.7715C23.2107 12.7715 23.3465 12.793 23.4695 12.8359C23.5926 12.8789 23.698 12.9482 23.7859 13.0439C23.8758 13.1377 23.9441 13.2627 23.991 13.4189C24.0379 13.5732 24.0613 13.7637 24.0613 13.9902V16H23.1414V13.9873C23.1414 13.8545 23.1229 13.752 23.0857 13.6797C23.0486 13.6074 22.9939 13.5566 22.9217 13.5273C22.8514 13.498 22.7654 13.4834 22.6639 13.4834C22.5564 13.4834 22.4646 13.5049 22.3885 13.5479C22.3123 13.5889 22.2498 13.6465 22.201 13.7207C22.1521 13.7949 22.116 13.8818 22.0926 13.9814C22.0711 14.0811 22.0604 14.1885 22.0604 14.3037Z" fill="#E6E6E6"/>
</g>
<defs>
<clipPath id="clip0_2229_703">
<rect width="28" height="28" fill="white"/>
</clipPath>
</defs>
</svg>
