<svg width="28" height="28" viewBox="0 0 28 28" fill="none" xmlns="http://www.w3.org/2000/svg">
<path d="M23.9993 18.9738V21.9846C24.0006 22.2642 23.9375 22.5408 23.814 22.7969C23.6906 23.053 23.5096 23.2829 23.2826 23.4719C23.0556 23.6608 22.7876 23.8047 22.4958 23.8942C22.2039 23.9838 21.8947 24.017 21.5879 23.9919C18.1841 23.6563 14.9145 22.601 12.0418 20.9108C9.36914 19.3699 7.10319 17.3141 5.40487 14.8892C3.53545 12.271 2.37207 9.29008 2.00898 6.18795C1.98134 5.91042 2.01769 5.63071 2.11572 5.36663C2.21376 5.10254 2.37132 4.85987 2.57839 4.65407C2.78546 4.44826 3.03749 4.28383 3.31843 4.17123C3.59938 4.05864 3.90309 4.00036 4.21023 4.0001H7.52869C8.06551 3.9953 8.58594 4.16778 8.99297 4.48537C9.4 4.80297 9.66586 5.24401 9.74099 5.72629C9.88106 6.68982 10.1408 7.63587 10.5153 8.54642C10.6641 8.90563 10.6963 9.29602 10.6081 9.67133C10.5199 10.0466 10.3149 10.3911 10.0175 10.664L8.61272 11.9386C10.1874 14.4512 12.4803 16.5315 15.2496 17.9602L16.6545 16.6856C16.9552 16.4158 17.3349 16.2298 17.7486 16.1498C18.1622 16.0698 18.5925 16.099 18.9884 16.234C19.992 16.5738 21.0348 16.8095 22.0967 16.9365C22.6341 17.0053 23.1248 17.2509 23.4756 17.6265C23.8264 18.0021 24.0128 18.4817 23.9993 18.9738Z" stroke="#E6E6E6" stroke-width="2" stroke-linecap="round" stroke-linejoin="round"/>
</svg>
