<svg width="28" height="28" viewBox="0 0 28 28" fill="none" xmlns="http://www.w3.org/2000/svg">
<path d="M11.7184 24L16.9412 24M12 16L12 10L16.036 16L16.036 10M19.4144 14.8256C19.4693 15.2171 20.0486 16.1853 21.1853 16.1853C22.6062 16.1853 23.018 15.4875 23.018 14.6975C23.018 14.1637 22.8327 13.6512 21.8649 13.2456C20.897 12.8399 19.5174 12.3616 19.5174 11.3025C19.5174 10.2434 20.5676 9.50001 21.1853 9.5C22.5 9.49997 23 10.5 23 10.5M3 21L25 21C26.1046 21 27 20.1046 27 19L27 7C27 5.89543 26.1046 5 25 5L3 5C1.89543 5 1 5.89543 1 7L0.999999 19C0.999999 20.1046 1.89543 21 3 21ZM4.99999 10.1068L4.99999 16L5.67952 16C7.26511 16 8.78892 14.9004 8.78892 13C8.78892 10.9288 7.36807 10 5.67953 10L4.99999 10L4.99999 10.1068Z" stroke="#E6E6E6" stroke-width="2" stroke-linecap="round" stroke-linejoin="round"/>
</svg>
