<svg width="28" height="28" viewBox="0 0 28 28" fill="none" xmlns="http://www.w3.org/2000/svg">
<path d="M7.16667 5.15385L15.4484 10.2731C16.0929 10.6714 16.9071 10.6714 17.5516 10.2731L25.8333 5.15385M5.66667 9H3C1.89543 9 1 9.89543 1 11V22C1 23.1046 1.89543 24 3 24H20C21.1046 24 22 23.1046 22 22V19.8077M25 19H8C6.89543 19 6 18.1046 6 17V6C6 4.89543 6.89543 4 8 4H25C26.1046 4 27 4.89543 27 6V17C27 18.1046 26.1046 19 25 19Z" stroke="#E6E6E6" stroke-width="2" stroke-miterlimit="1.03528" stroke-linecap="round" stroke-linejoin="round"/>
</svg>
