<svg width="28" height="28" viewBox="0 0 28 28" fill="none" xmlns="http://www.w3.org/2000/svg">
<path d="M11 20C11 24 17 24 17 20M12 8V7C12 4.33333 16 4.33333 16 7V8.5M8 7C7.39394 7.57143 6 9.17143 6 11M20 7C20.6061 7.57143 22 9.17143 22 11M21 19H7C7 18.0833 9.625 19 9.625 14.1742C9.625 12.8873 9.625 12.8258 9.625 12.0215C9.625 10.681 10.5 8 14 8C16.8 8 18.375 10.8151 18.375 12.0215C18.375 12.6918 18.3591 13.2092 18.375 14.1742C18.4545 19 21 18.1553 21 19Z" stroke="#E6E6E6" stroke-width="2" stroke-linecap="round" stroke-linejoin="round"/>
</svg>
