<svg width="28" height="28" viewBox="0 0 28 28" fill="none" xmlns="http://www.w3.org/2000/svg">
<path d="M10.5 10L10.5 16M10.5 10L11.5 10M10.5 10L9.49998 10M10.5 16L9.49998 16M10.5 16L11.5 16M15 16L15 14M15 14L15 10L17 10C17.6855 10.0377 19.0565 10.5017 19.0565 12.0565C19.0565 13.6113 17.7608 14 17.1129 14L15 14ZM11.7184 24L16.9412 24M3 21L25 21C26.1046 21 27 20.1046 27 19L27 7C27 5.89543 26.1046 5 25 5L3 5C1.89543 5 1 5.89543 1 7L0.999999 19C0.999999 20.1046 1.89543 21 3 21Z" stroke="#E6E6E6" stroke-width="2" stroke-linecap="round" stroke-linejoin="round"/>
</svg>
