<svg width="28" height="28" viewBox="0 0 28 28" fill="none" xmlns="http://www.w3.org/2000/svg">
<path d="M13.9437 3.00012L13.939 2.00013L13.9381 2.00014L13.9437 3.00012ZM14.0565 24.9999L14.0611 25.9999L14.0612 25.9999L14.0565 24.9999ZM6 11.1064C6 10.5541 5.55228 10.1064 5 10.1064C4.44771 10.1064 4 10.5541 4 11.1064L6 11.1064ZM5 15.4255L4 15.4255V15.4255L5 15.4255ZM6.94413 17L6.94413 18L6.94413 17ZM9 15.4255L10 15.4255L10 15.4255L9 15.4255ZM10 11C10 10.4477 9.55228 10 9 10C8.44771 10 8 10.4477 8 11L10 11ZM12.5 11L12.5 10C12.2348 10 11.9804 10.1054 11.7929 10.2929C11.6054 10.4804 11.5 10.7348 11.5 11L12.5 11ZM14.6573 11L14.6838 10.0004C14.675 10.0001 14.6661 10 14.6573 10L14.6573 11ZM15.1067 14.375L15.1067 15.375C15.1608 15.375 15.2148 15.3706 15.2682 15.3619L15.1067 14.375ZM11.5 17C11.5 17.5523 11.9477 18 12.5 18C13.0523 18 13.5 17.5523 13.5 17L11.5 17ZM15.4369 17.4688C15.6959 17.9567 16.3012 18.1422 16.789 17.8833C17.2769 17.6244 17.4624 17.019 17.2035 16.5312L15.4369 17.4688ZM21 11C21 10.4477 20.5523 10 20 10C19.4477 10 19 10.4477 19 11L21 11ZM20 17L19 17C19 17.5523 19.4477 18 20 18L20 17ZM23 18C23.5523 18 24 17.5523 24 17C24 16.4477 23.5523 16 23 16L23 18ZM13.9381 2.00014C10.2341 2.02077 6.93093 3.71691 4.74514 6.36316L6.28713 7.63684C8.11143 5.42823 10.8625 4.0173 13.9492 4.00011L13.9381 2.00014ZM23.2551 6.3631C21.0426 3.68499 17.6873 1.98273 13.939 2.00013L13.9483 4.00011C17.0718 3.98561 19.8666 5.40162 21.7132 7.6369L23.2551 6.3631ZM14.0612 25.9999C17.693 25.9829 20.9427 24.35 23.1294 21.7874L21.608 20.4892C19.7828 22.6281 17.0768 23.9857 14.0518 23.9999L14.0612 25.9999ZM5.04828 21.9924C7.25852 24.4648 10.4818 26.0165 14.0611 25.9999L14.0518 23.9999C11.0684 24.0137 8.38383 22.7227 6.53933 20.6594L5.04828 21.9924ZM4 11.1064L4 15.4255L6 15.4255L6 11.1064L4 11.1064ZM4 15.4255C4 16.4233 4.87418 18 6.94413 18L6.94413 16C6.48846 16 6.27141 15.8446 6.16227 15.7269C6.02031 15.5739 6 15.4201 6 15.4255L4 15.4255ZM6.94413 18C8.01274 18 8.79911 17.6068 9.31172 17.049C9.78535 16.5336 10 15.9016 10 15.4255L8 15.4255C8 15.3795 8.0067 15.4043 7.97658 15.4796C7.95037 15.5451 7.90622 15.6227 7.83912 15.6957C7.72603 15.8187 7.48447 16 6.94413 16L6.94413 18ZM10 15.4255L10 11L8 11L8 15.4255L10 15.4255ZM12.5 12L14.6573 12L14.6573 10L12.5 10L12.5 12ZM14.6308 11.9996C14.7704 12.0034 15.048 12.0588 15.2573 12.1893C15.3515 12.2481 15.4078 12.307 15.4404 12.3595C15.4687 12.4051 15.5 12.4779 15.5 12.6103L17.5 12.6103C17.5 11.5674 16.9338 10.8779 16.3157 10.4923C15.7422 10.1346 15.0985 10.0114 14.6838 10.0004L14.6308 11.9996ZM15.5 12.6103C15.5 12.9396 15.383 13.1043 15.2749 13.2046C15.2111 13.2638 15.1381 13.3102 15.068 13.3433C15.0335 13.3596 15.0029 13.3712 14.979 13.3788C14.954 13.3868 14.942 13.3887 14.9453 13.3881L15.2682 15.3619C15.6452 15.3002 16.1796 15.0936 16.6352 14.6707C17.1226 14.2185 17.5 13.5339 17.5 12.6103L15.5 12.6103ZM11.5 11L11.5 14.375L13.5 14.375L13.5 11L11.5 11ZM11.5 14.375L11.5 17L13.5 17L13.5 14.375L11.5 14.375ZM15.1067 13.375L14.927 13.375L14.927 15.375L15.1067 15.375L15.1067 13.375ZM14.927 13.375L12.5 13.375L12.5 15.375L14.927 15.375L14.927 13.375ZM14.0437 14.8438L15.4369 17.4688L17.2035 16.5312L15.8103 13.9062L14.0437 14.8438ZM19 11L19 17L21 17L21 11L19 11ZM20 18L23 18L23 16L20 16L20 18Z" fill="#E6E6E6"/>
<rect x="2" y="7" width="24" height="14" rx="2" stroke="#E6E6E6" stroke-width="2" stroke-linejoin="round"/>
</svg>
