<svg width="28" height="28" viewBox="0 0 28 28" fill="none" xmlns="http://www.w3.org/2000/svg">
<path d="M10.5 11L10.5 17M10.5 11L11.5 11M10.5 11L9.49998 11M10.5 17L9.49998 17M10.5 17L11.5 17M15 17L15 15M15 15L15 11L17 11C17.6855 11.0377 19.0565 11.5017 19.0565 13.0565C19.0565 14.6113 17.7608 15 17.1129 15L15 15ZM11.7184 25L16.9412 25M4 22L24 22C25.1046 22 26 21.1046 26 20L26 8C26 6.89543 25.1046 6 24 6L4 6C2.89543 6 2 6.89543 2 8L2 20C2 21.1046 2.89543 22 4 22Z" stroke="#E6E6E6" stroke-width="2" stroke-linecap="round" stroke-linejoin="round"/>
</svg>
