<svg width="28" height="28" viewBox="0 0 28 28" fill="none" xmlns="http://www.w3.org/2000/svg">
<path d="M4 23L4 22.5791C4 20.952 6.01472 19.633 8.5 19.633C10.9853 19.633 13 20.952 13 22.5791L13 23M23 10L21.6 10L16 10M19 18L18.4 18L16 18M22 14L20.8 14L16 14M3 24L25 24C26.1046 24 27 22.9367 27 21.625L27 7.375C27 6.06332 26.1046 5 25 5L3 5C1.89543 5 1 6.06332 1 7.375L0.999999 21.625C0.999999 22.9367 1.89543 24 3 24ZM8.5 16.734C10.2752 16.734 11.7143 15.2265 11.7143 13.367C11.7143 11.5075 10.2752 10 8.5 10C6.7248 10 5.28571 11.5075 5.28571 13.367C5.28571 15.2265 6.7248 16.734 8.5 16.734Z" stroke="#E6E6E6" stroke-width="2" stroke-linecap="round" stroke-linejoin="round"/>
</svg>
