<svg width="852" height="852" viewBox="0 0 852 852" fill="none" xmlns="http://www.w3.org/2000/svg">
<g clip-path="url(#clip0_1691_798)">
<path d="M799.23 630.023C839.613 556.189 857.194 472.037 849.75 388.211C842.307 304.384 810.173 224.648 757.413 159.084C704.652 93.5201 633.634 45.074 553.34 19.8719C473.046 -5.33022 387.082 -6.1564 306.318 17.4978L425.916 425.846L799.23 630.023Z" fill="#00DBFF"/>
<path d="M2.1778 387.186C-3.30842 447.317 4.06572 507.927 23.8102 564.987C43.5546 622.048 75.2172 674.254 116.694 718.134L425.92 425.848L2.1778 387.186Z" fill="#008CA3"/>
<path d="M450.581 850.633C385.8 854.394 321.016 843.289 261.186 818.166C201.356 793.044 148.064 754.57 105.388 705.688L425.919 425.846L450.581 850.633Z" fill="#00A6C2"/>
<path d="M808.845 611.367C774.63 681.988 721.553 741.771 655.482 784.108C589.41 826.445 512.918 849.686 434.462 851.262L425.917 425.846L808.845 611.367Z" fill="#00C1E0"/>
<path d="M155.106 97.6512C199.941 60.6554 251.881 33.2382 307.721 17.0912L425.918 425.847L155.106 97.6512Z" fill="#003D47"/>
<path d="M1.64836 393.484C7.44388 317.502 33.538 244.47 77.2044 182.02L425.918 425.845L1.64836 393.484Z" fill="#007285"/>
<path d="M59.41 209.688C88.9396 159.619 128.415 116.132 175.4 81.9088L425.917 425.847L59.41 209.688Z" fill="#005766"/>
</g>
<defs>
<clipPath id="clip0_1691_798">
<rect width="852" height="852" fill="white"/>
</clipPath>
</defs>
</svg>
