<svg width="244" height="80" viewBox="0 0 244 80" fill="none" xmlns="http://www.w3.org/2000/svg">
<g clip-path="url(#clip0_1699_809)">
<mask id="mask0_1699_809" style="mask-type:luminance" maskUnits="userSpaceOnUse" x="0" y="0" width="242" height="81">
<path d="M242 0H0V80.4426H242V0Z" fill="white"/>
</mask>
<g mask="url(#mask0_1699_809)">
<path d="M138.702 32.9376C141.839 31.8172 143.856 29.3524 143.856 25.3191C143.856 19.7172 139.374 17.0283 133.996 17.0283H120.552V44.8135H126.378V33.6098H132.652L137.581 44.5894H144.304L138.702 32.9376ZM126.602 28.9042V21.5098H133.996C136.461 21.5098 138.03 22.6302 138.03 25.095C138.03 27.5598 136.685 28.6802 133.996 28.6802H126.602V28.9042Z" fill="#231F20"/>
</g>
<mask id="mask1_1699_809" style="mask-type:luminance" maskUnits="userSpaceOnUse" x="0" y="0" width="242" height="81">
<path d="M242 0H0V80.4426H242V0Z" fill="white"/>
</mask>
<g mask="url(#mask1_1699_809)">
<path d="M92.5425 17.0283H114.95V21.5098H106.659V44.5894H100.609V21.5098H92.5425V17.0283Z" fill="#231F20"/>
</g>
<mask id="mask2_1699_809" style="mask-type:luminance" maskUnits="userSpaceOnUse" x="0" y="0" width="242" height="81">
<path d="M242 0H0V80.4426H242V0Z" fill="white"/>
</mask>
<g mask="url(#mask2_1699_809)">
<path d="M151.922 17.0283H172.089V21.5098H157.748V28.008H170.52V32.7135H157.748V40.1079H172.089V44.5894H151.922V17.0283Z" fill="#231F20"/>
</g>
<mask id="mask3_1699_809" style="mask-type:luminance" maskUnits="userSpaceOnUse" x="0" y="0" width="242" height="81">
<path d="M242 0H0V80.4426H242V0Z" fill="white"/>
</mask>
<g mask="url(#mask3_1699_809)">
<path d="M196.065 44.5894L185.757 26.2154V44.5894H180.156V17.0283H187.55L197.633 34.9542H197.857V17.0283H203.235V44.5894H196.065Z" fill="#231F20"/>
</g>
<mask id="mask4_1699_809" style="mask-type:luminance" maskUnits="userSpaceOnUse" x="0" y="0" width="242" height="81">
<path d="M242 0H0V80.4426H242V0Z" fill="white"/>
</mask>
<g mask="url(#mask4_1699_809)">
<path d="M217.8 21.7353H220.937C227.883 21.7353 229.004 26.4408 229.004 30.6983C229.004 35.1797 227.883 40.1094 220.937 39.8853H217.8V21.7353ZM211.974 44.5908H221.385C230.124 44.5908 235.278 40.3334 235.278 30.6983C235.278 21.0631 229.9 16.8057 221.385 16.8057H211.974V44.5908Z" fill="#231F20"/>
</g>
<mask id="mask5_1699_809" style="mask-type:luminance" maskUnits="userSpaceOnUse" x="0" y="0" width="242" height="81">
<path d="M242 0H0V80.4426H242V0Z" fill="white"/>
</mask>
<g mask="url(#mask5_1699_809)">
<path d="M110.917 67.4465H108.228V55.3465L105.091 67.4465H102.178L99.0407 55.3465V67.4465H96.1277V51.9854H100.833L103.522 62.5168L106.435 51.9854H110.917V67.4465Z" fill="#231F20"/>
</g>
<mask id="mask6_1699_809" style="mask-type:luminance" maskUnits="userSpaceOnUse" x="0" y="0" width="242" height="81">
<path d="M242 0H0V80.4426H242V0Z" fill="white"/>
</mask>
<g mask="url(#mask6_1699_809)">
<path d="M134.444 51.9854H131.307V67.4465H134.444V51.9854Z" fill="#231F20"/>
</g>
<mask id="mask7_1699_809" style="mask-type:luminance" maskUnits="userSpaceOnUse" x="0" y="0" width="242" height="81">
<path d="M242 0H0V80.4426H242V0Z" fill="white"/>
</mask>
<g mask="url(#mask7_1699_809)">
<path d="M195.393 57.3631C195.393 57.8113 194.944 58.2594 194.496 58.2594C194.272 58.2594 194.048 58.4835 193.6 58.4835C193.152 58.4835 192.704 58.4835 192.031 58.4835H191.583H189.343V54.6742H191.807C192.928 54.6742 193.6 54.6742 194.048 54.6742C194.272 54.6742 194.72 54.8983 194.944 54.8983C195.169 55.1224 195.393 55.3465 195.617 55.5705C195.841 55.7946 195.841 56.2428 195.841 56.4668C195.617 56.915 195.617 57.1391 195.393 57.3631ZM195.841 60.9483C195.841 60.9483 196.513 60.7242 196.737 60.7242C197.409 60.5002 198.081 59.8279 198.53 59.1557C198.978 58.4835 198.978 57.3631 198.978 56.4668C198.978 55.5705 198.754 54.6742 198.306 54.002C197.857 53.1057 197.185 52.6576 196.289 52.4335C195.841 52.2094 195.617 52.2094 195.169 52.2094C194.496 52.2094 193.824 51.9854 192.704 51.9854H186.206V67.4465H189.343V61.3965H192.256L195.617 67.4465H199.426L195.841 60.9483Z" fill="#231F20"/>
</g>
<mask id="mask8_1699_809" style="mask-type:luminance" maskUnits="userSpaceOnUse" x="0" y="0" width="242" height="81">
<path d="M242 0H0V80.4426H242V0Z" fill="white"/>
</mask>
<g mask="url(#mask8_1699_809)">
<path d="M226.315 64.0838C225.643 64.7561 224.746 64.9801 223.626 64.9801C222.73 64.9801 222.057 64.7561 221.385 64.3079C220.937 64.0838 220.489 63.6357 220.041 62.9635C219.817 62.7394 219.593 62.2912 219.593 61.8431C219.369 61.1709 219.369 60.4987 219.369 59.8264C219.369 58.482 219.593 57.1375 220.265 56.2412C220.937 55.1209 222.057 54.4487 223.626 54.4487C225.194 54.4487 226.539 55.1209 227.211 56.4653C227.659 57.3616 227.883 58.482 227.883 59.8264C227.659 61.619 227.211 62.9635 226.315 64.0838ZM229.004 54.0005C227.659 52.432 225.867 51.7598 223.402 51.7598C220.937 51.7598 219.144 52.432 217.8 54.0005C216.456 55.345 215.783 57.3616 215.783 59.8264C215.783 61.8431 216.231 63.6357 217.352 65.2042C218.696 66.9968 220.713 67.8931 223.178 67.8931C225.643 67.8931 227.659 66.9968 229.004 65.4283C230.124 64.0838 230.572 62.2912 230.572 60.0505C231.02 57.3616 230.348 55.569 229.004 54.0005Z" fill="#231F20"/>
</g>
<mask id="mask9_1699_809" style="mask-type:luminance" maskUnits="userSpaceOnUse" x="0" y="0" width="242" height="81">
<path d="M242 0H0V80.4426H242V0Z" fill="white"/>
</mask>
<g mask="url(#mask9_1699_809)">
<path d="M164.47 57.139C164.246 56.2427 163.798 54.4501 161.109 54.4501C159.541 54.4501 157.3 55.5704 157.3 59.8279C157.3 62.5167 158.42 64.9816 161.109 64.9816C162.902 64.9816 164.022 64.0853 164.47 62.0686H167.607C166.935 65.4297 164.694 67.6704 160.885 67.6704C156.852 67.6704 153.939 64.9816 153.939 59.6038C153.939 54.226 157.076 51.5371 160.885 51.5371C165.367 51.5371 167.383 54.6741 167.383 56.9149H164.47V57.139Z" fill="#231F20"/>
</g>
<mask id="mask10_1699_809" style="mask-type:luminance" maskUnits="userSpaceOnUse" x="0" y="0" width="242" height="81">
<path d="M242 0H0V80.4426H242V0Z" fill="white"/>
</mask>
<g mask="url(#mask10_1699_809)">
<path d="M236.622 46.3841H234.83V50.8656H234.157V46.3841H232.589V45.7119H236.622V46.3841Z" fill="#231F20"/>
</g>
<mask id="mask11_1699_809" style="mask-type:luminance" maskUnits="userSpaceOnUse" x="0" y="0" width="242" height="81">
<path d="M242 0H0V80.4426H242V0Z" fill="white"/>
</mask>
<g mask="url(#mask11_1699_809)">
<path d="M242 50.8656H241.328V46.6082L239.983 50.8656H239.311L237.967 46.6082V50.8656H237.294V45.936H238.191L239.311 49.5212C239.311 49.5212 239.311 49.7452 239.535 49.9693C239.535 50.1934 239.535 50.1934 239.535 50.1934L239.759 49.2971L240.88 45.7119H241.776V50.8656H242Z" fill="#231F20"/>
</g>
<mask id="mask12_1699_809" style="mask-type:luminance" maskUnits="userSpaceOnUse" x="0" y="0" width="242" height="81">
<path d="M242 0H0V80.4426H242V0Z" fill="white"/>
</mask>
<g mask="url(#mask12_1699_809)">
<path d="M80.6667 40.3333C80.6667 62.5167 62.5167 80.6667 40.3333 80.6667C28.9056 80.6667 18.3741 75.9611 11.2037 68.1185C20.1667 74.1685 38.0926 70.1352 54.0019 57.587C69.687 45.263 78.2019 29.1296 74.6167 18.8222C78.4259 25.0963 80.6667 32.4907 80.6667 40.3333ZM11.2037 40.3333H6.49815L7.61852 37.6444C7.61852 37.6444 16.1333 35.8519 24.6481 28.2333H28.0093L23.7519 37.4204H30.6981L29.3537 40.1093H22.4074C16.5815 51.537 17.2537 55.1222 18.3741 58.0352C21.063 65.6537 35.8519 63.637 50.1926 52.2093C64.7574 41.0056 71.2556 25.3204 64.9815 17.2537C59.6037 10.3074 45.9352 11.4278 32.9389 19.2704C47.0556 10.0833 62.0685 7.61852 69.687 12.9963C69.9111 13.2204 70.1352 13.4444 70.3593 13.6685C63.1889 5.37778 52.4333 0 40.3333 0C18.15 0 0 18.15 0 40.3333C0 49.2963 2.91296 57.363 7.61852 64.0852C7.39444 63.637 7.17037 63.1889 6.72222 62.7407C4.25741 56.6907 5.82593 48.6241 11.2037 40.3333Z" fill="#D71920"/>
</g>
<mask id="mask13_1699_809" style="mask-type:luminance" maskUnits="userSpaceOnUse" x="0" y="0" width="242" height="81">
<path d="M242 0H0V80.4426H242V0Z" fill="white"/>
</mask>
<g mask="url(#mask13_1699_809)">
<path d="M74.6167 19.0462C73.2722 16.8055 71.7037 14.7888 70.1352 12.9962C62.2926 7.61843 47.5037 10.0832 33.3871 19.2703C46.1593 11.4277 59.8278 10.0832 65.4297 17.2536C71.7037 25.3203 65.2056 41.0055 50.6408 52.2092C36.0759 63.4129 21.5111 65.6536 18.8222 58.0351C17.7019 55.1221 17.0296 51.5369 22.8556 40.1092H29.8019L31.1463 37.4203H24.2L28.4574 28.2332H25.0963C16.5815 36.0758 8.06669 37.6444 8.06669 37.6444L6.49817 40.3332H11.2037C5.82595 48.624 4.25743 56.6907 6.72224 62.7407C8.06669 64.7573 9.41113 66.5499 11.2037 68.1184C20.1667 74.1684 38.0926 70.1351 54.0019 57.5869C69.6871 45.4869 77.9778 29.1295 74.6167 19.0462Z" fill="white"/>
</g>
</g>
<defs>
<clipPath id="clip0_1699_809">
<rect width="244" height="80" fill="white"/>
</clipPath>
</defs>
</svg>
