<svg width="393" height="90" viewBox="0 0 393 90" fill="none" xmlns="http://www.w3.org/2000/svg">
<g clip-path="url(#clip0_1704_980)">
<path fill-rule="evenodd" clip-rule="evenodd" d="M37.025 42.5195C35.2047 43.6431 28.5668 47.5085 21.3154 48.8818C21.9593 52.9728 24.5553 69.1447 25.6035 70.8023C26.3495 71.982 29.7203 75.8081 32.7631 78.7583C34.7454 80.6804 36.4992 82.1939 37.041 82.1939V82.1973H37.055V82.1939C37.5968 82.1939 39.3506 80.6804 41.3329 78.7583C44.3757 75.8081 47.7465 71.982 48.4924 70.8023C49.5407 69.1447 52.1367 52.9728 52.7806 48.8818C45.5292 47.5085 38.8913 43.6433 37.0709 42.5195L37.048 42.535L37.025 42.5195Z" fill="white"/>
<path d="M29.4006 26.7224C31.2282 26.7224 32.7097 25.176 32.7097 23.2684C32.7097 21.3609 31.2282 19.8145 29.4006 19.8145C27.5729 19.8145 26.0914 21.3609 26.0914 23.2684C26.0914 25.176 27.5729 26.7224 29.4006 26.7224Z" fill="white" stroke="white" stroke-width="2.17941" stroke-miterlimit="0" stroke-linecap="round" stroke-linejoin="round"/>
<path fill-rule="evenodd" clip-rule="evenodd" d="M17.6791 52.1332C17.2405 51.7862 16.7657 51.2531 16.4133 50.47C14.1229 45.3813 13.6504 43.887 16.2812 43.616C18.2631 43.412 21.2262 43.5006 23.1721 44.2414L23.2436 44.2599C21.4416 44.7994 19.5481 45.2521 17.6272 45.5412L16.5957 45.6964L16.762 46.7258C16.7654 46.7463 17.1297 48.9848 17.6791 52.1332ZM16.0831 24.0917C16.6753 23.7228 17.1034 24.1717 17.0631 24.7734C17.0416 25.0938 16.677 26.2291 15.5713 26.5223C15.5713 26.5223 16.6267 25.9492 16.5794 24.851C16.5678 24.5811 16.3395 24.3159 16.0831 24.0917ZM29.4158 18.0342C31.9843 18.0342 34.1259 19.8596 34.6147 22.284C33.7079 20.2222 31.721 18.7911 29.4158 18.7911C27.1104 18.7911 25.1239 20.2222 24.2168 22.284C24.7056 19.8596 26.8475 18.0342 29.4158 18.0342ZM29.4158 19.363C31.6111 19.363 33.3907 21.1425 33.3907 23.3378C33.3907 25.533 31.6111 27.3125 29.4158 27.3125C27.2206 27.3125 25.4411 25.533 25.4411 23.3378C25.4411 21.1425 27.2206 19.363 29.4158 19.363ZM27.5837 42.748C27.6573 42.1004 27.6575 41.4157 27.5782 40.3948C27.4452 38.6796 26.5451 39.4638 23.4341 38.42C20.8352 37.5477 14.7618 34.699 12.9798 32.7191C12.6281 32.3277 12.4246 32.1031 12.1031 31.6937C11.8047 31.3139 11.608 31.2007 11.4086 30.9037C11.8169 30.8585 12.2195 30.8334 12.6157 30.8254C12.7712 30.822 12.9255 30.822 13.0789 30.8234L14.1296 32.3243L14.5163 30.9121C15.9938 31.0736 17.3475 31.433 18.5247 31.8191C19.1072 32.0103 19.708 32.2207 20.3217 32.4349L20.069 33.8334L21.8995 32.9763C22.8479 33.2915 23.8154 33.5868 24.7832 33.8107L24.9185 35.1635L26.2925 34.0948C27.3574 34.2445 28.4118 34.2741 29.431 34.1142L29.7015 35.4807L31.2642 33.5884C32.1645 33.198 33.0213 32.6064 33.8145 31.7565C28.3538 35.5788 21.2607 31.3069 15.833 30.4317C12.4833 29.8914 10.9847 30.215 10.3148 30.5918C8.8135 29.7543 13.1137 23.0127 14.1453 21.7179C16.1506 19.2012 23.1274 19.883 25.7593 17.7216C28.5081 15.4621 33.1472 18.158 35.2691 20.0689C37.082 21.7015 37.637 24.2634 38.0982 26.5642C38.3496 27.8179 38.6137 29.0833 38.7566 30.3621C39.2541 34.8188 37.9921 36.3164 36.9149 38.107L36.9101 38.1036L36.9073 38.1057L36.9046 38.1036L36.715 38.2238L36.3578 38.444C36.3413 38.4541 32.7116 40.7201 27.5837 42.748ZM43.0528 81.3797C42.8679 81.9885 42.689 82.8491 42.5569 84.3065C42.4816 85.137 46.5192 84.3727 49.5327 84.5334C49.7441 84.5449 62.2461 85.2406 59.2177 84.168C58.8132 84.0247 53.8687 81.7678 52.5533 81.4177C50.026 80.7448 48.2258 81.3871 48.1092 80.6224C47.9198 79.3825 48.5104 77.5678 49.4008 74.9928C47.702 76.8637 45.3668 79.252 43.1927 81.2516L43.0528 81.3797ZM31.2224 81.7961C31.3634 82.3731 31.4951 83.1529 31.5981 84.3065C31.6723 85.137 27.6945 84.3727 24.7254 84.5334C24.5172 84.5449 12.2002 85.2406 15.1839 84.168C15.5825 84.0247 20.4536 81.7678 21.7497 81.4177C24.2393 80.7448 26.0129 81.3871 26.1279 80.6224C26.2956 79.5082 25.8429 77.9298 25.1126 75.7527C26.722 77.4829 28.7328 79.514 30.6222 81.2516C30.8231 81.4363 31.0236 81.6179 31.2224 81.7961ZM38.8549 5.54908C56.4105 10.9709 57.6227 28.8485 55.2078 45.3792C53.8023 45.127 52.4179 44.7934 51.0797 44.4088L51.0824 44.3897C53.2563 30.1272 52.6841 14.9388 42.0012 8.11839C41.4572 7.77116 37.8987 5.86339 36.3478 5.23368C35.8318 5.02417 36.0706 4.71492 38.8549 5.54908Z" fill="#00AA00"/>
<path fill-rule="evenodd" clip-rule="evenodd" d="M28.1213 21.2744C28.7485 21.273 29.2597 22.3307 29.263 23.6376C29.2664 24.9443 28.7607 26.0049 28.1335 26.0064C27.5062 26.0078 26.9951 24.9501 26.9918 23.6434C26.9884 22.3367 27.4941 21.2761 28.1213 21.2744ZM28.0045 22.1907C28.1598 22.1903 28.2864 22.4523 28.2873 22.7761C28.2879 23.0997 28.1627 23.3625 28.0075 23.3628C27.8521 23.3632 27.7255 23.1012 27.7247 22.7774C27.724 22.4538 27.849 22.1911 28.0045 22.1907Z" fill="black"/>
<path fill-rule="evenodd" clip-rule="evenodd" d="M36.8812 40.5342C34.8054 41.7495 27.2357 45.9304 18.9664 47.4159C19.7007 51.8407 22.6611 69.3328 23.8565 71.1257C24.7072 72.4017 28.5511 76.5402 32.021 79.7312C34.2816 81.8102 36.2815 83.4472 36.8994 83.4472V83.4506H36.9153V83.4472C37.5332 83.4472 39.5332 81.8102 41.7937 79.7312C45.2636 76.5402 49.1076 72.4017 49.9582 71.1257C51.1536 69.3328 54.114 51.8407 54.8483 47.4159C46.579 45.9304 39.0094 41.7497 36.9335 40.5342L36.9074 40.5508L36.8812 40.5342ZM36.9074 78.038L36.8994 78.0384C36.0176 78.0384 34.3759 76.7185 32.6893 75.0422C30.4465 72.8131 27.9241 69.8611 27.3434 68.92C26.2921 67.2159 23.9463 51.6152 23.9395 51.5704L23.7856 50.5625L24.7966 50.3981C30.7534 49.4293 36.3055 45.6835 36.3214 45.6729L36.9019 45.2811L36.9074 45.2845L36.9128 45.2811L37.4936 45.6729C37.5095 45.6835 43.0616 49.4293 49.0184 50.3981L50.0294 50.5625L49.8754 51.5704C49.8686 51.6152 47.5229 67.2159 46.4716 68.92C45.8909 69.8611 43.3685 72.8131 41.1258 75.0422C39.4391 76.7185 37.7976 78.0384 36.9156 78.0384L36.9074 78.038Z" fill="#AB0000"/>
<path fill-rule="evenodd" clip-rule="evenodd" d="M45.6134 53.3242C44.5518 56.0913 43.5685 58.6233 42.6636 60.9207C42.2806 61.9126 41.8935 62.8958 41.5019 63.8705C41.1104 64.8451 40.7448 65.75 40.4056 66.5853C40.0661 67.4207 39.7615 68.1472 39.4918 68.7649C39.222 69.3829 39.0175 69.8223 38.8783 70.0833C38.5826 70.6402 38.2345 71.023 37.8341 71.232C37.4339 71.4407 37.0598 71.5625 36.7116 71.5974C36.2767 71.6496 35.8503 71.6061 35.4326 71.4668L28.2017 53.3242C28.6193 53.2546 29.0413 53.2242 29.4677 53.2329C29.8941 53.2416 30.29 53.3112 30.6554 53.4417C31.0209 53.5722 31.3559 53.7724 31.6605 54.0421C31.9651 54.3119 32.2129 54.6731 32.4045 55.1254C32.4219 55.1951 32.5045 55.417 32.6525 55.7911C32.8005 56.1652 32.9831 56.6352 33.2007 57.2006C33.4181 57.7663 33.6575 58.3972 33.9185 59.0933C34.1796 59.7895 34.4493 60.4943 34.7278 61.2077C35.3716 62.8959 36.1026 64.7841 36.9205 66.8725C37.7211 64.7841 38.4434 62.8959 39.0872 61.2077C39.3657 60.4943 39.6354 59.7895 39.8964 59.0933C40.1575 58.3972 40.3968 57.7663 40.6143 57.2006C40.8319 56.6352 41.0146 56.1652 41.1625 55.7911C41.3104 55.417 41.4018 55.1951 41.4367 55.1254C41.628 54.6731 41.8761 54.3119 42.1807 54.0421C42.4851 53.7724 42.8201 53.5722 43.1857 53.4417C43.5511 53.3112 43.9426 53.2416 44.3603 53.2329C44.778 53.2242 45.1957 53.2546 45.6134 53.3242Z" fill="black" stroke="black" stroke-width="1.0001"/>
<path fill-rule="evenodd" clip-rule="evenodd" d="M109.504 24.4936C106.973 31.0339 104.629 37.0191 102.472 42.4491C101.56 44.7937 100.637 47.1177 99.7035 49.421C98.7699 51.7246 97.8988 53.8636 97.0898 55.8381C96.2809 57.8128 95.555 59.53 94.912 60.9904C94.269 62.4503 93.7815 63.4893 93.4496 64.1061C92.7445 65.4223 91.9148 66.3276 90.961 66.8212C90.0067 67.3148 89.1149 67.6025 88.2852 67.685C87.2478 67.8085 86.2315 67.7055 85.2359 67.3764L68 24.4936C68.9956 24.329 70.0016 24.2568 71.0179 24.2777C72.0342 24.2982 72.9781 24.4627 73.8492 24.7714C74.7203 25.0795 75.5188 25.5527 76.2447 26.1903C76.9705 26.8279 77.5618 27.6814 78.0182 28.7507C78.0596 28.9154 78.2566 29.4402 78.6092 30.3245C78.9617 31.2088 79.3975 32.3195 79.916 33.6564C80.4344 34.9932 81.0046 36.4843 81.6271 38.1299C82.2495 39.7748 82.8925 41.4408 83.5559 43.1277C85.0911 47.1177 86.8331 51.5806 88.783 56.5169C90.6911 51.5806 92.4126 47.1177 93.9474 43.1277C94.6111 41.4408 95.2542 39.7748 95.8766 38.1299C96.4985 36.4843 97.0691 34.9932 97.5876 33.6564C98.1062 32.3195 98.5418 31.2088 98.8945 30.3245C99.2471 29.4402 99.4646 28.9154 99.5478 28.7507C100.004 27.6814 100.595 26.8279 101.321 26.1903C102.047 25.5527 102.845 25.0795 103.717 24.7714C104.588 24.4627 105.521 24.2982 106.517 24.2777C107.512 24.2568 108.508 24.329 109.504 24.4936ZM128.793 61.3913C129.291 61.6794 129.768 62.173 130.224 62.8722L130.411 63.0572L130.224 63.2423C128.855 64.7232 127.227 65.8852 125.34 66.7285C123.452 67.5718 121.409 67.9936 119.21 67.9936C117.302 67.9936 115.508 67.6128 113.828 66.852C112.148 66.0909 110.665 65.0318 109.379 63.6744C108.135 62.358 107.15 60.8054 106.423 59.0158C105.697 57.2263 105.334 55.3035 105.334 53.2465C105.334 51.19 105.656 49.2667 106.299 47.4776C106.942 45.6881 107.865 44.1149 109.068 42.7571C110.271 41.4408 111.733 40.392 113.455 39.6107C115.176 38.829 117.095 38.438 119.21 38.438C120.372 38.438 121.648 38.6132 123.037 38.9627C124.427 39.3124 125.723 39.8675 126.926 40.6288C128.129 41.3896 129.125 42.3871 129.913 43.6213C130.701 44.8552 131.095 46.3361 131.095 48.0635C131.095 49.7501 130.66 51.1182 129.789 52.167C128.918 53.2158 127.881 54.0385 126.678 54.6351C125.475 55.2313 124.199 55.6429 122.851 55.8691C121.503 56.0951 120.331 56.2083 119.335 56.2083C117.8 56.2083 116.462 56.1156 115.321 55.9306C114.181 55.7454 113.403 55.6117 112.988 55.5297C113.154 57.0106 113.486 58.2136 113.984 59.1393C114.481 60.0646 115.042 60.7951 115.664 61.3298C116.286 61.8644 116.908 62.2243 117.53 62.4093C118.153 62.5944 118.713 62.6872 119.21 62.6872C120.082 62.6872 120.911 62.6047 121.699 62.4401C122.488 62.2756 123.193 62.0904 123.815 61.8849C124.438 61.6794 125.029 61.4737 125.588 61.2678C126.149 61.0621 126.698 60.9596 127.237 60.9596C127.818 60.9596 128.337 61.1032 128.793 61.3913ZM119.21 43.6828C118.754 43.7238 118.215 43.8372 117.593 44.0222C116.97 44.2072 116.359 44.5466 115.757 45.0402C115.156 45.5339 114.606 46.2331 114.108 47.1382C113.61 48.043 113.258 49.1949 113.05 50.5934C113.714 50.7993 114.658 50.9946 115.882 51.1797C117.105 51.3647 118.329 51.3955 119.553 51.272C120.777 51.1489 121.855 50.7993 122.789 50.2232C123.722 49.6476 124.23 48.6808 124.313 47.3234C124.396 46.2951 123.992 45.4104 123.1 44.6701C122.208 43.9295 120.911 43.6004 119.21 43.6828ZM148.518 61.8234C148.601 62.8927 148.518 63.8594 148.269 64.7232C148.062 65.4638 147.647 66.1733 147.024 66.852C146.403 67.5308 145.428 67.9112 144.1 67.9936C142.814 68.1167 141.694 67.9831 140.74 67.5923C139.786 67.2016 138.988 66.6567 138.344 65.9571C137.701 65.2578 137.224 64.4351 136.913 63.4893C136.602 62.543 136.446 61.5558 136.446 60.5275V30.4787C136.405 29.2443 136.374 28.2468 136.353 27.4862C136.332 26.7249 136.301 26.1185 136.26 25.6659C136.218 25.1723 136.177 24.7816 136.136 24.4936C138.707 24.4936 140.678 25.0283 142.047 26.0976C143.416 27.1673 144.1 28.9153 144.1 31.3425V59.7869C144.1 60.7742 144.287 61.484 144.66 61.9157C145.034 62.3478 145.469 62.6047 145.967 62.6872C146.465 62.7692 146.962 62.7179 147.46 62.5328C147.958 62.3478 148.311 62.1111 148.518 61.8234ZM176.332 42.819C177.619 44.1354 178.625 45.6881 179.35 47.4776C180.076 49.2667 180.439 51.19 180.439 53.2465C180.439 55.3035 180.107 57.2263 179.443 59.0158C178.78 60.8054 177.847 62.358 176.644 63.6744C175.441 65.0318 173.978 66.1011 172.257 66.8827C170.535 67.6645 168.617 68.0551 166.501 68.0551C164.593 68.0551 162.799 67.6645 161.118 66.8827C159.438 66.1011 157.956 65.0318 156.67 63.6744C155.425 62.358 154.44 60.8054 153.714 59.0158C152.988 57.2263 152.625 55.3035 152.625 53.2465C152.625 51.19 152.946 49.2667 153.589 47.4776C154.233 45.6881 155.155 44.1354 156.358 42.819C157.561 41.4618 159.024 40.392 160.745 39.6107C162.467 38.829 164.385 38.438 166.501 38.438C168.451 38.438 170.266 38.829 171.946 39.6107C173.626 40.392 175.088 41.4618 176.332 42.819ZM166.501 62.7487C167.04 62.7487 167.673 62.6255 168.399 62.3785C169.125 62.1319 169.82 61.6589 170.483 60.9596C171.147 60.26 171.707 59.2937 172.163 58.0593C172.62 56.8254 172.848 55.221 172.848 53.2465C172.848 51.272 172.62 49.6578 172.163 48.4029C171.707 47.1485 171.147 46.1817 170.483 45.5031C169.82 44.8245 169.125 44.3616 168.399 44.115C167.673 43.868 167.04 43.7443 166.501 43.7443C165.962 43.7443 165.329 43.868 164.603 44.115C163.877 44.3616 163.182 44.8245 162.519 45.5031C161.855 46.1817 161.295 47.1485 160.839 48.4029C160.382 49.6578 160.154 51.272 160.154 53.2465C160.154 55.221 160.382 56.8254 160.839 58.0593C161.295 59.2937 161.855 60.26 162.519 60.9596C163.182 61.6589 163.877 62.1319 164.603 62.3785C165.329 62.6255 165.962 62.7487 166.501 62.7487ZM198.671 43.6828C198.131 43.6828 197.499 43.8065 196.773 44.053C196.047 44.3001 195.352 44.7625 194.689 45.4411C194.025 46.1202 193.465 47.0865 193.009 48.3414C192.552 49.5958 192.324 51.2105 192.324 53.185C192.324 55.1595 192.552 56.7739 193.009 58.0286C193.465 59.283 194.025 60.2498 194.689 60.9284C195.352 61.6072 196.047 62.0699 196.773 62.317C197.499 62.5635 198.131 62.6872 198.671 62.6872C199.542 62.6872 200.372 62.6047 201.16 62.4401C201.948 62.2756 202.653 62.0904 203.276 61.8849C203.898 61.6382 204.489 61.422 205.049 61.237C205.609 61.0519 206.159 60.9596 206.698 60.9596C207.237 60.9596 207.777 61.1032 208.316 61.3913C208.772 61.6794 209.249 62.1525 209.747 62.8106L209.871 63.0572L209.685 63.2423C208.316 64.7232 206.687 65.8852 204.8 66.7285C202.913 67.5718 200.89 67.9936 198.733 67.9936C196.783 67.9936 194.968 67.6025 193.288 66.8212C191.608 66.0396 190.126 64.9907 188.839 63.6744C187.595 62.358 186.61 60.8054 185.884 59.0158C185.158 57.2263 184.795 55.3035 184.795 53.2465C184.795 51.19 185.127 49.2667 185.79 47.4776C186.454 45.6881 187.387 44.1149 188.591 42.7571C189.794 41.4408 191.245 40.392 192.946 39.6107C194.647 38.829 196.555 38.438 198.671 38.438C200.87 38.438 202.913 38.8597 204.8 39.703C206.687 40.5463 208.316 41.7083 209.685 43.1892L209.871 43.3743L209.685 43.6213C209.228 44.3616 208.751 44.8347 208.253 45.0402C207.714 45.3694 207.196 45.5134 206.698 45.4724C206.159 45.4724 205.609 45.3796 205.049 45.1945C204.489 45.0095 203.898 44.8142 203.276 44.6081C202.653 44.3616 201.948 44.1457 201.16 43.9607C200.372 43.7752 199.542 43.6828 198.671 43.6828ZM221.943 29.9851C221.071 31.4245 219.868 32.1446 218.334 32.1446C217.67 32.1446 217.048 32.0006 216.467 31.7127C215.845 31.3425 215.368 30.8591 215.036 30.2625C214.704 29.6662 214.538 29.0183 214.538 28.319C214.538 27.5374 214.725 26.8382 215.098 26.221C215.471 25.5219 215.99 24.977 216.653 24.5859C217.317 24.1953 218.002 24 218.707 24C219.329 24 219.931 24.1645 220.511 24.4936C221.175 24.8226 221.673 25.2957 222.005 25.9126C222.337 26.5297 222.503 27.1878 222.503 27.8871C222.503 28.6277 222.316 29.327 221.943 29.9851ZM226.796 61.8234C226.589 62.1111 226.236 62.3478 225.738 62.5328C225.24 62.7179 224.743 62.7692 224.245 62.6872C223.747 62.6047 223.312 62.3478 222.938 61.9157C222.565 61.484 222.378 60.7742 222.378 59.7869V45.0402C222.378 43.8065 222.389 42.8088 222.409 42.0477C222.43 41.2869 222.461 40.68 222.503 40.2274C222.544 39.7338 222.586 39.3431 222.627 39.0551C220.055 39.0551 218.106 39.5898 216.778 40.6595C215.451 41.7288 214.787 43.4978 214.787 45.966L214.725 60.5275C214.725 61.5558 214.88 62.543 215.192 63.4893C215.502 64.4351 215.979 65.2578 216.622 65.9571C217.265 66.6567 218.064 67.2016 219.018 67.5923C219.972 67.9834 221.092 68.1167 222.378 67.9936C223.706 67.9112 224.681 67.5308 225.303 66.852C225.925 66.1733 226.34 65.4638 226.547 64.7232C226.796 63.8594 226.879 62.8927 226.796 61.8234ZM229.97 52.5064C229.97 49.7501 230.374 47.4981 231.183 45.7498C231.992 44.0017 233.04 42.634 234.326 41.6468C235.611 40.6595 237.053 39.9911 238.65 39.6415C240.247 39.2919 241.834 39.1171 243.41 39.1171H246.459C246.667 39.9809 246.708 40.783 246.584 41.5233C246.501 42.1404 246.221 42.7366 245.744 43.3128C245.267 43.8885 244.489 44.2381 243.41 44.3616C242.705 44.4436 242.01 44.5979 241.326 44.8245C240.641 45.0505 240.03 45.4411 239.49 45.9967C238.951 46.5519 238.505 47.3439 238.152 48.3722C237.8 49.4004 237.623 50.7784 237.623 52.5064V61.4528C237.623 62.6872 237.634 63.6847 237.654 64.4453C237.675 65.2066 237.706 65.8134 237.748 66.2656C237.789 66.7592 237.831 67.1299 237.872 67.3764C235.342 67.3764 233.392 66.852 232.023 65.8032C230.654 64.754 229.97 62.9956 229.97 60.5275V52.5064ZM253.18 51.6426C254.299 50.9428 255.565 50.4185 256.975 50.069C258.386 49.7193 259.858 49.5444 261.393 49.5444C263.55 49.5444 265.604 49.8531 267.553 50.4702C267.429 49.1949 267.159 48.0635 266.744 47.0763C266.205 45.8015 265.396 44.8757 264.318 44.3001C263.903 44.094 263.457 43.9397 262.98 43.8372C262.503 43.7341 261.953 43.6828 261.331 43.6828H260.646C260.066 43.7238 259.485 43.8167 258.904 43.9607C258.323 44.1042 257.743 44.2791 257.162 44.4851C256.581 44.6906 256 44.8655 255.42 45.0095C254.839 45.1535 254.279 45.2254 253.739 45.2254C253.159 45.2254 252.599 45.1018 252.059 44.8552C251.562 44.5671 251.126 44.094 250.753 43.4359L250.628 43.1892L250.753 43.0042C251.997 41.6878 253.459 40.6288 255.139 39.8265C256.819 39.0244 258.655 38.5615 260.646 38.438C260.854 38.3969 261.03 38.3764 261.175 38.3764C261.32 38.3764 261.497 38.3764 261.704 38.3764C263.612 38.3764 265.355 38.7158 266.931 39.3944C268.507 40.0732 269.876 41.0092 271.038 42.2019C273.402 44.7522 274.626 48.1047 274.709 52.2592V52.7529C274.709 57.0311 273.61 60.507 271.411 63.1808C270.333 64.497 269.036 65.5665 267.522 66.3891C266.008 67.2119 264.318 67.726 262.451 67.9316C262.202 67.9731 261.953 67.9936 261.704 67.9936C261.455 67.9936 261.186 67.9936 260.895 67.9936C260.024 67.9936 259.111 67.9214 258.157 67.7773C257.203 67.6337 256.27 67.3558 255.357 66.9444C254.403 66.5742 253.532 66.0909 252.744 65.4946C251.956 64.898 251.292 64.127 250.753 63.1808C249.965 61.9879 249.55 60.5275 249.508 58.8001V58.4295C249.508 56.8254 249.84 55.4887 250.504 54.4189C251.084 53.3495 251.977 52.4237 253.18 51.6426ZM266.06 54.6039C265.52 54.5219 264.909 54.4394 264.224 54.3573C263.54 54.2748 262.845 54.2338 262.14 54.2338C261.559 54.2338 260.999 54.2645 260.46 54.3265C259.92 54.3882 259.423 54.5014 258.966 54.6659C257.929 54.995 257.141 55.5092 256.602 56.2083C256.394 56.4554 256.228 56.7327 256.104 57.0413C255.979 57.35 255.897 57.6892 255.855 58.0593C255.813 58.1828 255.793 58.368 255.793 58.6145C255.793 59.0261 255.855 59.4685 255.979 59.9411C256.104 60.4143 256.353 60.8566 256.726 61.2678C257.058 61.6794 257.546 62.0289 258.189 62.317C258.831 62.6047 259.692 62.7487 260.771 62.7487C261.103 62.7487 261.351 62.7282 261.517 62.6872C262.679 62.6462 263.695 62.317 264.566 61.6999C264.981 61.4528 265.334 61.1549 265.624 60.8054C265.915 60.4553 266.164 60.0749 266.371 59.6637C266.827 58.8821 267.139 58.0798 267.304 57.2571C267.47 56.4345 267.553 55.6737 267.553 54.9745C267.512 54.9745 267.481 54.964 267.46 54.9433C267.439 54.9228 267.408 54.9126 267.366 54.9126C267.201 54.8714 267.014 54.8304 266.807 54.7894C266.599 54.7479 266.35 54.6864 266.06 54.6039ZM278.256 53.2465C278.256 51.19 278.619 49.2667 279.345 47.4776C280.071 45.6881 281.056 44.1354 282.3 42.819C283.545 41.4618 285.007 40.392 286.687 39.6107C288.367 38.829 290.182 38.438 292.132 38.438C294.247 38.438 296.166 38.829 297.888 39.6107C299.609 40.392 301.071 41.4618 302.275 42.819C303.477 44.1354 304.411 45.6881 305.074 47.4776C305.738 49.2667 306.07 51.19 306.07 53.2465C306.07 55.3035 305.707 57.2263 304.981 59.0158C304.255 60.8054 303.249 62.358 301.963 63.6744C300.719 65.0318 299.257 66.1011 297.577 66.8827C295.897 67.6645 294.082 68.0551 292.132 68.0551C289.767 68.0551 287.673 67.582 285.847 66.6362L285.909 76.0147C285.909 77.2487 285.92 78.2565 285.94 79.0382C285.961 79.8198 285.992 80.4365 286.034 80.8891C286.075 81.3827 286.117 81.7529 286.158 82C283.586 82 281.626 81.4649 280.278 80.3955C278.93 79.3262 278.256 77.5572 278.256 75.089V53.2465ZM292.132 62.7487C292.671 62.7487 293.304 62.6255 294.03 62.3785C294.756 62.1319 295.45 61.6692 296.114 60.9904C296.778 60.3117 297.338 59.345 297.794 58.0901C298.251 56.8358 298.479 55.221 298.479 53.2465C298.479 51.272 298.251 49.6681 297.794 48.4337C297.338 47.1999 296.778 46.2434 296.114 45.5646C295.45 44.886 294.756 44.4231 294.03 44.1764C293.304 43.9295 292.671 43.8065 292.132 43.8065C291.592 43.8065 290.96 43.9295 290.234 44.1764C289.508 44.4231 288.813 44.886 288.15 45.5646C287.486 46.2434 286.926 47.1999 286.47 48.4337C286.013 49.6681 285.785 51.272 285.785 53.2465C285.785 55.221 286.013 56.8358 286.47 58.0901C286.926 59.345 287.486 60.3117 288.15 60.9904C288.813 61.6692 289.508 62.1319 290.234 62.3785C290.96 62.6255 291.592 62.7487 292.132 62.7487ZM327.849 61.9464C327.849 62.0699 327.869 62.214 327.911 62.3785C327.994 62.7077 328.035 63.0162 328.035 63.3043C328.035 64.0444 327.869 64.713 327.538 65.3096C327.206 65.9057 326.749 66.4096 326.169 66.8212C325.007 67.644 323.596 68.0551 321.937 68.0551C320.568 68.0551 319.22 67.7465 317.892 67.1298C316.565 66.5127 315.362 65.587 314.284 64.3531C313.205 63.1188 312.344 61.5865 311.701 59.7561C311.058 57.9256 310.737 55.7762 310.737 53.3085L310.799 35.4766C310.799 33.0084 311.463 31.2395 312.79 30.1701C314.118 29.1004 316.046 28.5657 318.577 28.5657C318.536 28.8538 318.494 29.2443 318.453 29.738C318.411 30.1906 318.38 30.7976 318.359 31.5583C318.339 32.3195 318.328 33.317 318.328 34.5508L318.39 38.438H326.729C326.729 40.2894 326.21 41.7698 325.173 42.8807C324.136 43.9915 322.663 44.5466 320.755 44.5466H318.39L318.328 53.3085C318.328 55.036 318.484 56.4862 318.795 57.6584C319.106 58.8309 319.531 59.7869 320.07 60.5275C321.191 61.9259 322.643 62.6255 324.426 62.6255C325.173 62.6255 325.92 62.5225 326.666 62.317C327.081 62.1935 327.475 62.0699 327.849 61.9464ZM354.543 42.819C355.829 44.1354 356.835 45.6881 357.561 47.4776C358.286 49.2667 358.649 51.19 358.649 53.2465C358.649 55.3035 358.317 57.2263 357.654 59.0158C356.99 60.8054 356.057 62.358 354.854 63.6744C353.651 65.0318 352.189 66.1011 350.467 66.8827C348.745 67.6645 346.827 68.0551 344.711 68.0551C342.803 68.0551 341.009 67.6645 339.329 66.8827C337.649 66.1011 336.166 65.0318 334.88 63.6744C333.635 62.358 332.65 60.8054 331.924 59.0158C331.198 57.2263 330.835 55.3035 330.835 53.2465C330.835 51.19 331.157 49.2667 331.8 47.4776C332.443 45.6881 333.366 44.1354 334.568 42.819C335.771 41.4618 337.234 40.392 338.955 39.6107C340.677 38.829 342.596 38.438 344.711 38.438C346.661 38.438 348.476 38.829 350.156 39.6107C351.836 40.392 353.298 41.4618 354.543 42.819ZM344.711 62.7487C345.251 62.7487 345.883 62.6255 346.609 62.3785C347.335 62.1319 348.03 61.6589 348.693 60.9596C349.357 60.26 349.917 59.2937 350.374 58.0593C350.83 56.8254 351.058 55.221 351.058 53.2465C351.058 51.272 350.83 49.6578 350.374 48.4029C349.917 47.1485 349.357 46.1817 348.693 45.5031C348.03 44.8245 347.335 44.3616 346.609 44.115C345.883 43.868 345.251 43.7443 344.711 43.7443C344.172 43.7443 343.539 43.868 342.813 44.115C342.087 44.3616 341.393 44.8245 340.729 45.5031C340.065 46.1817 339.505 47.1485 339.049 48.4029C338.592 49.6578 338.364 51.272 338.364 53.2465C338.364 55.221 338.592 56.8254 339.049 58.0593C339.505 59.2937 340.065 60.26 340.729 60.9596C341.393 61.6589 342.087 62.1319 342.813 62.3785C343.539 62.6255 344.172 62.7487 344.711 62.7487ZM363.316 52.5064C363.316 49.7501 363.72 47.4981 364.53 45.7498C365.339 44.0017 366.386 42.634 367.672 41.6468C368.958 40.6595 370.399 39.9911 371.996 39.6415C373.594 39.2919 375.18 39.1171 376.757 39.1171H379.806C380.013 39.9809 380.054 40.783 379.93 41.5233C379.847 42.1404 379.567 42.7366 379.09 43.3128C378.613 43.8885 377.835 44.2381 376.757 44.3616C376.052 44.4436 375.356 44.5979 374.672 44.8245C373.987 45.0505 373.376 45.4411 372.836 45.9967C372.297 46.5519 371.851 47.3439 371.498 48.3722C371.146 49.4004 370.97 50.7784 370.97 52.5064V61.4528C370.97 62.6872 370.98 63.6847 371.001 64.4453C371.022 65.2066 371.053 65.8134 371.094 66.2656C371.136 66.7592 371.177 67.1299 371.219 67.3764C368.688 67.3764 366.738 66.852 365.37 65.8032C364.001 64.754 363.316 62.9956 363.316 60.5275V52.5064Z" fill="#00AB00"/>
</g>
<defs>
<clipPath id="clip0_1704_980">
<rect width="393" height="90" fill="white"/>
</clipPath>
</defs>
</svg>
