<svg width="330" height="90" viewBox="0 0 330 90" fill="none" xmlns="http://www.w3.org/2000/svg">
<g clip-path="url(#clip0_1517_4773)">
<path d="M176.459 72.0481C172.907 72.0481 169.501 71.495 166.24 70.3886C162.979 69.224 160.3 67.4189 158.204 64.9732C156.166 62.4694 155.118 59.2376 155.06 55.278H162.397C162.397 55.511 162.484 56.1806 162.659 57.287C162.892 58.3351 163.445 59.4997 164.318 60.7807C165.25 62.0035 166.706 63.0808 168.686 64.0125C170.665 64.9441 173.431 65.41 176.983 65.41C179.836 65.41 182.078 65.0024 183.709 64.1872C185.397 63.3719 186.562 62.4112 187.203 61.3048C187.901 60.1984 188.28 59.2085 188.338 58.3351C188.338 56.53 187.756 55.0742 186.591 53.9679C185.485 52.8615 183.971 51.9881 182.049 51.3475C180.128 50.6488 178.002 50.0374 175.673 49.5133C173.402 48.931 171.131 48.3196 168.86 47.6791C166.589 46.9803 164.493 46.0778 162.571 44.9714C160.708 43.8651 159.223 42.4384 158.117 40.6916C157.069 38.8864 156.632 36.5864 156.807 33.7914C156.981 29.7735 158.874 26.6291 162.484 24.3582C166.153 22.0872 170.869 20.9518 176.634 20.9518C180.011 20.9518 183.156 21.5632 186.067 22.786C188.979 24.0088 191.308 25.843 193.055 28.2887C194.801 30.7343 195.675 33.7914 195.675 37.4598H188.6C188.6 35.4218 188.163 33.7914 187.29 32.5685C186.416 31.2875 185.31 30.2976 183.971 29.5988C182.631 28.9001 181.234 28.4342 179.778 28.2013C178.323 27.9102 177.012 27.7646 175.848 27.7646C172.529 27.7646 169.792 28.376 167.637 29.5988C165.541 30.8217 164.493 32.4812 164.493 34.5775C164.435 36.4408 164.988 37.9257 166.153 39.032C167.317 40.1384 168.86 41.0118 170.782 41.6523C172.703 42.2929 174.8 42.8752 177.071 43.3992C179.4 43.9233 181.7 44.5056 183.971 45.1461C186.3 45.7866 188.396 46.6601 190.26 47.7664C192.181 48.8146 193.666 50.2703 194.714 52.1336C195.82 53.9388 196.315 56.2388 196.199 59.0338C196.024 61.7706 195.063 64.1289 193.317 66.1087C191.628 68.0303 189.328 69.5151 186.416 70.5633C183.505 71.5532 180.186 72.0481 176.459 72.0481ZM225.463 64.7112V71H204.937V64.7112H211.662V28.114H204.937V21.8252H225.463V28.114H218.825V64.7112H225.463ZM270.65 21.8252H278.075V71H264.362L243.661 25.0569H243.486V71H236.062V21.8252H248.902L270.476 67.7683H270.65V21.8252ZM283.992 28.114V21.8252H321.55V28.114H306.44V71H299.19V28.114H283.992Z" fill="white"/>
<circle cx="48.6937" cy="46.0404" r="21.8553" stroke="white" stroke-width="7.28511"/>
<circle cx="126.108" cy="46.0404" r="21.8553" stroke="white" stroke-width="7.28511"/>
<circle cx="48.0361" cy="45.5361" r="36.0361" stroke="#00B0D2" stroke-width="7.28511"/>
<circle cx="48.6936" cy="46.1557" r="7.28511" fill="#D20000"/>
</g>
<defs>
<clipPath id="clip0_1517_4773">
<rect width="330" height="90" fill="white"/>
</clipPath>
</defs>
</svg>
