<svg width="276" height="90" viewBox="0 0 276 90" fill="none" xmlns="http://www.w3.org/2000/svg">
<path d="M190.973 58.9991C189.224 58.9991 189.115 57.1413 189.115 55.938V52.1123C189.115 51.019 188.893 48.6145 190.973 48.6145C193.053 48.6145 192.175 50.2545 192.285 51.129H194.8C194.792 50.7621 194.755 50.3964 194.689 50.0356C194.705 49.5482 194.619 49.0627 194.436 48.6105C194.254 48.1582 193.979 47.7491 193.629 47.4095C193.279 47.0699 192.862 46.8072 192.404 46.6383C191.946 46.4694 191.459 46.3981 190.972 46.4289C186.819 46.4289 186.6 49.0522 186.491 52.659V54.6268C186.491 58.3436 186.824 61.0714 190.972 61.0714C195.12 61.0714 194.689 59.1036 194.798 56.5902V55.8291H192.174C192.176 56.7035 192.394 58.9991 190.973 58.9991Z" fill="#00A3C9"/>
<path d="M202.013 50.0373C201.621 50.8748 201.327 51.7552 201.139 52.6607C201.009 51.9081 200.789 51.1739 200.483 50.4739L199.062 46.8672H196.22L199.827 54.8474V60.7497H202.45V54.8474L206.057 46.8672H203.22L202.013 50.0373Z" fill="#00A3C9"/>
<path d="M213.928 53.3122C214.493 53.0752 214.961 52.6554 215.258 52.1202C215.556 51.5851 215.665 50.9656 215.568 50.361C215.659 49.4713 215.426 48.5785 214.912 47.8465C214.54 47.4511 214.076 47.1542 213.561 46.9826C213.046 46.811 212.496 46.7699 211.961 46.8632H207.807V60.749H212.398C213.173 60.8189 213.947 60.6013 214.572 60.1376C215.197 59.6739 215.629 58.9966 215.787 58.2345C215.938 57.664 216.013 57.0759 216.009 56.4856C215.896 54.7367 215.349 53.5344 213.928 53.3122ZM210.43 48.831H211.632C212.835 48.831 213.054 49.3777 213.054 50.471C213.094 51.0026 212.978 51.5345 212.72 52.0011C212.284 52.5477 211.518 52.4388 210.862 52.4388H210.425L210.43 48.831ZM212.507 58.5601C212.01 58.7001 211.489 58.7379 210.977 58.6712H210.43V54.5189H211.414C213.054 54.5189 213.271 55.1745 213.271 56.7056C213.271 58.2368 213.16 58.2356 212.506 58.5634L212.507 58.5601Z" fill="#00A3C9"/>
<path d="M225.625 58.673H220.925V54.4096H225.299V52.3329H220.927V48.835H225.627V46.8672H218.41V60.7497H225.625V58.673Z" fill="#00A3C9"/>
<path d="M230.544 54.736H230.981C231.716 54.7075 232.452 54.7823 233.167 54.9583C234.042 55.1805 234.042 56.3794 234.042 57.2539C234.008 58.4291 234.12 59.6041 234.375 60.7517H237.217V60.5295C236.562 60.0917 236.671 56.7039 236.671 56.1572C236.671 55.6105 236.229 53.866 234.699 53.6438C236.447 53.4216 236.775 51.786 236.775 50.2548C236.66 49.3009 236.193 48.4244 235.464 47.7974C234.736 47.1704 233.8 46.8381 232.84 46.8659H227.921V60.7484H230.544V54.736ZM230.544 48.8337H232.402C233.385 48.8337 234.042 49.167 234.042 50.6915C234.042 52.216 233.386 52.6593 232.512 52.6593H230.544V48.8337Z" fill="#00A3C9"/>
<path d="M190.536 74.1937C189.771 73.647 189.115 73.2104 189.115 72.2259C189.115 71.2414 189.662 70.9136 190.536 70.9136C191.411 70.9136 192.066 72.1159 192.066 73.4281H194.581C194.581 72.007 194.692 68.8369 190.536 68.8369C186.381 68.8369 186.492 70.1492 186.492 72.5537C186.49 73.3313 186.718 74.0923 187.147 74.7404C188.241 76.1615 189.88 76.9271 191.192 77.9105C191.506 78.1046 191.763 78.3792 191.936 78.7058C192.109 79.0323 192.191 79.3991 192.175 79.7683C192.214 79.9922 192.198 80.222 192.129 80.4385C192.06 80.6549 191.94 80.8517 191.779 81.0123C191.619 81.173 191.422 81.2928 191.205 81.3616C190.989 81.4305 190.759 81.4465 190.535 81.4083C189.223 81.4083 188.895 80.425 188.895 79.1127V78.3471H186.273V79.3305C186.273 81.845 187.366 83.5939 190.426 83.5939C193.486 83.5939 194.69 82.1728 194.69 79.5494C194.729 78.9983 194.641 78.4455 194.432 77.9338C194.224 77.4221 193.901 76.9652 193.488 76.5982C192.57 75.7186 191.583 74.9145 190.536 74.1937Z" fill="#00A3C9"/>
<path d="M197.204 83.0495H204.419V80.9728H199.828V76.7094H204.093V74.6327H199.83V71.1348H204.421V69.167H197.204V83.0495Z" fill="#00A3C9"/>
<path d="M211.086 81.2989C209.337 81.2989 209.228 79.4411 209.228 78.2378V74.4121C209.228 73.3188 209.006 70.9143 211.086 70.9143C213.166 70.9143 212.288 72.5543 212.398 73.4288H214.912C214.905 73.0619 214.868 72.6963 214.801 72.3354C214.818 71.848 214.732 71.3625 214.549 70.9103C214.366 70.458 214.091 70.049 213.741 69.7093C213.391 69.3697 212.974 69.107 212.517 68.9381C212.059 68.7692 211.571 68.6979 211.085 68.7287C206.931 68.7287 206.712 71.3521 206.603 74.9588V76.9266C206.603 80.6434 206.937 83.3712 211.085 83.3712C215.232 83.3712 214.801 81.4034 214.91 78.89V78.1289H212.287C212.398 79.0033 212.507 81.2989 211.086 81.2989Z" fill="#00A3C9"/>
<path d="M223.656 78.6772C223.656 79.9895 223.545 81.3006 221.907 81.3006C220.269 81.3006 220.049 79.9884 220.049 78.6772V69.167H217.426V78.8961C217.426 81.9573 218.409 83.4873 221.798 83.4873C225.187 83.4873 226.171 82.0662 226.171 78.8961V69.167H223.547L223.656 78.6772Z" fill="#00A3C9"/>
<path d="M237.649 78.3478C237.649 77.0355 237.211 76.0521 235.681 75.8332C237.43 75.611 237.757 73.9754 237.757 72.4443C237.642 71.4903 237.175 70.6138 236.447 69.9868C235.718 69.3598 234.782 69.0276 233.822 69.0553H228.904V83.0479H231.527V77.0366H231.964C232.7 77.0066 233.436 77.0814 234.151 77.2588C235.025 77.4811 235.025 78.68 235.025 79.5544C234.991 80.7297 235.103 81.9046 235.359 83.0523H238.201V82.8345C237.54 82.3901 237.649 79.0033 237.649 78.3478ZM233.604 74.9588H231.527V71.1331H233.385C234.368 71.1331 235.025 71.4665 235.025 72.991C235.025 74.5154 234.479 74.9588 233.604 75.0677V74.9588Z" fill="#00A3C9"/>
<path d="M243.223 69.167H240.6V83.104H243.223V69.167Z" fill="#00A3C9"/>
<path d="M245.191 71.1348H248.142V83.0495H250.766V71.1348H253.717V69.167H245.191V71.1348Z" fill="#00A3C9"/>
<path d="M261.592 69.167L260.39 72.3371C259.998 73.1746 259.704 74.055 259.516 74.9605C259.386 74.2079 259.166 73.4737 258.86 72.7737L257.435 69.167H254.592L258.199 77.1472V83.0495H260.822V77.1472L264.429 69.167H261.592Z" fill="#00A3C9"/>
<path d="M62.5345 17.2422C61.4309 17.3174 60.3828 17.7545 59.5528 18.4857C58.7228 19.2169 58.157 20.2014 57.9433 21.2867L41.2184 73.9746L30.8337 53.5297H20.5591L36.4094 82.1726L36.8472 82.7193C37.6 83.6878 38.6358 84.3978 39.8107 84.7505C40.9856 85.1032 42.2412 85.081 43.4029 84.6871C47.2286 83.3748 47.7752 78.6747 48.9775 75.2869L65.1579 26.6424L65.3801 25.8768H193.161L195.896 17.3533L62.5345 17.2422Z" fill="#00A3C9"/>
<path d="M105.054 29.4861C100.968 29.3043 96.9715 30.7152 93.9052 33.4218C91.0629 36.0448 89.6418 39.8338 89.6418 44.7887V68.7282C89.6418 73.6838 90.99 77.4732 93.6863 80.0962C96.3827 82.7192 99.9898 84.0311 104.508 84.0318C108.557 84.1901 112.512 82.7804 115.548 80.0962C118.39 77.4724 119.811 73.6831 119.811 68.7282V44.7887C119.811 39.7604 118.463 35.9344 115.767 33.3107C112.844 30.6661 108.991 29.2904 105.054 29.4861ZM110.41 67.6359C110.518 69.6305 110.023 71.6113 108.989 73.3205C108.536 73.9967 107.915 74.5436 107.187 74.9076C106.458 75.2716 105.648 75.4404 104.835 75.3972C101.046 75.3972 99.1509 72.8101 99.1509 67.6359V46.3199C98.998 44.1613 99.4526 42.0031 100.463 40.0897C100.943 39.388 101.601 38.8261 102.369 38.4613C103.137 38.0965 103.988 37.9418 104.835 38.013C105.65 37.9587 106.464 38.1225 107.194 38.4875C107.924 38.8526 108.544 39.4056 108.989 40.0897C110.049 41.9878 110.542 44.15 110.41 46.3199V67.6359Z" fill="white"/>
<path d="M141.127 29.4862C137.042 29.3044 133.045 30.7153 129.978 33.4219C127.136 36.0456 125.715 39.8716 125.715 44.8999V68.7282C125.715 73.6839 127.063 77.4732 129.759 80.0963C132.456 82.7193 136.063 84.0312 140.581 84.0319C144.63 84.1902 148.585 82.7805 151.621 80.0963C154.463 77.4725 155.884 73.6832 155.884 68.7282V44.7888C155.884 39.7605 154.536 35.9345 151.84 33.3107C148.917 30.6658 145.064 29.2908 141.127 29.4862ZM146.483 67.636C146.591 69.6306 146.096 71.6114 145.062 73.3206C144.609 73.9967 143.988 74.5436 143.26 74.9077C142.532 75.2717 141.721 75.4404 140.909 75.3973C137.119 75.3973 135.224 72.8102 135.224 67.636V46.3199C135.071 44.1614 135.526 42.0032 136.536 40.0898C137.016 39.3881 137.674 38.8262 138.442 38.4614C139.21 38.0966 140.061 37.9419 140.909 38.0131C141.723 37.9588 142.537 38.1226 143.267 38.4876C143.997 38.8526 144.617 39.4057 145.062 40.0898C146.122 41.9879 146.615 44.1501 146.483 46.3199V67.636Z" fill="white"/>
<path d="M159.163 30.25V38.7758H168.346V83.3746H177.746V38.7758H189.005L191.737 30.25H159.163Z" fill="white"/>
<path d="M85.0517 54.955C86.0953 52.1239 86.5787 49.117 86.475 46.1014C86.475 40.5628 85.382 36.5182 83.1961 33.9678C81.0101 31.4174 77.3289 30.1785 72.1525 30.2511H69.5291L66.7968 38.6679H72.0436C74.011 38.6679 75.3229 39.2872 75.9792 40.5257C76.8006 42.2644 77.1763 44.1802 77.0726 46.1003C77.181 48.0208 76.805 49.9377 75.9792 51.6749C75.5592 52.3183 74.969 52.8326 74.2742 53.1606C73.5794 53.4885 72.8072 53.6174 72.0436 53.5327H62.0956L59.3633 61.9507H71.6058L78.2726 83.2667H88.1106L80.2415 60.3118C82.4385 59.1647 84.1468 57.2623 85.0517 54.955Z" fill="white"/>
<path d="M14 10.357V16.2593L19.7935 11.6681V45.8811H24.4936V5.54688H20.1213L14 10.357Z" fill="white"/>
<path d="M37.065 5C31.0526 5 28.1014 8.60675 28.1014 15.8214V35.4974C28.1014 42.712 31.1626 46.4287 37.065 46.4287C42.9673 46.4287 46.0285 42.712 46.0285 35.4974V15.8214C46.0285 8.60675 43.0773 5 37.065 5ZM40.1262 40.4164C39.8015 40.9175 39.342 41.3168 38.8004 41.5682C38.2588 41.8196 37.6573 41.913 37.065 41.8375C36.4738 41.9004 35.8767 41.8014 35.3375 41.551C34.7983 41.3007 34.3373 40.9085 34.0038 40.4164C33.2833 38.6895 32.9836 36.8161 33.1293 34.9507V16.478C32.9836 14.6126 33.2833 12.7392 34.0038 11.0124C34.3373 10.5202 34.7983 10.128 35.3375 9.8777C35.8767 9.62738 36.4738 9.52835 37.065 9.59122C37.6573 9.51577 38.2588 9.60913 38.8004 9.86055C39.342 10.112 39.8015 10.5112 40.1262 11.0124C40.8349 12.7425 41.1341 14.6131 41.0006 16.478V34.8418C41.1509 36.743 40.8521 38.6528 40.1262 40.4164Z" fill="white"/>
</svg>
