<svg width="271" height="90" viewBox="0 0 271 90" fill="none" xmlns="http://www.w3.org/2000/svg">
<g clip-path="url(#clip0_1782_4809)">
<path d="M119.407 5.23412C118.183 5.60799 117.012 6.59607 116.506 7.74439C116.027 8.78588 116 10.1211 116 36.9595C116 52.4485 116.08 65.0532 116.213 64.9998C116.319 64.9464 117.571 64.2521 118.981 63.4509L121.564 61.9821L121.723 11.3763L144.349 24.4884C156.807 31.6988 167.134 37.6806 167.321 37.7874C167.533 37.9209 166.842 38.4284 165.378 39.2562C164.126 39.9505 163.115 40.6182 163.115 40.7517C163.115 40.8585 164.313 41.6596 165.803 42.4875L168.492 44.0097L169.663 43.3954C172.884 41.6596 173.789 40.6182 173.975 38.5352C174.108 36.7459 173.709 35.4374 172.751 34.5561C171.819 33.6749 123.187 5.52788 122.042 5.20742C121.058 4.91366 120.392 4.94037 119.407 5.23412Z" fill="#08C7D3"/>
<path d="M106.729 12.426C105.409 13.0694 104.301 14.3562 104.089 15.509C104.01 15.9915 103.984 29.5835 104.01 45.7492L104.089 75.1315L104.828 76.0966C105.831 77.437 106.967 78 108.709 78C110.135 78 110.372 77.866 134.134 63.9523C147.308 56.2313 158.053 49.7973 158 49.6632C157.868 49.2075 152.984 46.4998 152.561 46.6071C152.323 46.6875 142.582 52.3441 130.886 59.2071L109.634 71.6731L109.554 58.2688C109.528 50.8965 109.528 38.913 109.554 31.621L109.634 18.3775L111.666 19.584C112.775 20.2542 113.831 20.7903 113.989 20.7903C114.147 20.7903 114.254 19.6375 114.254 17.6269V14.4635L112.247 13.2839C109.871 11.8898 108.34 11.6754 106.729 12.426Z" fill="#08C7D3"/>
<path d="M123.986 24.1277V27.2554L145.816 39.7925L167.618 52.3561L121.724 78.7292L121.643 76.1051C121.616 74.6739 121.484 73.4811 121.404 73.4811C121.324 73.4811 120.073 74.1703 118.608 74.992L116 76.5028V78.8882C116 80.7702 116.106 81.5123 116.559 82.44C117.517 84.4014 119.886 85.4352 121.99 84.8255C122.628 84.6399 134.262 78.0931 147.812 70.3005C166.287 59.6982 172.676 55.9079 173.182 55.2187C173.715 54.5296 173.9 53.9465 173.981 52.6742C174.087 50.8984 173.768 49.9442 172.65 48.9104C171.984 48.2743 124.651 21 124.226 21C124.092 21 123.986 22.3253 123.986 24.1277Z" fill="#08C7D3"/>
<path d="M20.0421 21.1049C20.0421 21.2623 11.1978 67.741 11.0412 68.423C10.9108 69 10.9369 69 13.5197 69C14.9546 69 16.1286 68.9738 16.1286 68.9213C16.1286 68.8951 16.5461 66.7705 17.0418 64.1738C17.5375 61.6033 17.9549 59.4524 17.9549 59.4C17.9549 59.3475 20.5899 59.2951 23.7989 59.2951C29.1471 59.2951 29.6689 59.3476 29.7994 59.741C29.8776 60.0033 30.2951 62.1803 30.7647 64.5934L31.5735 69H34.2867C36.6609 69 37 68.9475 37 68.5541C37 68.3181 35.0172 57.6426 32.5649 44.8164C30.1386 32.0164 28.1297 21.4197 28.1297 21.2623C28.1297 21.1049 26.6165 21 24.0858 21C21.8683 21 20.0421 21.0525 20.0421 21.1049ZM26.4339 41.5377C27.7906 48.5935 28.9123 54.3902 28.9123 54.4688C28.9123 54.5213 26.6165 54.5737 23.825 54.5737C21.0334 54.5737 18.7376 54.5213 18.7376 54.4426C18.7376 54.1279 23.4597 29.2361 23.6163 28.7377C23.6945 28.4492 23.825 28.318 23.8511 28.4754C23.9032 28.6065 25.0511 34.5082 26.4339 41.5377Z" fill="#E6E6E6"/>
<path d="M41 45V69H43.6207H46.2414L46.2966 50.141L46.3794 31.2557L51.0414 45.341C53.6345 53.0787 56.4483 61.5771 57.331 64.2L58.9587 69H61.9655H65V45V21H62.3794H59.7586L59.7035 37.6295L59.6207 54.259L55.7862 42.7968C53.6621 36.5016 51.1518 29.0262 50.1862 26.1672L48.4207 21H44.7242H41V45Z" fill="#E6E6E6"/>
<path d="M68 21.236C68 21.3673 70.2874 28.2656 73.0534 36.5804L78.1069 51.6885V60.3443V69H80.8995H83.6922V60.5803V52.1344L88.7722 36.9213C91.5648 28.5541 93.9054 21.5508 93.9852 21.341C94.0916 21.0525 93.666 21 91.3787 21.0525L88.6126 21.1311L84.9156 32.5935L81.1921 44.0558L78.1866 34.6918C76.511 29.5508 74.862 24.3574 74.4897 23.1508L73.8248 21H70.8991C69.3032 21 68 21.1049 68 21.236Z" fill="#E6E6E6"/>
<path d="M183 44.9869V69H185.808H188.616V58.7499V48.4735L191.665 48.6046C194.366 48.7095 194.874 48.7881 196.265 49.4959C197.575 50.1251 197.95 50.4658 198.512 51.5669C199.153 52.8253 199.18 53.0612 199.341 59.9557C199.447 64.2551 199.635 67.4271 199.822 68.0301L200.143 69H203.058C204.689 69 206 68.9475 206 68.8951C206 68.8427 205.812 68.3446 205.572 67.7941C205.197 66.9553 205.091 65.3299 204.93 59.3004C204.769 52.5893 204.689 51.698 204.181 50.4396C203.406 48.526 202.443 47.3725 200.891 46.4811L199.554 45.7472L200.758 45.0393C202.283 44.1743 203.459 42.7586 204.181 40.9497C204.984 38.9574 205.197 31.0404 204.555 28.2878C203.754 24.9061 202.095 22.835 199.367 21.7602C197.923 21.2097 197.389 21.1572 190.435 21.0787L183 21V44.9869ZM196.533 26.61C198.859 27.816 199.394 29.5985 199.26 35.5756C199.18 39.3506 199.1 39.8749 198.565 40.8974C197.602 42.6799 195.837 43.3616 191.772 43.5188L188.616 43.6499V34.7892V25.9547L192.173 26.0595C194.767 26.1382 195.918 26.2693 196.533 26.61Z" fill="#E6E6E6"/>
<path d="M210.027 40.7976C210.027 62.9008 210 62.5563 211.876 65.6305C213.645 68.5194 216.003 69.7385 220.183 69.977C225.864 70.242 229.267 68.2278 231.142 63.4573L231.839 61.6816L231.92 41.3275L232 21H229.294H226.614V40.4C226.614 52.5912 226.507 60.171 226.346 60.7806C225.703 63.0863 224.122 64.491 221.951 64.6764C219.781 64.8619 218.682 64.5439 217.477 63.4838C215.574 61.7876 215.627 62.3177 215.627 40.4265V21H212.814H210L210.027 40.7976Z" fill="#E6E6E6"/>
<path d="M237 44.987V68.9738H239.512H242.023L242.076 50.1775L242.156 31.3813L248.13 50.1251L254.105 68.8428L257.039 68.9213L260 69V44.987V21H257.488H254.977L254.924 37.6729L254.845 54.372L250.377 40.5041C247.918 32.8755 245.487 25.378 245.01 23.8051L244.111 21H240.543H237V44.987Z" fill="#E6E6E6"/>
</g>
<defs>
<clipPath id="clip0_1782_4809">
<rect width="271" height="90" fill="white"/>
</clipPath>
</defs>
</svg>
