<svg width="192" height="90" viewBox="0 0 192 90" fill="none" xmlns="http://www.w3.org/2000/svg">
<g clip-path="url(#clip0_2265_699)">
<path d="M174.244 28.0331L155.909 39.0258L155.909 17.0404L174.244 28.0331Z" fill="#00DBFF" fill-opacity="0.4" stroke="#00DBFF" stroke-width="4" stroke-linejoin="round"/>
<path d="M8.3414 40V9.83949H25.576C27.1587 9.83949 28.5803 10.1473 29.8406 10.7628C31.1303 11.3783 32.1415 12.243 32.8743 13.3568C33.607 14.4706 33.9734 15.7749 33.9734 17.2697C33.9734 18.4714 33.7536 19.5413 33.3139 20.4792C32.8743 21.4171 32.2734 22.1939 31.5113 22.8094C30.7786 23.4249 29.9432 23.8792 29.0053 24.1723V24.3482C30.1191 24.5827 31.101 25.0223 31.951 25.6672C32.8303 26.312 33.5191 27.1473 34.0174 28.1732C34.545 29.1698 34.8088 30.3568 34.8088 31.7344C34.8088 33.5517 34.3838 35.0758 33.5338 36.3069C32.7131 37.5379 31.6139 38.4612 30.2363 39.0767C28.8587 39.6922 27.3199 40 25.6199 40H8.3414ZM14.8923 34.6362H24.3449C25.4294 34.6362 26.3087 34.3284 26.9829 33.7129C27.6863 33.0974 28.0381 32.1448 28.0381 30.8551C28.0381 30.0931 27.8915 29.4336 27.5984 28.8767C27.3053 28.3198 26.8656 27.8948 26.2794 27.6017C25.6932 27.2792 24.9458 27.118 24.0372 27.118H14.8923V34.6362ZM14.8923 22.018H23.5975C24.3889 22.018 25.0484 21.8715 25.576 21.5784C26.1329 21.2559 26.5432 20.8456 26.807 20.3473C27.1001 19.8197 27.2467 19.2189 27.2467 18.5447C27.2467 17.4016 26.9243 16.5369 26.2794 15.9507C25.6639 15.3645 24.8432 15.0714 23.8173 15.0714H14.8923V22.018ZM50.0508 40.5276C47.5008 40.5276 45.3611 40.1026 43.6318 39.2526C41.9025 38.3733 40.5982 37.0396 39.7189 35.2517C38.8395 33.4638 38.3999 31.1922 38.3999 28.437C38.3999 25.6525 38.8395 23.3809 39.7189 21.6223C40.5982 19.8344 41.8878 18.5154 43.5878 17.6654C45.3172 16.7861 47.4275 16.3464 49.9189 16.3464C52.2638 16.3464 54.2422 16.7714 55.8543 17.6214C57.4664 18.4421 58.6828 19.7318 59.5034 21.4904C60.3241 23.2197 60.7345 25.462 60.7345 28.2172V29.7999H44.5991C44.6577 31.1482 44.8629 32.2913 45.2146 33.2293C45.5956 34.1672 46.1672 34.8707 46.9292 35.3396C47.7206 35.7793 48.7611 35.9991 50.0508 35.9991C50.7543 35.9991 51.3844 35.9112 51.9413 35.7353C52.5275 35.5595 53.0258 35.2957 53.4362 34.9439C53.8465 34.5922 54.1689 34.1526 54.4034 33.625C54.6379 33.0974 54.7551 32.4965 54.7551 31.8224H60.7345C60.7345 33.2879 60.4707 34.5629 59.9431 35.6474C59.4155 36.7319 58.6828 37.6405 57.7448 38.3733C56.8069 39.0767 55.6784 39.619 54.3595 40C53.0698 40.3517 51.6336 40.5276 50.0508 40.5276ZM44.687 25.931H54.4474C54.4474 25.0516 54.3301 24.2896 54.0957 23.6447C53.8905 22.9999 53.5974 22.4723 53.2163 22.062C52.8353 21.6516 52.3663 21.3585 51.8094 21.1827C51.2819 20.9775 50.681 20.8749 50.0068 20.8749C48.893 20.8749 47.9551 21.0654 47.193 21.4465C46.4603 21.7982 45.8887 22.3551 45.4784 23.1172C45.0973 23.8499 44.8335 24.7879 44.687 25.931ZM74.583 40.5276C72.9709 40.5276 71.5201 40.3517 70.2304 40C68.9407 39.6483 67.8416 39.1647 66.933 38.5491C66.0243 37.9043 65.3209 37.1422 64.8226 36.2629C64.3536 35.3836 64.1192 34.387 64.1192 33.2732C64.1192 33.156 64.1192 33.0388 64.1192 32.9215C64.1192 32.8043 64.1338 32.7163 64.1631 32.6577H70.0545C70.0545 32.7163 70.0545 32.775 70.0545 32.8336C70.0545 32.8922 70.0545 32.9508 70.0545 33.0094C70.0838 33.7422 70.3183 34.3431 70.758 34.812C71.1976 35.2517 71.7692 35.5741 72.4727 35.7793C73.2054 35.9845 73.9675 36.087 74.7589 36.087C75.4623 36.087 76.1365 36.0284 76.7813 35.9112C77.4554 35.7646 78.0123 35.5155 78.452 35.1638C78.921 34.812 79.1554 34.3577 79.1554 33.8008C79.1554 33.0974 78.8623 32.5551 78.2761 32.1741C77.7192 31.7931 76.9718 31.4853 76.0339 31.2508C75.1253 31.0163 74.1287 30.7525 73.0442 30.4594C72.0476 30.2249 71.0511 29.9612 70.0545 29.668C69.058 29.3456 68.1494 28.9353 67.3287 28.437C66.5373 27.9387 65.8924 27.2939 65.3942 26.5025C64.8959 25.6818 64.6467 24.656 64.6467 23.4249C64.6467 22.2232 64.9105 21.1827 65.4381 20.3033C65.9657 19.3947 66.6838 18.6473 67.5925 18.0611C68.5304 17.4749 69.6149 17.0499 70.8459 16.7861C72.1063 16.493 73.4546 16.3464 74.8908 16.3464C76.2391 16.3464 77.4994 16.493 78.6718 16.7861C79.8442 17.0499 80.8701 17.4602 81.7494 18.0171C82.6287 18.5447 83.3175 19.2189 83.8158 20.0395C84.3141 20.8309 84.5632 21.7249 84.5632 22.7215C84.5632 22.9266 84.5632 23.1172 84.5632 23.293C84.5632 23.4689 84.5486 23.5861 84.5193 23.6447H78.6718V23.293C78.6718 22.7654 78.5106 22.3258 78.1882 21.974C77.8658 21.593 77.3968 21.2999 76.7813 21.0947C76.1951 20.8896 75.477 20.787 74.627 20.787C74.0408 20.787 73.4985 20.8309 73.0002 20.9189C72.5313 21.0068 72.1209 21.1387 71.7692 21.3146C71.4175 21.4904 71.139 21.7102 70.9339 21.974C70.758 22.2085 70.6701 22.5016 70.6701 22.8534C70.6701 23.3516 70.8752 23.762 71.2856 24.0844C71.7252 24.3775 72.2968 24.6266 73.0002 24.8318C73.7037 25.037 74.4804 25.2568 75.3304 25.4913C76.3856 25.7844 77.4847 26.0775 78.6279 26.3706C79.8003 26.6344 80.8848 27.0008 81.8813 27.4698C82.8779 27.9387 83.6839 28.6129 84.2994 29.4922C84.915 30.3422 85.2227 31.5 85.2227 32.9655C85.2227 34.3724 84.9443 35.5595 84.3874 36.5267C83.8598 37.494 83.1124 38.2707 82.1451 38.8569C81.1779 39.4431 80.0494 39.8681 78.7598 40.1319C77.4701 40.3957 76.0778 40.5276 74.583 40.5276ZM96.5511 40.5276C95.0856 40.5276 93.8985 40.2638 92.9899 39.7362C92.0813 39.2086 91.4218 38.5052 91.0114 37.6258C90.6011 36.7172 90.3959 35.7207 90.3959 34.6362V21.5784H87.5381V16.874H90.6157L91.7589 10.2792H96.5072V16.874H100.728V21.5784H96.5072V33.625C96.5072 34.3284 96.6684 34.8707 96.9908 35.2517C97.3132 35.6034 97.8408 35.7793 98.5735 35.7793H100.728V39.8241C100.376 39.9414 99.9658 40.044 99.4968 40.1319C99.0279 40.2491 98.5296 40.3371 98.002 40.3957C97.4744 40.4836 96.9908 40.5276 96.5511 40.5276ZM8.3414 82V51.8395H24.0372C26.2061 51.8395 28.0087 52.2498 29.445 53.0705C30.9105 53.8619 32.0096 54.9904 32.7424 56.4559C33.5045 57.8921 33.8855 59.6068 33.8855 61.5999C33.8855 63.593 33.4898 65.337 32.6984 66.8318C31.9363 68.2973 30.8079 69.4405 29.3131 70.2611C27.8182 71.0818 25.9863 71.4922 23.8173 71.4922H14.8923V82H8.3414ZM14.8923 66.1284H22.938C24.3156 66.1284 25.3708 65.7327 26.1036 64.9413C26.8656 64.1499 27.2467 63.0508 27.2467 61.6439C27.2467 60.6766 27.0855 59.8706 26.763 59.2257C26.4406 58.5809 25.957 58.0826 25.3122 57.7309C24.6967 57.3792 23.9053 57.2033 22.938 57.2033H14.8923V66.1284ZM37.7397 82V58.874H42.7958L43.2794 62.4792H43.5872C43.8803 61.7171 44.2613 61.0283 44.7303 60.4128C45.1992 59.768 45.7854 59.2551 46.4889 58.874C47.1923 58.493 48.013 58.3025 48.951 58.3025C49.4493 58.3025 49.9036 58.3611 50.3139 58.4783C50.7243 58.5663 51.032 58.6542 51.2372 58.7421V64.2818H49.3467C48.438 64.2818 47.632 64.4137 46.9286 64.6775C46.2544 64.912 45.6829 65.293 45.2139 65.8206C44.7449 66.3482 44.3932 66.993 44.1587 67.7551C43.9535 68.5172 43.851 69.4111 43.851 70.437V82H37.7397ZM60.1234 82.5276C59.3614 82.5276 58.5407 82.4397 57.6613 82.2638C56.8113 82.0879 56.0053 81.7802 55.2432 81.3405C54.4812 80.8715 53.851 80.2121 53.3527 79.3621C52.8837 78.4827 52.6493 77.3689 52.6493 76.0207C52.6493 74.4086 53.001 73.075 53.7044 72.0198C54.4079 70.9646 55.4044 70.1439 56.6941 69.5577C58.0131 68.9422 59.5812 68.5172 61.3984 68.2827C63.2157 68.0482 65.2235 67.931 67.4217 67.931V66.2163C67.4217 65.5422 67.3045 64.9559 67.07 64.4577C66.8648 63.9594 66.4838 63.5637 65.9269 63.2706C65.3993 62.9775 64.6519 62.8309 63.6847 62.8309C62.7174 62.8309 61.926 62.9482 61.3105 63.1827C60.7243 63.4171 60.2993 63.7249 60.0355 64.1059C59.801 64.4577 59.6838 64.8534 59.6838 65.293V65.8206H53.7484C53.7191 65.6741 53.7044 65.5422 53.7044 65.4249C53.7044 65.2784 53.7044 65.1025 53.7044 64.8973C53.7044 63.549 54.1148 62.3913 54.9355 61.424C55.7562 60.4275 56.9139 59.6654 58.4088 59.1378C59.9036 58.6102 61.6476 58.3464 63.6407 58.3464C65.7804 58.3464 67.5683 58.6249 69.0045 59.1818C70.47 59.7387 71.5838 60.5594 72.3459 61.6439C73.1373 62.7283 73.533 64.0913 73.533 65.7327V76.2405C73.533 76.7681 73.6795 77.1638 73.9726 77.4276C74.2951 77.662 74.6468 77.7793 75.0278 77.7793H76.4787V81.7802C76.1856 81.9267 75.7313 82.0733 75.1158 82.2198C74.5002 82.3957 73.7528 82.4836 72.8735 82.4836C72.0235 82.4836 71.2614 82.3517 70.5873 82.0879C69.9424 81.8534 69.4002 81.5164 68.9605 81.0767C68.5209 80.6078 68.2131 80.0509 68.0373 79.406H67.7295C67.2312 80.0215 66.6157 80.5638 65.8829 81.0328C65.1795 81.5017 64.3441 81.8681 63.3769 82.1319C62.439 82.3957 61.3545 82.5276 60.1234 82.5276ZM62.1898 77.9112C63.0105 77.9112 63.7433 77.7939 64.3881 77.5595C65.0329 77.2957 65.5752 76.9586 66.0148 76.5482C66.4545 76.1086 66.7916 75.581 67.0261 74.9655C67.2898 74.35 67.4217 73.6905 67.4217 72.987V71.712C65.7804 71.712 64.3148 71.8293 63.0252 72.0637C61.7355 72.2689 60.7096 72.6353 59.9476 73.1629C59.2148 73.6905 58.8484 74.4232 58.8484 75.3612C58.8484 75.8888 58.9803 76.3431 59.2441 76.7241C59.5079 77.1051 59.8889 77.3983 60.3872 77.6034C60.8855 77.8086 61.4864 77.9112 62.1898 77.9112ZM89.6718 82.5276C87.2098 82.5276 85.1434 82.1026 83.4727 81.2526C81.802 80.3733 80.527 79.0396 79.6477 77.2517C78.7977 75.4344 78.3726 73.1629 78.3726 70.437C78.3726 67.6525 78.7977 65.3809 79.6477 63.6223C80.527 61.8344 81.802 60.5007 83.4727 59.6214C85.1727 58.7421 87.2391 58.3025 89.6718 58.3025C91.2546 58.3025 92.6762 58.493 93.9365 58.874C95.2262 59.2551 96.34 59.8413 97.2779 60.6326C98.2159 61.424 98.9193 62.4059 99.3883 63.5784C99.8866 64.7215 100.136 66.0844 100.136 67.6672H94.0245C94.0245 66.612 93.8632 65.7473 93.5408 65.0732C93.2184 64.399 92.7201 63.8861 92.046 63.5344C91.4012 63.1827 90.5805 63.0068 89.5839 63.0068C88.4115 63.0068 87.4589 63.2706 86.7261 63.7982C85.9934 64.3258 85.4511 65.1025 85.0994 66.1284C84.7477 67.1542 84.5718 68.4292 84.5718 69.9534V70.9646C84.5718 72.4594 84.7477 73.7198 85.0994 74.7457C85.4804 75.7715 86.052 76.5482 86.8141 77.0758C87.5761 77.5741 88.5727 77.8233 89.8037 77.8233C90.8003 77.8233 91.621 77.6474 92.2658 77.2957C92.94 76.9439 93.4529 76.4163 93.8046 75.7129C94.1564 75.0094 94.3322 74.1594 94.3322 73.1629H100.136C100.136 74.6577 99.8866 75.9913 99.3883 77.1638C98.9193 78.3362 98.2159 79.3181 97.2779 80.1095C96.3693 80.9009 95.2702 81.5017 93.9805 81.9121C92.6908 82.3224 91.2546 82.5276 89.6718 82.5276ZM111.621 82.5276C110.156 82.5276 108.969 82.2638 108.06 81.7362C107.152 81.2086 106.492 80.5052 106.082 79.6258C105.671 78.7172 105.466 77.7207 105.466 76.6362V63.5784H102.608V58.874H105.686L106.829 52.2792H111.577V58.874H115.798V63.5784H111.577V75.625C111.577 76.3284 111.739 76.8707 112.061 77.2517C112.383 77.6034 112.911 77.7793 113.644 77.7793H115.798V81.8241C115.446 81.9414 115.036 82.044 114.567 82.1319C114.098 82.2491 113.6 82.3371 113.072 82.3957C112.545 82.4836 112.061 82.5276 111.621 82.5276ZM119.746 55.4887V50.2128H125.857V55.4887H119.746ZM119.746 82V58.874H125.857V82H119.746ZM141.624 82.5276C139.161 82.5276 137.095 82.1026 135.424 81.2526C133.754 80.3733 132.479 79.0396 131.599 77.2517C130.749 75.4344 130.324 73.1629 130.324 70.437C130.324 67.6525 130.749 65.3809 131.599 63.6223C132.479 61.8344 133.754 60.5007 135.424 59.6214C137.124 58.7421 139.191 58.3025 141.624 58.3025C143.206 58.3025 144.628 58.493 145.888 58.874C147.178 59.2551 148.292 59.8413 149.23 60.6326C150.168 61.424 150.871 62.4059 151.34 63.5784C151.838 64.7215 152.087 66.0844 152.087 67.6672H145.976C145.976 66.612 145.815 65.7473 145.493 65.0732C145.17 64.399 144.672 63.8861 143.998 63.5344C143.353 63.1827 142.532 63.0068 141.536 63.0068C140.363 63.0068 139.411 63.2706 138.678 63.7982C137.945 64.3258 137.403 65.1025 137.051 66.1284C136.699 67.1542 136.524 68.4292 136.524 69.9534V70.9646C136.524 72.4594 136.699 73.7198 137.051 74.7457C137.432 75.7715 138.004 76.5482 138.766 77.0758C139.528 77.5741 140.524 77.8233 141.755 77.8233C142.752 77.8233 143.573 77.6474 144.218 77.2957C144.892 76.9439 145.405 76.4163 145.756 75.7129C146.108 75.0094 146.284 74.1594 146.284 73.1629H152.087C152.087 74.6577 151.838 75.9913 151.34 77.1638C150.871 78.3362 150.168 79.3181 149.23 80.1095C148.321 80.9009 147.222 81.5017 145.932 81.9121C144.643 82.3224 143.206 82.5276 141.624 82.5276ZM167.178 82.5276C164.628 82.5276 162.489 82.1026 160.759 81.2526C159.03 80.3733 157.726 79.0396 156.846 77.2517C155.967 75.4638 155.527 73.1922 155.527 70.437C155.527 67.6525 155.967 65.3809 156.846 63.6223C157.726 61.8344 159.015 60.5154 160.715 59.6654C162.445 58.7861 164.555 58.3464 167.046 58.3464C169.391 58.3464 171.37 58.7714 172.982 59.6214C174.594 60.4421 175.81 61.7318 176.631 63.4904C177.452 65.2197 177.862 67.462 177.862 70.2172V71.7999H161.727C161.785 73.1482 161.99 74.2913 162.342 75.2293C162.723 76.1672 163.295 76.8707 164.057 77.3396C164.848 77.7793 165.889 77.9991 167.178 77.9991C167.882 77.9991 168.512 77.9112 169.069 77.7353C169.655 77.5595 170.153 77.2957 170.564 76.9439C170.974 76.5922 171.296 76.1526 171.531 75.625C171.765 75.0974 171.883 74.4965 171.883 73.8224H177.862C177.862 75.2879 177.598 76.5629 177.071 77.6474C176.543 78.7319 175.81 79.6405 174.872 80.3733C173.934 81.0767 172.806 81.619 171.487 82C170.197 82.3517 168.761 82.5276 167.178 82.5276ZM161.814 67.931H171.575C171.575 67.0516 171.458 66.2896 171.223 65.6447C171.018 64.9999 170.725 64.4723 170.344 64.062C169.963 63.6516 169.494 63.3585 168.937 63.1827C168.409 62.9775 167.808 62.8749 167.134 62.8749C166.021 62.8749 165.083 63.0654 164.321 63.4465C163.588 63.7982 163.016 64.3551 162.606 65.1172C162.225 65.8499 161.961 66.7879 161.814 67.931Z" fill="#00DBFF"/>
<path d="M136.634 28.0331L118.299 39.0258L118.299 17.0404L136.634 28.0331Z" fill="#00DBFF" fill-opacity="0.4" stroke="#00DBFF" stroke-width="4" stroke-linejoin="round"/>
<path d="M155.439 28.0331L137.104 39.0258L137.104 17.0404L155.439 28.0331Z" fill="#00DBFF" fill-opacity="0.4" stroke="#00DBFF" stroke-width="4" stroke-linejoin="round"/>
</g>
<defs>
<clipPath id="clip0_2265_699">
<rect width="192" height="90" fill="white"/>
</clipPath>
</defs>
</svg>
