<svg width="410" height="90" viewBox="0 0 410 90" fill="none" xmlns="http://www.w3.org/2000/svg">
<path d="M403.785 57.3125C403.785 58.9152 403.431 60.2585 402.724 61.3427C402.253 62.0026 401.451 62.8982 400.32 64.0295C399.189 65.1136 398.246 65.8678 397.492 66.292C395.984 67.1405 394.57 67.5647 393.25 67.5647H373.877V25.2832H393.25C394.899 25.2832 396.337 25.6839 397.563 26.4852C398.27 26.9094 399.165 27.6872 400.249 28.8184C401.334 29.9497 402.135 30.8925 402.653 31.6466C403.408 32.6836 403.785 34.027 403.785 35.6768V57.3125ZM381.301 60.4942H392.755C393.038 60.4942 393.203 60.4707 393.25 60.4235C393.815 60.0936 394.475 59.5751 395.229 58.868C395.984 58.1138 396.361 57.5482 396.361 57.1711V35.8889C396.361 35.7475 396.337 35.6297 396.29 35.5354C395.394 34.0742 394.357 33.0372 393.179 32.4244C393.132 32.3773 392.92 32.3537 392.543 32.3537H381.301V60.4942Z" fill="#E6E6E6"/>
<path d="M364.004 67.5647H337.419V25.2832H364.004V32.3537H344.843V43.0301H362.661V50.1006H344.843V60.4942H364.004V67.5647Z" fill="#E6E6E6"/>
<path d="M327.219 67.5647H319.795V50.1006H304.381V67.5647H296.957V25.2832H304.381V43.0301H319.795V25.2832H327.219V67.5647Z" fill="#E6E6E6"/>
<path d="M287.816 57.5242C287.816 59.174 287.439 60.5174 286.685 61.5544C286.213 62.2615 285.412 63.2042 284.281 64.3826C283.15 65.5139 282.23 66.2681 281.523 66.6452C280.015 67.4936 278.554 67.9179 277.14 67.9179H264.837C261.773 67.9179 258.78 65.9617 255.857 62.0494C255.575 61.6723 255.15 60.9416 254.585 59.8575L261.585 57.5242C262.527 58.8441 263.564 59.9282 264.696 60.7767C264.79 60.8238 264.955 60.8474 265.191 60.8474H276.786L277.21 60.7767C277.729 60.4938 278.389 59.9518 279.19 59.1505C279.991 58.3491 280.392 57.8071 280.392 57.5242V53.3527C280.392 52.6456 280.109 52.2449 279.544 52.1507L261.16 46.9185C259.416 46.4471 258.049 45.4808 257.059 44.0196C256.117 42.5584 255.645 40.9557 255.645 39.2117V35.3936C255.645 33.7438 255.999 32.4004 256.706 31.3634C257.177 30.7035 257.979 29.8079 259.11 28.6767C260.288 27.4982 261.231 26.6969 261.938 26.2727C263.446 25.4242 264.908 25 266.322 25H276.786C279.803 25 282.796 26.9562 285.766 30.8685C286.237 31.5284 286.708 32.3533 287.18 33.3432L280.039 35.3936C278.954 33.8381 277.917 32.754 276.928 32.1412C276.88 32.0941 276.739 32.0705 276.503 32.0705H266.534L266.11 32.1412C265.544 32.424 264.884 32.9425 264.13 33.6967C263.423 34.4509 263.069 34.9694 263.069 35.2522V38.7875C263.069 39.4945 263.329 39.8952 263.847 39.9894L282.301 45.363C283.998 45.8344 285.341 46.8242 286.331 48.3326C287.321 49.7938 287.816 51.3729 287.816 53.0698V57.5242Z" fill="#E6E6E6"/>
<path d="M251.062 67.5647H243.143L240.032 58.5852H223.982L220.871 67.5647H212.952L227.729 25.2832H236.355L251.062 67.5647ZM237.698 51.5147L232.042 34.8284L226.315 51.5147H237.698Z" fill="#E6E6E6"/>
<path d="M207.559 67.5647H200.135V50.1006H184.722V67.5647H177.298V25.2832H184.722V43.0301H200.135V25.2832H207.559V67.5647Z" fill="#E6E6E6"/>
<path d="M167.426 67.5647H140.841V25.2832H167.426V32.3537H148.265V43.0301H166.082V50.1006H148.265V60.4942H167.426V67.5647Z" fill="#E6E6E6"/>
<path d="M130.908 57.3125C130.908 58.9152 130.555 60.2585 129.848 61.3427C129.376 62.0026 128.575 62.8982 127.444 64.0295C126.312 65.1136 125.37 65.8678 124.615 66.292C123.107 67.1405 121.693 67.5647 120.373 67.5647H101V25.2832H120.373C122.023 25.2832 123.461 25.6839 124.686 26.4852C125.393 26.9094 126.289 27.6872 127.373 28.8184C128.457 29.9497 129.258 30.8925 129.777 31.6466C130.531 32.6836 130.908 34.027 130.908 35.6768V57.3125ZM108.424 60.4942H119.878C120.161 60.4942 120.326 60.4707 120.373 60.4235C120.939 60.0936 121.599 59.5751 122.353 58.868C123.107 58.1138 123.484 57.5482 123.484 57.1711V35.8889C123.484 35.7475 123.461 35.6297 123.413 35.5354C122.518 34.0742 121.481 33.0372 120.302 32.4244C120.255 32.3773 120.043 32.3537 119.666 32.3537H108.424V60.4942Z" fill="#E6E6E6"/>
<rect x="6" y="5" width="80" height="80" rx="19" fill="#E6E6E6"/>
<rect x="30.2931" y="21" width="8.10345" height="47" fill="#242E42"/>
<rect x="54.6035" y="21" width="8.10345" height="47" fill="#242E42"/>
<rect x="70" y="29" width="8.10345" height="47" transform="rotate(90 70 29)" fill="#242E42"/>
<rect x="70" y="53.3105" width="8.10345" height="47" transform="rotate(90 70 53.3105)" fill="#242E42"/>
</svg>
