<svg width="410" height="90" viewBox="0 0 410 90" fill="none" xmlns="http://www.w3.org/2000/svg">
<g clip-path="url(#clip0_1419_4923)">
<path d="M116.3 62.8996C112.3 62.8996 109.1 61.6996 106.8 59.3996C104.5 57.0996 103.4 53.7996 103.4 49.6996C103.4 45.4996 104.5 42.0996 106.6 39.6996C108.7 37.2996 111.6 36.0996 115.3 36.0996C118.7 36.0996 121.4 37.0996 123.4 39.1996C125.4 41.2996 126.4 44.0996 126.4 47.7996V50.7996H109.1C109.2 53.2996 109.9 55.1996 111.1 56.5996C112.3 57.9996 114.2 58.5996 116.5 58.5996C118 58.5996 119.5 58.4996 120.8 58.1996C122.1 57.8996 123.5 57.3996 125.1 56.7996V61.2996C123.8 61.8996 122.4 62.3996 121 62.6996C119.6 62.9996 118 62.8996 116.3 62.8996ZM115.2 40.2996C113.4 40.2996 112 40.8996 111 41.9996C110 43.0996 109.3 44.6996 109.1 46.8996H120.9C120.9 44.7996 120.4 43.0996 119.4 41.9996C118.4 40.8996 117 40.2996 115.2 40.2996Z" fill="#E6E6E6"/>
<path d="M138.1 62.5H132.6V26H138.1V62.5Z" fill="#E6E6E6"/>
<path d="M162.2 62.4998L161.1 58.8998H160.9C159.7 60.4998 158.4 61.5998 157.1 62.0998C155.8 62.5998 154.2 62.9998 152.2 62.9998C149.7 62.9998 147.7 62.2998 146.2 60.8998C144.7 59.4998 144.1 57.5998 144.1 55.0998C144.1 52.3998 145.1 50.3998 147.1 49.0998C149.1 47.7998 152.1 46.9998 156.2 46.8998L160.7 46.7998V45.3998C160.7 43.6998 160.3 42.4998 159.5 41.6998C158.7 40.8998 157.5 40.4998 155.9 40.4998C154.6 40.4998 153.3 40.6998 152.1 41.0998C150.9 41.4998 149.7 41.9998 148.6 42.4998L146.8 38.5998C148.2 37.8998 149.7 37.2998 151.4 36.8998C153.1 36.4998 154.6 36.2998 156.1 36.2998C159.4 36.2998 161.9 36.9998 163.6 38.4998C165.3 39.9998 166.1 42.1998 166.1 45.2998V62.4998H162.2ZM154 58.6998C156 58.6998 157.6 58.0998 158.8 56.9998C160 55.8998 160.6 54.2998 160.6 52.2998V50.0998L157.3 50.1998C154.7 50.2998 152.8 50.6998 151.6 51.4998C150.4 52.2998 149.8 53.4998 149.8 55.0998C149.8 56.2998 150.1 57.1998 150.8 57.7998C151.5 58.3998 152.6 58.6998 154 58.6998Z" fill="#E6E6E6"/>
<path d="M191.2 55.1004C191.2 57.6004 190.3 59.6004 188.4 60.9004C186.5 62.2004 183.9 62.9004 180.5 62.9004C177 62.9004 174.3 62.4004 172.2 61.3004V56.5004C175.2 57.9004 178.1 58.6004 180.7 58.6004C184.1 58.6004 185.8 57.6004 185.8 55.5004C185.8 54.8004 185.6 54.3004 185.2 53.9004C184.8 53.5004 184.2 53.0004 183.3 52.5004C182.4 52.0004 181.2 51.5004 179.7 50.9004C176.7 49.7004 174.7 48.6004 173.6 47.4004C172.5 46.2004 172 44.7004 172 42.9004C172 40.7004 172.9 39.0004 174.7 37.7004C176.5 36.4004 178.9 35.9004 182 35.9004C185 35.9004 187.9 36.5004 190.6 37.8004L188.8 41.9004C186 40.7004 183.7 40.2004 181.7 40.2004C178.8 40.2004 177.3 41.0004 177.3 42.7004C177.3 43.5004 177.7 44.2004 178.4 44.8004C179.1 45.4004 180.8 46.1004 183.4 47.1004C185.5 47.9004 187.1 48.7004 188.1 49.4004C189.1 50.1004 189.8 50.9004 190.3 51.8004C191 52.8004 191.2 53.8004 191.2 55.1004Z" fill="#E6E6E6"/>
<path d="M206.8 58.5004C208.1 58.5004 209.5 58.3004 210.8 57.9004V62.0004C210.2 62.3004 209.4 62.5004 208.4 62.7004C207.4 62.9004 206.4 63.0004 205.4 63.0004C200.2 63.0004 197.6 60.2004 197.6 54.8004V40.8004H194.1V38.4004L197.9 36.4004L199.8 30.9004H203.2V36.7004H210.6V40.9004H203.2V54.8004C203.2 56.1004 203.5 57.1004 204.2 57.7004C204.9 58.3004 205.8 58.5004 206.8 58.5004Z" fill="#E6E6E6"/>
<path d="M215.7 29.6996C215.7 28.6996 216 27.9996 216.5 27.3996C217 26.7996 217.8 26.5996 218.8 26.5996C219.8 26.5996 220.5 26.8996 221.1 27.3996C221.7 27.8996 221.9 28.6996 221.9 29.6996C221.9 30.5996 221.6 31.3996 221.1 31.8996C220.6 32.3996 219.8 32.6996 218.8 32.6996C217.8 32.6996 217 32.3996 216.5 31.8996C216 31.3996 215.7 30.5996 215.7 29.6996ZM221.6 62.4996H216.1V36.5996H221.6V62.4996Z" fill="#E6E6E6"/>
<path d="M239.9 62.9C236 62.9 233 61.8 231 59.5C229 57.2 227.9 53.9 227.9 49.6C227.9 45.2 229 41.9 231.1 39.5C233.2 37.1 236.3 36 240.3 36C243 36 245.5 36.5 247.7 37.5L246 41.9C243.7 41 241.8 40.5 240.2 40.5C235.7 40.5 233.5 43.5 233.5 49.4C233.5 52.3 234.1 54.5 235.2 56C236.3 57.5 238 58.2 240.1 58.2C242.6 58.2 244.9 57.6 247.1 56.4V61.2C246.1 61.8 245.1 62.2 243.9 62.4C242.7 62.6 241.5 62.9 239.9 62.9Z" fill="#E6E6E6"/>
<path d="M270.6 55.1004C270.6 57.6004 269.7 59.6004 267.8 60.9004C265.9 62.2004 263.3 62.9004 259.9 62.9004C256.4 62.9004 253.7 62.4004 251.6 61.3004V56.5004C254.6 57.9004 257.5 58.6004 260.1 58.6004C263.5 58.6004 265.2 57.6004 265.2 55.5004C265.2 54.8004 265 54.3004 264.6 53.9004C264.2 53.5004 263.6 53.0004 262.7 52.5004C261.8 52.0004 260.6 51.5004 259.1 50.9004C256.1 49.7004 254.1 48.6004 253 47.4004C251.9 46.2004 251.4 44.7004 251.4 42.9004C251.4 40.7004 252.3 39.0004 254.1 37.7004C255.9 36.4004 258.3 35.9004 261.4 35.9004C264.4 35.9004 267.3 36.5004 270 37.8004L268.2 41.9004C265.4 40.7004 263.1 40.2004 261.1 40.2004C258.2 40.2004 256.7 41.0004 256.7 42.7004C256.7 43.5004 257.1 44.2004 257.8 44.8004C258.5 45.4004 260.2 46.1004 262.8 47.1004C264.9 47.9004 266.5 48.7004 267.5 49.4004C268.5 50.1004 269.2 50.9004 269.7 51.8004C270.4 52.8004 270.6 53.8004 270.6 55.1004Z" fill="#E6E6E6"/>
<path d="M287.9 62.8996C283.9 62.8996 280.7 61.6996 278.4 59.3996C276.1 57.0996 275 53.7996 275 49.6996C275 45.4996 276.1 42.0996 278.2 39.6996C280.3 37.2996 283.2 36.0996 286.9 36.0996C290.3 36.0996 293 37.0996 295 39.1996C297 41.2996 298 44.0996 298 47.7996V50.7996H280.7C280.8 53.2996 281.5 55.1996 282.7 56.5996C283.9 57.9996 285.8 58.5996 288.1 58.5996C289.6 58.5996 291.1 58.4996 292.4 58.1996C293.7 57.8996 295.1 57.3996 296.7 56.7996V61.2996C295.4 61.8996 294 62.3996 292.6 62.6996C291.2 62.9996 289.7 62.8996 287.9 62.8996ZM286.9 40.2996C285.1 40.2996 283.7 40.8996 282.7 41.9996C281.7 43.0996 281 44.6996 280.8 46.8996H292.6C292.6 44.7996 292.1 43.0996 291.1 41.9996C290.1 40.8996 288.6 40.2996 286.9 40.2996Z" fill="#E6E6E6"/>
<path d="M320.4 62.4998L319.3 58.8998H319.1C317.9 60.4998 316.6 61.5998 315.3 62.0998C314 62.5998 312.4 62.9998 310.4 62.9998C307.9 62.9998 305.9 62.2998 304.4 60.8998C302.9 59.4998 302.3 57.5998 302.3 55.0998C302.3 52.3998 303.3 50.3998 305.3 49.0998C307.3 47.7998 310.3 46.9998 314.4 46.8998L318.9 46.7998V45.3998C318.9 43.6998 318.5 42.4998 317.7 41.6998C316.9 40.8998 315.7 40.4998 314.1 40.4998C312.8 40.4998 311.5 40.6998 310.3 41.0998C309.1 41.4998 307.9 41.9998 306.8 42.4998L305 38.5998C306.4 37.8998 307.9 37.2998 309.6 36.8998C311.3 36.4998 312.8 36.2998 314.3 36.2998C317.6 36.2998 320.1 36.9998 321.8 38.4998C323.5 39.9998 324.3 42.1998 324.3 45.2998V62.4998H320.4ZM312.2 58.6998C314.2 58.6998 315.8 58.0998 317 56.9998C318.2 55.8998 318.8 54.2998 318.8 52.2998V50.0998L315.5 50.1998C312.9 50.2998 311 50.6998 309.8 51.4998C308.6 52.2998 308 53.4998 308 55.0998C308 56.2998 308.3 57.1998 309 57.7998C309.7 58.3998 310.9 58.6998 312.2 58.6998Z" fill="#E6E6E6"/>
<path d="M345.2 36.0996C346.3 36.0996 347.2 36.1996 347.9 36.2996L347.4 41.3996C346.6 41.1996 345.8 41.0996 345 41.0996C342.8 41.0996 341 41.7996 339.6 43.2996C338.2 44.7996 337.5 46.5996 337.5 48.8996V62.4996H332V36.5996H336.3L337 41.1996H337.3C338.2 39.6996 339.3 38.3996 340.7 37.4996C342.1 36.5996 343.6 36.0996 345.2 36.0996Z" fill="#E6E6E6"/>
<path d="M363.2 62.9C359.3 62.9 356.3 61.8 354.3 59.5C352.3 57.2 351.2 53.9 351.2 49.6C351.2 45.2 352.3 41.9 354.4 39.5C356.5 37.1 359.6 36 363.6 36C366.3 36 368.8 36.5 371 37.5L369.3 41.9C367 41 365.1 40.5 363.5 40.5C359 40.5 356.8 43.5 356.8 49.4C356.8 52.3 357.4 54.5 358.5 56C359.6 57.5 361.3 58.2 363.4 58.2C365.9 58.2 368.2 57.6 370.4 56.4V61.2C369.4 61.8 368.4 62.2 367.2 62.4C366 62.6 364.8 62.9 363.2 62.9Z" fill="#E6E6E6"/>
<path d="M399.3 62.5H393.8V46.5C393.8 44.5 393.4 43 392.6 42C391.8 41 390.5 40.5 388.8 40.5C386.5 40.5 384.8 41.2 383.7 42.6C382.6 44 382.1 46.3 382.1 49.5V62.5H376.6V26H382.1V35.3C382.1 36.8 382 38.4 381.8 40.1H382.2C383 38.9 384 37.9 385.3 37.2C386.6 36.5 388.2 36.2 390 36.2C396.3 36.2 399.4 39.4 399.4 45.7V62.5H399.3Z" fill="#E6E6E6"/>
<path d="M64.8 33H43.9C44 33.5 44.2 34 44.3 34.4C45 36.8 45.4 39.3 45.6 41.9C45.7 42.9 45.7 44 45.7 45C45.7 46 45.7 47.1 45.6 48.1C45.4 50.7 45 53.2 44.3 55.6C44.2 56.1 44 56.6 43.9 57H64.8C71.4 57 76.7 51.6 76.7 45C76.7 38.4 71.4 33 64.8 33Z" fill="#00A9E5"/>
<path d="M45.6 48.1C45.7 47.1 45.7 46 45.7 45C45.7 44 45.7 42.9 45.6 41.9C45.4 39.3 45 36.8 44.3 34.4C44.2 33.9 44 33.4 43.9 33H11.6C10.4 36.8 9.79999 40.8 9.79999 45C9.79999 49.2 10.4 53.2 11.6 57H43.9C44 56.5 44.2 56 44.3 55.6C45 53.2 45.4 50.7 45.6 48.1Z" fill="#353535"/>
<path d="M68.4 61H42.4C41.6 62.8 40.7 64.5 39.7 66.1C38.2 68.6 36.4 70.8 34.4 72.9C33.7 73.6 33 74.2 32.3 74.9C30.9 76.2 29.3 77.3 27.7 78.4C34 82.6 41.6 85 49.7 85C63.6 85 75.8 77.9 83 67.2C79.3 63.4 74.1 61 68.4 61Z" fill="#00BFB3"/>
<path d="M39.7 66.1C40.7 64.5 41.6 62.8 42.4 61H13.1C16.2 68.1 21.3 74.2 27.8 78.4C29.4 77.3 30.9 76.2 32.4 74.9C33.1 74.3 33.8 73.6 34.5 72.9C36.4 70.9 38.2 68.6 39.7 66.1Z" fill="#019B8F"/>
<path d="M34.4 17.0996C33.7 16.3996 33 15.7996 32.3 15.0996C30.9 13.7996 29.3 12.6996 27.7 11.5996C21.3 15.7996 16.2 21.8996 13 28.9996H42.3C41.5 27.1996 40.6 25.4996 39.6 23.8996C38.2 21.3996 36.4 19.0996 34.4 17.0996Z" fill="#F9B110"/>
<path d="M49.7 5C41.6 5 34 7.4 27.7 11.6C29.3 12.7 30.8 13.8 32.3 15.1C33 15.7 33.7 16.4 34.4 17.1C36.4 19.2 38.2 21.4 39.7 23.9C40.7 25.5 41.6 27.2 42.4 29H68.4C74.1 29 79.3 26.6 83 22.8C75.8 12.1 63.6 5 49.7 5Z" fill="#FED10A"/>
</g>
<defs>
<clipPath id="clip0_1419_4923">
<rect width="410" height="90" fill="white"/>
</clipPath>
</defs>
</svg>
