<svg width="350" height="90" viewBox="0 0 350 90" fill="none" xmlns="http://www.w3.org/2000/svg">
<g clip-path="url(#clip0_1502_652)">
<path fill-rule="evenodd" clip-rule="evenodd" d="M92.4202 19.8484L92.4245 19.8399C88.2402 14.8242 82.8708 10.9315 76.8026 8.51432C70.7344 6.09715 64.1591 5.23184 57.6722 5.99677C51.1852 6.7617 44.9915 9.1327 39.652 12.8951C34.3125 16.6574 29.9959 21.6923 27.093 27.5437H78.2831C81.9591 27.5555 85.5213 26.2699 88.3426 23.9133C89.8189 22.68 91.1837 21.3189 92.4212 19.846" fill="#FEC514"/>
<path fill-rule="evenodd" clip-rule="evenodd" d="M23 45.0021C22.9998 48.4403 23.4507 51.8636 24.3413 55.1844H72.4564C75.1448 55.1661 77.7169 54.0853 79.6115 52.1778C81.506 50.2703 82.5693 47.6909 82.5693 45.0024C82.5693 42.3139 81.506 39.7345 79.6115 37.827C77.7169 35.9194 75.1448 34.8386 72.4564 34.8203H24.3413C23.4507 38.141 22.9998 41.5641 23 45.0021Z" fill="#E6E6E6"/>
<path fill-rule="evenodd" clip-rule="evenodd" d="M92.4202 70.1538L92.4245 70.1628C88.24 75.1784 82.8705 79.0711 76.8021 81.4881C70.7338 83.9051 64.1583 84.7702 57.6713 84.005C51.1843 83.2398 44.9907 80.8684 39.6513 77.1057C34.3119 73.343 29.9955 68.3078 27.093 62.4561H78.2831C81.9591 62.4445 85.5214 63.7303 88.3426 66.087C89.8189 67.3202 91.1837 68.681 92.4212 70.1538" fill="#00BFB3"/>
<path fill-rule="evenodd" clip-rule="evenodd" d="M178.159 54.4559H146.158V5H149.067C156.783 5 164.183 8.06507 169.639 13.5209C175.095 18.9768 178.16 26.3765 178.16 34.0923L178.159 54.4559Z" fill="#FEC514"/>
<path fill-rule="evenodd" clip-rule="evenodd" d="M176.705 84.9995H178.159V54.4531H146.158C146.158 58.4645 146.948 62.4367 148.483 66.1427C150.019 69.8488 152.269 73.2162 155.105 76.0527C160.834 81.7812 168.603 84.9995 176.705 84.9995Z" fill="#E6E6E6"/>
<path fill-rule="evenodd" clip-rule="evenodd" d="M185.432 84.9995H213.07V54.4531H185.432V84.9995Z" fill="#00BFB3"/>
<path fill-rule="evenodd" clip-rule="evenodd" d="M266.197 35.1821V76.3925L295.487 42.6606C286.506 37.7502 276.433 35.178 266.197 35.1807" fill="#E6E6E6"/>
<path fill-rule="evenodd" clip-rule="evenodd" d="M266.197 5.72656V35.182C276.433 35.1783 286.505 37.7494 295.487 42.6586L327.563 5.72656H266.197Z" fill="#F04E98"/>
<path fill-rule="evenodd" clip-rule="evenodd" d="M301.752 46.5424L271.689 81.1632L268.984 84.2759H326.331C323.215 69.0378 314.43 55.551 301.752 46.541" fill="#00BFB3"/>
<path d="M118.135 30.3184H114.028V59.0634H118.135V30.3184Z" fill="#E6E6E6"/>
<path d="M130.454 46.7471V42.6406H101.709V46.7471H130.454Z" fill="#E6E6E6"/>
<path d="M241.327 30.3184H237.221V59.0634H241.327V30.3184Z" fill="#E6E6E6"/>
<path d="M253.647 46.7471V42.6406H224.902V46.7471H253.647Z" fill="#E6E6E6"/>
</g>
<defs>
<clipPath id="clip0_1502_652">
<rect width="350" height="90" fill="white"/>
</clipPath>
</defs>
</svg>
