<svg width="182" height="90" viewBox="0 0 182 90" fill="none" xmlns="http://www.w3.org/2000/svg">
<g clip-path="url(#clip0_1623_4600)">
<path d="M27.9496 21.3934V69.6807H18.0003V21.3934H27.9496ZM56.8689 21.3934L37.7331 45.2386L26.6894 57.1114L24.8985 47.6927L32.3605 37.4781L44.6644 21.3934H56.8689ZM45.5599 69.6807L31.3324 47.3611L38.6949 41.1925L57.3332 69.6807H45.5599ZM72.7029 33.7969V69.6807H63.1184V33.7969H72.7029ZM62.5214 24.4446C62.5214 23.0517 63.0078 21.902 63.9807 20.9955C64.9535 20.089 66.2579 19.6357 67.894 19.6357C69.508 19.6357 70.8014 20.089 71.7743 20.9955C72.7692 21.902 73.2667 23.0517 73.2667 24.4446C73.2667 25.8375 72.7692 26.9872 71.7743 27.8936C70.8014 28.8001 69.508 29.2534 67.894 29.2534C66.2579 29.2534 64.9535 28.8001 63.9807 27.8936C63.0078 26.9872 62.5214 25.8375 62.5214 24.4446ZM100.211 33.7969V40.5624H79.3172V33.7969H100.211ZM84.4908 24.942H94.0421V58.8691C94.0421 59.9083 94.1748 60.7042 94.4401 61.2569C94.7275 61.8097 95.1476 62.1966 95.7003 62.4177C96.2531 62.6167 96.9495 62.7162 97.7897 62.7162C98.3866 62.7162 98.9173 62.6941 99.3816 62.6498C99.868 62.5835 100.277 62.5172 100.609 62.4508L100.642 69.4817C99.8238 69.747 98.9394 69.957 97.9887 70.1118C97.038 70.2666 95.9877 70.344 94.8381 70.344C92.7376 70.344 90.9026 70.0013 89.3328 69.3159C87.7851 68.6084 86.5912 67.4808 85.751 65.9331C84.9109 64.3854 84.4908 62.3514 84.4908 59.8309V24.942ZM125.264 33.7969V40.5624H104.371V33.7969H125.264ZM109.544 24.942H119.096V58.8691C119.096 59.9083 119.228 60.7042 119.494 61.2569C119.781 61.8097 120.201 62.1966 120.754 62.4177C121.307 62.6167 122.003 62.7162 122.843 62.7162C123.44 62.7162 123.971 62.6941 124.435 62.6498C124.922 62.5835 125.331 62.5172 125.662 62.4508L125.695 69.4817C124.877 69.747 123.993 69.957 123.042 70.1118C122.092 70.2666 121.041 70.344 119.892 70.344C117.791 70.344 115.956 70.0013 114.386 69.3159C112.839 68.6084 111.645 67.4808 110.805 65.9331C109.965 64.3854 109.544 62.3514 109.544 59.8309V24.942ZM143.387 65.6346L152.905 33.7969H163.153L148.726 75.0864C148.417 75.9929 147.996 76.9658 147.466 78.0049C146.957 79.0441 146.261 80.0279 145.376 80.9565C144.514 81.9072 143.42 82.6811 142.093 83.278C140.789 83.875 139.186 84.1735 137.284 84.1735C136.378 84.1735 135.637 84.1182 135.062 84.0076C134.488 83.8971 133.802 83.7423 133.006 83.5433V76.5457C133.249 76.5457 133.504 76.5457 133.769 76.5457C134.034 76.5678 134.289 76.5788 134.532 76.5788C135.792 76.5788 136.82 76.4351 137.616 76.1477C138.412 75.8603 139.053 75.4181 139.54 74.8211C140.026 74.2463 140.413 73.4946 140.7 72.566L143.387 65.6346ZM139.407 33.7969L147.201 59.7977L148.56 69.9128L142.06 70.6093L129.159 33.7969H139.407Z" fill="#E6E6E6"/>
<a href="https://github.com/0x6d69636b/windows_hardening/blob/master/HardeningKitty.psd1">
<rect fill="black" fill-opacity="0" x="11.5264" y="0.202839" width="149.53" height="79.5943"/>
</a>
<path d="M142.999 17.3759C142.267 16.9379 141.44 16.3925 140.52 15.7397C139.612 15.1181 138.687 14.4496 137.744 13.7343C136.812 13.0503 135.924 12.3858 135.078 11.7409C134.232 11.0959 133.527 10.5409 132.962 10.0759C132.84 10.7974 132.671 11.6789 132.455 12.7203C132.239 13.7616 132.003 14.8459 131.748 15.973C131.504 17.1314 131.228 18.2487 130.918 19.3251C130.651 20.421 130.4 21.3687 130.165 22.1681C129.926 22.8622 129.679 23.488 129.425 24.0456C129.213 24.6227 128.842 25.0103 128.311 25.2085C127.843 25.3834 127.342 25.3749 126.807 25.183C126.507 25.046 126.254 24.8916 126.047 24.7196C125.841 24.5477 125.685 24.3211 125.58 24.0401C125.475 23.7591 125.425 23.3864 125.429 22.9221C125.465 22.4462 125.57 21.8202 125.742 21.0441C126.226 18.622 126.634 16.4768 126.969 14.6085C127.334 12.7286 127.693 11.1178 128.046 9.77627C128.411 8.46593 128.816 7.40728 129.262 6.60033C129.751 5.81295 130.355 5.28517 131.073 5.01699C131.791 4.74882 132.577 4.75774 133.431 5.04375C134.285 5.32977 135.279 5.84811 136.414 6.59879C137.591 7.36903 138.918 8.35016 140.395 9.54218C141.903 10.7225 143.639 12.0846 145.603 13.6285C146.242 14.1014 146.716 14.5118 147.023 14.8594C147.362 15.1954 147.584 15.5039 147.689 15.785C147.794 16.066 147.825 16.3392 147.782 16.6044C147.738 16.8696 147.648 17.1524 147.511 17.4526C147.234 17.9477 146.86 18.2826 146.392 18.4575C145.861 18.6558 145.311 18.6121 144.742 18.3265C144.216 18.0604 143.635 17.7436 142.999 17.3759Z" fill="#F44C99"/>
<path d="M170.636 21.8615C170.349 21.0576 170.057 20.1114 169.762 19.0229C169.455 17.9658 169.165 16.8615 168.892 15.7099C168.607 14.5899 168.343 13.5122 168.1 12.4768C167.857 11.4415 167.665 10.5647 167.524 9.8466C166.971 10.3263 166.28 10.8996 165.452 11.5664C164.623 12.2333 163.753 12.9208 162.839 13.629C161.915 14.3688 160.992 15.0558 160.069 15.6901C159.166 16.3668 158.37 16.9391 157.681 17.407C157.055 17.7911 156.467 18.1176 155.916 18.3865C155.386 18.6978 154.853 18.7613 154.317 18.577C153.845 18.4145 153.463 18.0893 153.172 17.6017C153.028 17.3052 152.93 17.0249 152.88 16.7609C152.83 16.4969 152.853 16.2231 152.951 15.9394C153.048 15.6557 153.246 15.336 153.545 14.9804C153.875 14.6356 154.353 14.2185 154.98 13.729C156.892 12.1657 158.571 10.769 160.016 9.53873C161.493 8.31929 162.793 7.30375 163.918 6.49211C165.033 5.712 166.018 5.15204 166.875 4.81225C167.753 4.51481 168.554 4.49073 169.279 4.74001C170.004 4.98929 170.606 5.49567 171.084 6.25915C171.561 7.02262 172 8.05454 172.398 9.35488C172.818 10.6976 173.219 12.2984 173.602 14.1573C174.017 16.027 174.492 18.1819 175.028 20.622C175.221 21.3934 175.326 22.011 175.342 22.475C175.391 22.9498 175.366 23.3291 175.268 23.6128C175.171 23.8965 175.021 24.127 174.819 24.3043C174.617 24.4816 174.368 24.6426 174.072 24.7874C173.543 24.9933 173.042 25.0149 172.569 24.8523C172.033 24.6681 171.636 24.2849 171.378 23.7027C171.141 23.1628 170.893 22.5491 170.636 21.8615Z" fill="#F44C99"/>
</g>
<defs>
<clipPath id="clip0_1623_4600">
<rect width="182" height="90" fill="white"/>
</clipPath>
</defs>
</svg>
