<svg width="291" height="90" viewBox="0 0 291 90" fill="none" xmlns="http://www.w3.org/2000/svg">
<g clip-path="url(#clip0_1513_4686)">
<path d="M74.3248 60.0133C83.7743 58.1269 90.0458 54.456 90.5471 49.6686C91.4439 41.1039 73.533 32.2091 50.5419 29.8016C27.5509 27.3941 8.18585 32.3855 7.28899 40.9503C6.7638 45.9658 12.6882 51.0944 22.3055 54.9673" stroke="#E6E6E6" stroke-width="3.17281" stroke-linecap="round" stroke-linejoin="round"/>
<path d="M72.5491 29.8306C75.8334 20.9892 76.1805 14.119 72.8038 11.7075C66.7628 7.39333 51.0906 18.9837 37.7991 37.5954C24.5075 56.2072 18.6298 74.7923 24.6709 79.1065C28.2085 81.6329 35.0488 78.7052 42.7797 72.1074" stroke="#E6E6E6" stroke-width="3.17281" stroke-linecap="round" stroke-linejoin="round"/>
<path d="M47.9078 17.18C41.8348 9.56832 35.8846 5.59534 31.9292 7.33197C25.0278 10.362 26.8127 29.6262 35.9158 50.3598C45.0189 71.0934 57.9931 85.4449 64.8945 82.4149C71.7958 79.3848 70.0109 60.1206 60.9078 39.387C60.6294 38.7529 60.3473 38.1247 60.062 37.5029" stroke="#E6E6E6" stroke-width="3.17281" stroke-linecap="round" stroke-linejoin="bevel"/>
<circle cx="48.6399" cy="45.418" r="6.02834" fill="#E6E6E6"/>
<path d="M115.534 43.5629V69.9307H109.802V36.4055H115.224L115.534 43.5629ZM114.171 51.8977L111.785 51.8047C111.806 49.5119 112.146 47.3946 112.807 45.4529C113.468 43.4906 114.398 41.7864 115.596 40.3405C116.794 38.8945 118.219 37.7791 119.872 36.9942C121.545 36.1886 123.394 35.7858 125.418 35.7858C127.071 35.7858 128.558 36.013 129.88 36.4674C131.202 36.9012 132.328 37.6035 133.257 38.5744C134.207 39.5452 134.93 40.8052 135.426 42.3545C135.922 43.883 136.17 45.7524 136.17 47.9627V69.9307H130.407V47.9007C130.407 46.1449 130.148 44.7403 129.632 43.6868C129.116 42.6127 128.362 41.8381 127.37 41.363C126.379 40.8672 125.16 40.6193 123.714 40.6193C122.289 40.6193 120.987 40.9189 119.81 41.5179C118.653 42.1169 117.651 42.9432 116.804 43.9967C115.978 45.0501 115.327 46.2585 114.852 47.6218C114.398 48.9645 114.171 50.3898 114.171 51.8977ZM167.292 62.1845V36.4055H173.055V69.9307H167.571L167.292 62.1845ZM168.376 55.1201L170.762 55.0581C170.762 57.289 170.524 59.3546 170.049 61.255C169.595 63.1347 168.851 64.7666 167.819 66.1506C166.786 67.5345 165.433 68.619 163.76 69.4039C162.086 70.1682 160.052 70.5504 157.656 70.5504C156.024 70.5504 154.526 70.3128 153.163 69.8377C151.82 69.3626 150.663 68.6293 149.693 67.6378C148.722 66.6463 147.968 65.3553 147.431 63.7648C146.914 62.1742 146.656 60.2635 146.656 58.0326V36.4055H152.388V58.0946C152.388 59.6025 152.553 60.8522 152.884 61.8437C153.235 62.8146 153.7 63.5892 154.278 64.1676C154.877 64.7253 155.538 65.1177 156.261 65.345C157.005 65.5722 157.769 65.6858 158.554 65.6858C160.992 65.6858 162.923 65.221 164.348 64.2915C165.774 63.3413 166.796 62.0709 167.416 60.4804C168.056 58.8692 168.376 57.0824 168.376 55.1201ZM197.112 65.8407C198.476 65.8407 199.736 65.5619 200.893 65.0041C202.049 64.4464 203 63.6821 203.743 62.7113C204.487 61.7198 204.91 60.594 205.014 59.334H210.467C210.364 61.317 209.692 63.1657 208.453 64.8802C207.234 66.574 205.633 67.9477 203.65 69.0011C201.667 70.0339 199.488 70.5504 197.112 70.5504C194.592 70.5504 192.393 70.1062 190.513 69.218C188.654 68.3298 187.104 67.1111 185.865 65.5619C184.646 64.0126 183.727 62.2362 183.107 60.2325C182.508 58.2082 182.209 56.0703 182.209 53.8187V52.5174C182.209 50.2658 182.508 48.1382 183.107 46.1346C183.727 44.1103 184.646 42.3235 185.865 40.7743C187.104 39.225 188.654 38.0063 190.513 37.1181C192.393 36.2299 194.592 35.7858 197.112 35.7858C199.736 35.7858 202.029 36.3228 203.991 37.397C205.953 38.4504 207.492 39.8964 208.608 41.7348C209.744 43.5525 210.364 45.6182 210.467 47.9317H205.014C204.91 46.5477 204.518 45.298 203.836 44.1826C203.175 43.0671 202.266 42.1789 201.109 41.5179C199.973 40.8362 198.641 40.4954 197.112 40.4954C195.357 40.4954 193.88 40.8466 192.682 41.5489C191.504 42.2305 190.564 43.1601 189.862 44.3375C189.18 45.4942 188.685 46.7853 188.375 48.2105C188.086 49.6152 187.941 51.0508 187.941 52.5174V53.8187C187.941 55.2853 188.086 56.7313 188.375 58.1566C188.664 59.5818 189.149 60.8729 189.831 62.0296C190.533 63.1864 191.473 64.1159 192.651 64.8182C193.849 65.4999 195.336 65.8407 197.112 65.8407ZM225.043 22.3385V69.9307H219.28V22.3385H225.043ZM250.061 70.5504C247.727 70.5504 245.61 70.1579 243.709 69.3729C241.83 68.5673 240.208 67.4416 238.845 65.9956C237.502 64.5497 236.469 62.8352 235.746 60.8522C235.023 58.8692 234.662 56.7003 234.662 54.3455V53.0441C234.662 50.3175 235.065 47.8904 235.87 45.7628C236.676 43.6145 237.771 41.7968 239.155 40.3095C240.539 38.8222 242.109 37.6965 243.864 36.9322C245.62 36.1679 247.438 35.7858 249.318 35.7858C251.714 35.7858 253.779 36.1989 255.515 37.0251C257.27 37.8514 258.706 39.0081 259.821 40.4954C260.937 41.962 261.763 43.6971 262.3 45.7008C262.837 47.6838 263.106 49.8527 263.106 52.2075V54.7793H238.07V50.1006H257.374V49.6668C257.291 48.1796 256.981 46.7336 256.444 45.329C255.928 43.9244 255.101 42.7676 253.965 41.8587C252.829 40.9498 251.28 40.4954 249.318 40.4954C248.016 40.4954 246.818 40.7743 245.723 41.332C244.629 41.8691 243.689 42.6746 242.904 43.7488C242.119 44.8229 241.51 46.1346 241.076 47.6838C240.642 49.233 240.425 51.0198 240.425 53.0441V54.3455C240.425 55.936 240.642 57.4336 241.076 58.8382C241.53 60.2222 242.181 61.4409 243.028 62.4944C243.895 63.5479 244.938 64.3741 246.157 64.9731C247.397 65.5722 248.801 65.8717 250.371 65.8717C252.395 65.8717 254.11 65.4586 255.515 64.6323C256.919 63.8061 258.148 62.701 259.202 61.317L262.672 64.0746C261.949 65.1694 261.03 66.2125 259.914 67.204C258.799 68.1955 257.425 69.0011 255.793 69.6208C254.182 70.2405 252.271 70.5504 250.061 70.5504ZM277.93 36.4055V69.9307H272.167V36.4055H277.93ZM271.733 27.5129C271.733 26.5834 272.012 25.7984 272.57 25.1581C273.148 24.5177 273.995 24.1976 275.11 24.1976C276.205 24.1976 277.042 24.5177 277.62 25.1581C278.219 25.7984 278.519 26.5834 278.519 27.5129C278.519 28.4011 278.219 29.1654 277.62 29.8058C277.042 30.4254 276.205 30.7353 275.11 30.7353C273.995 30.7353 273.148 30.4254 272.57 29.8058C272.012 29.1654 271.733 28.4011 271.733 27.5129Z" fill="#E6E6E6"/>
</g>
<defs>
<clipPath id="clip0_1513_4686">
<rect width="291" height="90" fill="white"/>
</clipPath>
</defs>
</svg>
