<svg width="118" height="34" viewBox="0 0 118 34" fill="none" xmlns="http://www.w3.org/2000/svg">
<g clip-path="url(#clip0_1626_4715)">
<path d="M3.99607 26V7.98286H13.4774C14.8081 7.98286 15.9112 8.21048 16.7867 8.66573C17.6621 9.12097 18.3187 9.76882 18.7565 10.6093C19.1942 11.4497 19.4131 12.439 19.4131 13.5771C19.4131 14.7502 19.1504 15.792 18.6251 16.7025C18.0999 17.5955 17.3295 18.2696 16.3139 18.7249L20.0434 26H16.3139L13.0046 19.3027H7.41039V26H3.99607ZM7.41039 16.4399H13.2147C14.0902 16.4399 14.7643 16.186 15.2371 15.6782C15.7098 15.1705 15.9462 14.4701 15.9462 13.5771C15.9462 12.9993 15.8412 12.5178 15.631 12.1326C15.4209 11.7299 15.1145 11.4235 14.7118 11.2133C14.3091 11.0032 13.8101 10.8982 13.2147 10.8982H7.41039V16.4399ZM21.7452 10.0577V7.01109H24.9494V10.0577H21.7452ZM21.7452 26V12.1851H24.9494V26H21.7452ZM32.9587 26.3152C31.9607 26.3152 31.0852 26.2101 30.3323 26C29.5794 25.7724 28.9491 25.466 28.4413 25.0808C27.9336 24.6956 27.5484 24.2491 27.2857 23.7413C27.0406 23.216 26.918 22.647 26.918 22.0341C26.918 21.9466 26.918 21.8678 26.918 21.7978C26.9355 21.7277 26.9443 21.6752 26.9443 21.6402H30.096C30.096 21.6752 30.096 21.7102 30.096 21.7452C30.096 21.7802 30.096 21.8153 30.096 21.8503C30.1135 22.323 30.2623 22.7082 30.5425 23.0059C30.8226 23.286 31.1903 23.4874 31.6455 23.61C32.1008 23.7325 32.5823 23.7938 33.0901 23.7938C33.5453 23.7938 33.9743 23.75 34.377 23.6625C34.7972 23.5574 35.1387 23.3999 35.4013 23.1897C35.6815 22.9621 35.8215 22.6732 35.8215 22.323C35.8215 21.8678 35.6464 21.5176 35.2962 21.2725C34.9461 21.0273 34.4821 20.826 33.9043 20.6684C33.344 20.5108 32.7399 20.3445 32.092 20.1694C31.5142 20.0118 30.9364 19.8367 30.3586 19.6441C29.7808 19.4515 29.2555 19.2064 28.7828 18.9087C28.3275 18.611 27.9511 18.2258 27.6534 17.7531C27.3733 17.2803 27.2332 16.6938 27.2332 15.9934C27.2332 15.3105 27.382 14.7152 27.6797 14.2074C27.9773 13.6997 28.3888 13.2794 28.9141 12.9468C29.4394 12.5966 30.0609 12.3339 30.7788 12.1588C31.4967 11.9838 32.2759 11.8962 33.1163 11.8962C33.9393 11.8962 34.6834 11.9838 35.3488 12.1588C36.0316 12.3339 36.6182 12.5878 37.1085 12.9205C37.6162 13.2357 38.0014 13.6296 38.2641 14.1024C38.5442 14.5576 38.6843 15.0654 38.6843 15.6257C38.6843 15.7483 38.6756 15.8708 38.658 15.9934C38.658 16.116 38.658 16.186 38.658 16.2035H35.5326V16.0197C35.5326 15.687 35.4276 15.4068 35.2175 15.1792C35.0249 14.9341 34.7359 14.7415 34.3507 14.6014C33.983 14.4613 33.519 14.3913 32.9587 14.3913C32.5385 14.3913 32.1708 14.4263 31.8557 14.4963C31.5405 14.5664 31.2778 14.6627 31.0677 14.7853C30.8751 14.9078 30.7263 15.0479 30.6212 15.2055C30.5162 15.3631 30.4637 15.5382 30.4637 15.7308C30.4637 16.0634 30.595 16.3261 30.8576 16.5187C31.1203 16.7113 31.4705 16.8776 31.9082 17.0177C32.3634 17.1578 32.8537 17.3066 33.379 17.4642C34.0093 17.6393 34.6572 17.8231 35.3225 18.0157C35.9879 18.1908 36.6007 18.4184 37.161 18.6986C37.7388 18.9787 38.2028 19.3727 38.553 19.8805C38.9032 20.3882 39.0783 21.0624 39.0783 21.9028C39.0783 22.7082 38.9207 23.3999 38.6055 23.9777C38.3079 24.538 37.8789 24.9932 37.3186 25.3434C36.7758 25.6761 36.1279 25.9212 35.375 26.0788C34.6396 26.2364 33.8342 26.3152 32.9587 26.3152ZM39.0385 26L43.9761 18.8824L39.3799 12.1851H43.267L45.9984 16.4661H46.156L48.94 12.1851H52.5907L47.9682 18.8036L52.8534 26H49.0188L45.9459 21.2199H45.7883L42.6892 26H39.0385ZM58.5026 26V7.98286H61.0239L66.2505 21.1412C66.3555 21.4213 66.4606 21.719 66.5657 22.0341C66.6882 22.3493 66.7933 22.647 66.8808 22.9271C66.9859 23.1897 67.0647 23.4174 67.1172 23.61H67.2485C67.3361 23.3648 67.4324 23.0934 67.5374 22.7958C67.6425 22.4806 67.7475 22.1742 67.8526 21.8765C67.9576 21.5789 68.0364 21.3338 68.089 21.1412L73.3155 7.98286H75.8369V26H74.156V14.1812C74.156 13.866 74.156 13.4633 74.156 12.973C74.1735 12.4828 74.1822 11.9925 74.1822 11.5022C74.1997 10.9945 74.2085 10.5655 74.2085 10.2153H74.0246C73.9371 10.5305 73.8408 10.8456 73.7357 11.1608C73.6482 11.4585 73.5519 11.7561 73.4468 12.0538C73.3418 12.3514 73.2367 12.6316 73.1317 12.8942L67.8001 26H66.5394L61.2078 12.9205C61.1027 12.6579 60.9977 12.3865 60.8926 12.1063C60.7876 11.8087 60.6825 11.5022 60.5774 11.1871C60.4724 10.8719 60.3761 10.548 60.2885 10.2153H60.1047C60.1222 10.548 60.131 10.9595 60.131 11.4497C60.131 11.9225 60.1397 12.404 60.1572 12.8942C60.1747 13.3845 60.1835 13.8135 60.1835 14.1812V26H58.5026ZM83.7846 26.3152C82.8916 26.3152 82.1037 26.2276 81.4208 26.0525C80.738 25.8774 80.1689 25.6235 79.7137 25.2909C79.2584 24.9407 78.9083 24.5117 78.6631 24.0039C78.4355 23.4787 78.3217 22.8833 78.3217 22.218C78.3217 22.1479 78.3217 22.0691 78.3217 21.9816C78.3392 21.8941 78.348 21.8153 78.348 21.7452H79.8713C79.8538 21.8503 79.845 21.9378 79.845 22.0079C79.845 22.0604 79.845 22.1217 79.845 22.1917C79.845 22.9271 80.0113 23.5049 80.344 23.9251C80.6942 24.3279 81.1757 24.608 81.7885 24.7656C82.4014 24.9232 83.1105 25.002 83.9159 25.002C84.6163 25.002 85.2379 24.9057 85.7807 24.7131C86.3235 24.5029 86.7524 24.2053 87.0676 23.8201C87.4003 23.4349 87.5666 22.9621 87.5666 22.4018C87.5666 21.7015 87.3565 21.1762 86.9363 20.826C86.5336 20.4583 86.0083 20.1781 85.3605 19.9855C84.7126 19.7754 84.0385 19.5741 83.3381 19.3815C82.7953 19.2239 82.2525 19.0575 81.7098 18.8824C81.167 18.6898 80.6767 18.4535 80.239 18.1733C79.8187 17.8932 79.4773 17.543 79.2147 17.1228C78.952 16.685 78.8207 16.1422 78.8207 15.4944C78.8207 14.9516 78.9345 14.4613 79.1621 14.0236C79.3898 13.5683 79.7137 13.1831 80.1339 12.868C80.5716 12.5353 81.0969 12.2902 81.7098 12.1326C82.3401 11.9575 83.058 11.8699 83.8634 11.8699C84.8089 11.8699 85.5968 11.975 86.2272 12.1851C86.875 12.3952 87.3828 12.6929 87.7505 13.0781C88.1357 13.4458 88.4071 13.8485 88.5647 14.2862C88.7398 14.724 88.8273 15.1792 88.8273 15.652C88.8273 15.7045 88.8273 15.7745 88.8273 15.8621C88.8273 15.9321 88.8186 16.0109 88.801 16.0985H87.2777V15.7045C87.2777 15.3368 87.1902 14.9603 87.0151 14.5751C86.8575 14.1899 86.5248 13.866 86.0171 13.6034C85.5268 13.3232 84.7826 13.1831 83.7846 13.1831C83.2068 13.1831 82.7078 13.2357 82.2876 13.3407C81.8673 13.4458 81.5171 13.5946 81.237 13.7872C80.9568 13.9623 80.738 14.1899 80.5804 14.4701C80.4403 14.7502 80.3703 15.0829 80.3703 15.4681C80.3703 16.0284 80.5366 16.4574 80.8693 16.7551C81.2195 17.0352 81.666 17.2628 82.2088 17.4379C82.7516 17.5955 83.3294 17.7794 83.9422 17.9895C84.555 18.1821 85.1679 18.3747 85.7807 18.5673C86.3935 18.7599 86.9538 18.9963 87.4616 19.2764C87.9694 19.5566 88.3721 19.9242 88.6697 20.3795C88.9849 20.8347 89.1425 21.4301 89.1425 22.1654C89.1425 22.8308 89.0024 23.4261 88.7223 23.9514C88.4596 24.4592 88.0919 24.8882 87.6192 25.2383C87.1464 25.5885 86.5774 25.8512 85.912 26.0263C85.2642 26.2189 84.555 26.3152 83.7846 26.3152ZM95.667 26.3152C94.7741 26.3152 93.9861 26.2276 93.3033 26.0525C92.6204 25.8774 92.0514 25.6235 91.5961 25.2909C91.1409 24.9407 90.7907 24.5117 90.5456 24.0039C90.3179 23.4787 90.2041 22.8833 90.2041 22.218C90.2041 22.1479 90.2041 22.0691 90.2041 21.9816C90.2216 21.8941 90.2304 21.8153 90.2304 21.7452H91.7537C91.7362 21.8503 91.7274 21.9378 91.7274 22.0079C91.7274 22.0604 91.7274 22.1217 91.7274 22.1917C91.7274 22.9271 91.8938 23.5049 92.2265 23.9251C92.5766 24.3279 93.0581 24.608 93.671 24.7656C94.2838 24.9232 94.9929 25.002 95.7984 25.002C96.4987 25.002 97.1203 24.9057 97.6631 24.7131C98.2059 24.5029 98.6349 24.2053 98.95 23.8201C99.2827 23.4349 99.4491 22.9621 99.4491 22.4018C99.4491 21.7015 99.239 21.1762 98.8187 20.826C98.416 20.4583 97.8907 20.1781 97.2429 19.9855C96.595 19.7754 95.9209 19.5741 95.2206 19.3815C94.6778 19.2239 94.135 19.0575 93.5922 18.8824C93.0494 18.6898 92.5591 18.4535 92.1214 18.1733C91.7012 17.8932 91.3597 17.543 91.0971 17.1228C90.8345 16.685 90.7031 16.1422 90.7031 15.4944C90.7031 14.9516 90.8169 14.4613 91.0446 14.0236C91.2722 13.5683 91.5961 13.1831 92.0163 12.868C92.4541 12.5353 92.9794 12.2902 93.5922 12.1326C94.2225 11.9575 94.9404 11.8699 95.7458 11.8699C96.6913 11.8699 97.4793 11.975 98.1096 12.1851C98.7574 12.3952 99.2652 12.6929 99.6329 13.0781C100.018 13.4458 100.29 13.8485 100.447 14.2862C100.622 14.724 100.71 15.1792 100.71 15.652C100.71 15.7045 100.71 15.7745 100.71 15.8621C100.71 15.9321 100.701 16.0109 100.683 16.0985H99.1602V15.7045C99.1602 15.3368 99.0726 14.9603 98.8975 14.5751C98.7399 14.1899 98.4073 13.866 97.8995 13.6034C97.4092 13.3232 96.6651 13.1831 95.667 13.1831C95.0892 13.1831 94.5902 13.2357 94.17 13.3407C93.7498 13.4458 93.3996 13.5946 93.1194 13.7872C92.8393 13.9623 92.6204 14.1899 92.4628 14.4701C92.3228 14.7502 92.2527 15.0829 92.2527 15.4681C92.2527 16.0284 92.4191 16.4574 92.7517 16.7551C93.1019 17.0352 93.5484 17.2628 94.0912 17.4379C94.634 17.5955 95.2118 17.7794 95.8246 17.9895C96.4375 18.1821 97.0503 18.3747 97.6631 18.5673C98.2759 18.7599 98.8362 18.9963 99.344 19.2764C99.8518 19.5566 100.254 19.9242 100.552 20.3795C100.867 20.8347 101.025 21.4301 101.025 22.1654C101.025 22.8308 100.885 23.4261 100.605 23.9514C100.342 24.4592 99.9743 24.8882 99.5016 25.2383C99.0288 25.5885 98.4598 25.8512 97.7944 26.0263C97.1466 26.2189 96.4375 26.3152 95.667 26.3152ZM103.19 30.5437V12.1851H104.345L104.529 14.26H104.713C105.221 13.437 105.842 12.833 106.578 12.4477C107.313 12.0625 108.145 11.8699 109.073 11.8699C110.246 11.8699 111.235 12.1238 112.041 12.6316C112.846 13.1394 113.468 13.936 113.905 15.0216C114.343 16.1072 114.562 17.5167 114.562 19.2501C114.562 20.861 114.334 22.1917 113.879 23.2423C113.441 24.2753 112.82 25.0457 112.014 25.5535C111.209 26.0613 110.237 26.3152 109.099 26.3152C108.574 26.3152 108.048 26.2451 107.523 26.1051C106.998 25.965 106.508 25.7374 106.052 25.4222C105.597 25.107 105.212 24.678 104.897 24.1353H104.713V30.5437H103.19ZM108.784 24.9757C109.694 24.9757 110.456 24.7919 111.069 24.4242C111.682 24.039 112.146 23.4436 112.461 22.6382C112.776 21.8153 112.934 20.7559 112.934 19.4603V18.7249C112.934 17.3241 112.759 16.2298 112.408 15.4419C112.076 14.6364 111.603 14.0674 110.99 13.7347C110.395 13.3845 109.712 13.2094 108.941 13.2094C107.961 13.2094 107.156 13.4283 106.525 13.866C105.895 14.3037 105.431 14.9428 105.133 15.7833C104.853 16.6237 104.713 17.648 104.713 18.8562V19.3552C104.713 20.5633 104.836 21.5351 105.081 22.2705C105.343 23.0059 105.676 23.575 106.079 23.9777C106.481 24.3629 106.919 24.6255 107.392 24.7656C107.865 24.9057 108.329 24.9757 108.784 24.9757Z" fill="#00DBFF"/>
<circle cx="23.5" cy="8.5" r="2.5" fill="#00DBFF"/>
</g>
<defs>
<clipPath id="clip0_1626_4715">
<rect width="118" height="34" fill="white"/>
</clipPath>
</defs>
</svg>
