<svg width="151" height="30" viewBox="0 0 151 30" fill="none" xmlns="http://www.w3.org/2000/svg">
<g clip-path="url(#clip0_1625_4707)">
<path d="M34.9961 24V5.98286H44.4774C45.8081 5.98286 46.9112 6.21048 47.7867 6.66573C48.6621 7.12097 49.3187 7.76882 49.7565 8.60927C50.1942 9.44972 50.4131 10.439 50.4131 11.5771C50.4131 12.7502 50.1504 13.792 49.6251 14.7025C49.0999 15.5955 48.3295 16.2696 47.3139 16.7249L51.0434 24H47.3139L44.0046 17.3027H38.4104V24H34.9961ZM38.4104 14.4399H44.2147C45.0902 14.4399 45.7643 14.186 46.2371 13.6782C46.7098 13.1705 46.9462 12.4701 46.9462 11.5771C46.9462 10.9993 46.8412 10.5178 46.631 10.1326C46.4209 9.72987 46.1145 9.42345 45.7118 9.21334C45.3091 9.00323 44.8101 8.89817 44.2147 8.89817H38.4104V14.4399ZM52.7452 8.05772V5.01109H55.9494V8.05772H52.7452ZM52.7452 24V10.1851H55.9494V24H52.7452ZM63.9587 24.3152C62.9607 24.3152 62.0852 24.2101 61.3323 24C60.5794 23.7724 59.9491 23.466 59.4413 23.0808C58.9336 22.6956 58.5484 22.2491 58.2857 21.7413C58.0406 21.216 57.918 20.647 57.918 20.0341C57.918 19.9466 57.918 19.8678 57.918 19.7978C57.9355 19.7277 57.9443 19.6752 57.9443 19.6402H61.096C61.096 19.6752 61.096 19.7102 61.096 19.7452C61.096 19.7802 61.096 19.8153 61.096 19.8503C61.1135 20.323 61.2623 20.7082 61.5425 21.0059C61.8226 21.286 62.1903 21.4874 62.6455 21.61C63.1008 21.7325 63.5823 21.7938 64.0901 21.7938C64.5453 21.7938 64.9743 21.75 65.377 21.6625C65.7972 21.5574 66.1387 21.3999 66.4013 21.1897C66.6815 20.9621 66.8215 20.6732 66.8215 20.323C66.8215 19.8678 66.6464 19.5176 66.2962 19.2725C65.9461 19.0273 65.4821 18.826 64.9043 18.6684C64.344 18.5108 63.7399 18.3445 63.092 18.1694C62.5142 18.0118 61.9364 17.8367 61.3586 17.6441C60.7808 17.4515 60.2555 17.2064 59.7828 16.9087C59.3275 16.611 58.9511 16.2258 58.6534 15.7531C58.3733 15.2803 58.2332 14.6938 58.2332 13.9934C58.2332 13.3105 58.382 12.7152 58.6797 12.2074C58.9773 11.6997 59.3888 11.2794 59.9141 10.9468C60.4394 10.5966 61.0609 10.3339 61.7788 10.1588C62.4967 9.98375 63.2759 9.89621 64.1163 9.89621C64.9393 9.89621 65.6834 9.98375 66.3488 10.1588C67.0316 10.3339 67.6182 10.5878 68.1085 10.9205C68.6162 11.2357 69.0014 11.6296 69.2641 12.1024C69.5442 12.5576 69.6843 13.0654 69.6843 13.6257C69.6843 13.7483 69.6756 13.8708 69.658 13.9934C69.658 14.116 69.658 14.186 69.658 14.2035H66.5326V14.0197C66.5326 13.687 66.4276 13.4068 66.2175 13.1792C66.0249 12.9341 65.7359 12.7415 65.3507 12.6014C64.983 12.4613 64.519 12.3913 63.9587 12.3913C63.5385 12.3913 63.1708 12.4263 62.8557 12.4963C62.5405 12.5664 62.2778 12.6627 62.0677 12.7853C61.8751 12.9078 61.7263 13.0479 61.6212 13.2055C61.5162 13.3631 61.4637 13.5382 61.4637 13.7308C61.4637 14.0634 61.595 14.3261 61.8576 14.5187C62.1203 14.7113 62.4705 14.8776 62.9082 15.0177C63.3634 15.1578 63.8537 15.3066 64.379 15.4642C65.0093 15.6393 65.6572 15.8231 66.3225 16.0157C66.9879 16.1908 67.6007 16.4184 68.161 16.6986C68.7388 16.9787 69.2028 17.3727 69.553 17.8805C69.9032 18.3882 70.0783 19.0624 70.0783 19.9028C70.0783 20.7082 69.9207 21.3999 69.6055 21.9777C69.3079 22.538 68.8789 22.9932 68.3186 23.3434C67.7758 23.6761 67.1279 23.9212 66.375 24.0788C65.6396 24.2364 64.8342 24.3152 63.9587 24.3152ZM70.0385 24L74.9761 16.8824L70.3799 10.1851H74.267L76.9984 14.4661H77.156L79.94 10.1851H83.5907L78.9682 16.8036L83.8534 24H80.0188L76.9459 19.2199H76.7883L73.6892 24H70.0385ZM89.5026 24V5.98286H92.0239L97.2505 19.1412C97.3555 19.4213 97.4606 19.719 97.5657 20.0341C97.6882 20.3493 97.7933 20.647 97.8808 20.9271C97.9859 21.1897 98.0647 21.4174 98.1172 21.61H98.2485C98.3361 21.3648 98.4324 21.0934 98.5374 20.7958C98.6425 20.4806 98.7475 20.1742 98.8526 19.8765C98.9576 19.5789 99.0364 19.3338 99.089 19.1412L104.316 5.98286H106.837V24H105.156V12.1812C105.156 11.866 105.156 11.4633 105.156 10.973C105.173 10.4828 105.182 9.99251 105.182 9.50224C105.2 8.99447 105.208 8.56549 105.208 8.21531H105.025C104.937 8.53047 104.841 8.84564 104.736 9.16081C104.648 9.45847 104.552 9.75613 104.447 10.0538C104.342 10.3514 104.237 10.6316 104.132 10.8942L98.8001 24H97.5394L92.2078 10.9205C92.1027 10.6579 91.9977 10.3865 91.8926 10.1063C91.7876 9.80866 91.6825 9.50224 91.5774 9.18708C91.4724 8.87191 91.3761 8.54798 91.2885 8.21531H91.1047C91.1222 8.54798 91.131 8.95945 91.131 9.44972C91.131 9.92247 91.1397 10.404 91.1572 10.8942C91.1747 11.3845 91.1835 11.8135 91.1835 12.1812V24H89.5026ZM114.785 24.3152C113.892 24.3152 113.104 24.2276 112.421 24.0525C111.738 23.8774 111.169 23.6235 110.714 23.2909C110.258 22.9407 109.908 22.5117 109.663 22.0039C109.436 21.4787 109.322 20.8833 109.322 20.218C109.322 20.1479 109.322 20.0691 109.322 19.9816C109.339 19.8941 109.348 19.8153 109.348 19.7452H110.871C110.854 19.8503 110.845 19.9378 110.845 20.0079C110.845 20.0604 110.845 20.1217 110.845 20.1917C110.845 20.9271 111.011 21.5049 111.344 21.9251C111.694 22.3279 112.176 22.608 112.789 22.7656C113.401 22.9232 114.111 23.002 114.916 23.002C115.616 23.002 116.238 22.9057 116.781 22.7131C117.323 22.5029 117.752 22.2053 118.068 21.8201C118.4 21.4349 118.567 20.9621 118.567 20.4018C118.567 19.7015 118.357 19.1762 117.936 18.826C117.534 18.4583 117.008 18.1781 116.36 17.9855C115.713 17.7754 115.038 17.5741 114.338 17.3815C113.795 17.2239 113.253 17.0575 112.71 16.8824C112.167 16.6898 111.677 16.4535 111.239 16.1733C110.819 15.8932 110.477 15.543 110.215 15.1228C109.952 14.685 109.821 14.1422 109.821 13.4944C109.821 12.9516 109.935 12.4613 110.162 12.0236C110.39 11.5683 110.714 11.1831 111.134 10.868C111.572 10.5353 112.097 10.2902 112.71 10.1326C113.34 9.95749 114.058 9.86994 114.863 9.86994C115.809 9.86994 116.597 9.975 117.227 10.1851C117.875 10.3952 118.383 10.6929 118.75 11.0781C119.136 11.4458 119.407 11.8485 119.565 12.2862C119.74 12.724 119.827 13.1792 119.827 13.652C119.827 13.7045 119.827 13.7745 119.827 13.8621C119.827 13.9321 119.819 14.0109 119.801 14.0985H118.278V13.7045C118.278 13.3368 118.19 12.9603 118.015 12.5751C117.858 12.1899 117.525 11.866 117.017 11.6034C116.527 11.3232 115.783 11.1831 114.785 11.1831C114.207 11.1831 113.708 11.2357 113.288 11.3407C112.867 11.4458 112.517 11.5946 112.237 11.7872C111.957 11.9623 111.738 12.1899 111.58 12.4701C111.44 12.7502 111.37 13.0829 111.37 13.4681C111.37 14.0284 111.537 14.4574 111.869 14.7551C112.219 15.0352 112.666 15.2628 113.209 15.4379C113.752 15.5955 114.329 15.7794 114.942 15.9895C115.555 16.1821 116.168 16.3747 116.781 16.5673C117.394 16.7599 117.954 16.9963 118.462 17.2764C118.969 17.5566 119.372 17.9242 119.67 18.3795C119.985 18.8347 120.142 19.4301 120.142 20.1654C120.142 20.8308 120.002 21.4261 119.722 21.9514C119.46 22.4592 119.092 22.8882 118.619 23.2383C118.146 23.5885 117.577 23.8512 116.912 24.0263C116.264 24.2189 115.555 24.3152 114.785 24.3152ZM126.667 24.3152C125.774 24.3152 124.986 24.2276 124.303 24.0525C123.62 23.8774 123.051 23.6235 122.596 23.2909C122.141 22.9407 121.791 22.5117 121.546 22.0039C121.318 21.4787 121.204 20.8833 121.204 20.218C121.204 20.1479 121.204 20.0691 121.204 19.9816C121.222 19.8941 121.23 19.8153 121.23 19.7452H122.754C122.736 19.8503 122.727 19.9378 122.727 20.0079C122.727 20.0604 122.727 20.1217 122.727 20.1917C122.727 20.9271 122.894 21.5049 123.226 21.9251C123.577 22.3279 124.058 22.608 124.671 22.7656C125.284 22.9232 125.993 23.002 126.798 23.002C127.499 23.002 128.12 22.9057 128.663 22.7131C129.206 22.5029 129.635 22.2053 129.95 21.8201C130.283 21.4349 130.449 20.9621 130.449 20.4018C130.449 19.7015 130.239 19.1762 129.819 18.826C129.416 18.4583 128.891 18.1781 128.243 17.9855C127.595 17.7754 126.921 17.5741 126.221 17.3815C125.678 17.2239 125.135 17.0575 124.592 16.8824C124.049 16.6898 123.559 16.4535 123.121 16.1733C122.701 15.8932 122.36 15.543 122.097 15.1228C121.834 14.685 121.703 14.1422 121.703 13.4944C121.703 12.9516 121.817 12.4613 122.045 12.0236C122.272 11.5683 122.596 11.1831 123.016 10.868C123.454 10.5353 123.979 10.2902 124.592 10.1326C125.223 9.95749 125.94 9.86994 126.746 9.86994C127.691 9.86994 128.479 9.975 129.11 10.1851C129.757 10.3952 130.265 10.6929 130.633 11.0781C131.018 11.4458 131.29 11.8485 131.447 12.2862C131.622 12.724 131.71 13.1792 131.71 13.652C131.71 13.7045 131.71 13.7745 131.71 13.8621C131.71 13.9321 131.701 14.0109 131.683 14.0985H130.16V13.7045C130.16 13.3368 130.073 12.9603 129.898 12.5751C129.74 12.1899 129.407 11.866 128.899 11.6034C128.409 11.3232 127.665 11.1831 126.667 11.1831C126.089 11.1831 125.59 11.2357 125.17 11.3407C124.75 11.4458 124.4 11.5946 124.119 11.7872C123.839 11.9623 123.62 12.1899 123.463 12.4701C123.323 12.7502 123.253 13.0829 123.253 13.4681C123.253 14.0284 123.419 14.4574 123.752 14.7551C124.102 15.0352 124.548 15.2628 125.091 15.4379C125.634 15.5955 126.212 15.7794 126.825 15.9895C127.437 16.1821 128.05 16.3747 128.663 16.5673C129.276 16.7599 129.836 16.9963 130.344 17.2764C130.852 17.5566 131.254 17.9242 131.552 18.3795C131.867 18.8347 132.025 19.4301 132.025 20.1654C132.025 20.8308 131.885 21.4261 131.605 21.9514C131.342 22.4592 130.974 22.8882 130.502 23.2383C130.029 23.5885 129.46 23.8512 128.794 24.0263C128.147 24.2189 127.437 24.3152 126.667 24.3152ZM134.19 28.5437V10.1851H135.345L135.529 12.26H135.713C136.221 11.437 136.842 10.833 137.578 10.4477C138.313 10.0625 139.145 9.86994 140.073 9.86994C141.246 9.86994 142.235 10.1238 143.041 10.6316C143.846 11.1394 144.468 11.936 144.905 13.0216C145.343 14.1072 145.562 15.5167 145.562 17.2501C145.562 18.861 145.334 20.1917 144.879 21.2423C144.441 22.2753 143.82 23.0457 143.014 23.5535C142.209 24.0613 141.237 24.3152 140.099 24.3152C139.574 24.3152 139.048 24.2451 138.523 24.1051C137.998 23.965 137.508 23.7374 137.052 23.4222C136.597 23.107 136.212 22.678 135.897 22.1353H135.713V28.5437H134.19ZM139.784 22.9757C140.694 22.9757 141.456 22.7919 142.069 22.4242C142.682 22.039 143.146 21.4436 143.461 20.6382C143.776 19.8153 143.934 18.7559 143.934 17.4603V16.7249C143.934 15.3241 143.759 14.2298 143.408 13.4419C143.076 12.6364 142.603 12.0674 141.99 11.7347C141.395 11.3845 140.712 11.2094 139.941 11.2094C138.961 11.2094 138.156 11.4283 137.525 11.866C136.895 12.3037 136.431 12.9428 136.133 13.7833C135.853 14.6237 135.713 15.648 135.713 16.8562V17.3552C135.713 18.5633 135.836 19.5351 136.081 20.2705C136.343 21.0059 136.676 21.575 137.079 21.9777C137.481 22.3629 137.919 22.6255 138.392 22.7656C138.865 22.9057 139.329 22.9757 139.784 22.9757Z" fill="#00DBFF"/>
<path d="M14.9283 1C7.19604 1.04308 0.964278 7.33945 1.00018 15.0717C1.04325 22.804 7.33963 29.0357 15.0719 28.9998C22.8042 28.9639 29.0359 22.6604 29 14.9281C28.9641 7.2533 22.7467 1.04308 15.0719 1H14.9283Z" stroke="#00DBFF" stroke-width="2"/>
<path d="M1 15.0164L29.0335 15.0164M15.0168 1.62258L15.0168 28.4102M6.39106 25.388C11.0274 19.1856 11.0274 10.8471 6.39106 4.64476M23.6425 4.64476C19.0061 10.8471 19.0061 19.1856 23.6425 25.388M1.3594 16.0467C7.76398 23.293 19.0996 24.2066 26.683 18.0866C27.4521 17.4685 28.1638 16.7816 28.8179 16.0467M28.8179 13.9861C22.4133 6.73969 11.0777 5.82617 3.49426 11.9461C2.72514 12.5711 2.00633 13.2511 1.3594 13.9861" stroke="#00DBFF" stroke-width="1.99"/>
<circle cx="54.5" cy="6.5" r="2.5" fill="#00DBFF"/>
<path d="M18 15C18 16.6569 16.6569 18 15 18C13.3431 18 12 16.6569 12 15C12 13.3431 13.3431 12 15 12C16.6569 12 18 13.3431 18 15Z" fill="#00DBFF"/>
</g>
<defs>
<clipPath id="clip0_1625_4707">
<rect width="151" height="30" fill="white"/>
</clipPath>
</defs>
</svg>
