<svg width="113" height="50" viewBox="0 0 113 50" fill="none" xmlns="http://www.w3.org/2000/svg">
<g clip-path="url(#clip0_1627_4734)">
<path d="M24.8822 2C12.1792 2.07077 1.94128 12.4148 2.00025 25.1178C2.07102 37.8208 12.4151 48.0587 25.1181 47.9997C37.8211 47.9408 48.059 37.5849 48 24.8819C47.941 12.2733 37.7267 2.07077 25.1181 2H24.8822Z" stroke="#00DBFF" stroke-width="3"/>
<path d="M48 24.8654L2.23522 24.8654M25.1176 46.7308L25.1176 3M39.1991 7.93373C31.6303 18.0591 31.6303 31.6717 39.1991 41.7971M11.0361 41.7971C18.6049 31.6717 18.6049 18.0591 11.0361 7.93373M47.4133 23.1834C36.9578 11.3537 18.4524 9.86237 6.07243 19.8532C4.81684 20.8623 3.65511 21.9836 2.58726 23.1834M2.58726 26.5473C13.0428 38.3771 31.5482 39.8684 43.9281 29.8776C45.1837 28.8572 46.3572 27.7471 47.4133 26.5473" stroke="#00DBFF" stroke-width="1.59135"/>
<path d="M54.7147 22.5522V4.53511H64.196C65.5267 4.53511 66.6298 4.76273 67.5053 5.21797C68.3808 5.67322 69.0374 6.32106 69.4751 7.16151C69.9128 8.00196 70.1317 8.99124 70.1317 10.1294C70.1317 11.3025 69.8691 12.3443 69.3438 13.2548C68.8185 14.1478 68.0481 14.8219 67.0326 15.2771L70.762 22.5522H67.0326L63.7233 15.8549H58.129V22.5522H54.7147ZM58.129 12.9921H63.9334C64.8089 12.9921 65.483 12.7382 65.9557 12.2305C66.4285 11.7227 66.6649 11.0223 66.6649 10.1294C66.6649 9.55154 66.5598 9.07003 66.3497 8.68483C66.1396 8.28211 65.8332 7.9757 65.4304 7.76559C65.0277 7.55547 64.5287 7.45042 63.9334 7.45042H58.129V12.9921ZM72.4639 6.60997V3.56334H75.6681V6.60997H72.4639ZM72.4639 22.5522V8.73736H75.6681V22.5522H72.4639ZM83.6774 22.8674C82.6794 22.8674 81.8039 22.7624 81.051 22.5522C80.2981 22.3246 79.6677 22.0182 79.16 21.633C78.6522 21.2478 78.267 20.8013 78.0044 20.2935C77.7592 19.7683 77.6367 19.1992 77.6367 18.5864C77.6367 18.4988 77.6367 18.42 77.6367 18.35C77.6542 18.28 77.6629 18.2274 77.6629 18.1924H80.8146C80.8146 18.2274 80.8146 18.2625 80.8146 18.2975C80.8146 18.3325 80.8146 18.3675 80.8146 18.4025C80.8321 18.8753 80.9809 19.2605 81.2611 19.5581C81.5412 19.8383 81.9089 20.0397 82.3642 20.1622C82.8194 20.2848 83.3009 20.3461 83.8087 20.3461C84.264 20.3461 84.6929 20.3023 85.0956 20.2147C85.5159 20.1097 85.8573 19.9521 86.1199 19.742C86.4001 19.5144 86.5402 19.2255 86.5402 18.8753C86.5402 18.42 86.3651 18.0698 86.0149 17.8247C85.6647 17.5796 85.2007 17.3782 84.6229 17.2206C84.0626 17.0631 83.4585 16.8967 82.8107 16.7216C82.2329 16.564 81.6551 16.3889 81.0773 16.1963C80.4994 16.0037 79.9742 15.7586 79.5014 15.461C79.0462 15.1633 78.6697 14.7781 78.3721 14.3053C78.0919 13.8326 77.9518 13.246 77.9518 12.5456C77.9518 11.8628 78.1007 11.2675 78.3983 10.7597C78.696 10.2519 79.1074 9.83169 79.6327 9.49901C80.158 9.14883 80.7796 8.88619 81.4975 8.71109C82.2154 8.536 82.9945 8.44845 83.835 8.44845C84.6579 8.44845 85.4021 8.536 86.0674 8.71109C86.7503 8.88619 87.3368 9.14007 87.8271 9.47275C88.3349 9.78792 88.7201 10.1819 88.9827 10.6546C89.2629 11.1099 89.403 11.6176 89.403 12.1779C89.403 12.3005 89.3942 12.4231 89.3767 12.5456C89.3767 12.6682 89.3767 12.7382 89.3767 12.7558H86.2513V12.5719C86.2513 12.2392 86.1462 11.9591 85.9361 11.7315C85.7435 11.4863 85.4546 11.2937 85.0694 11.1536C84.7017 11.0136 84.2377 10.9435 83.6774 10.9435C83.2572 10.9435 82.8895 10.9786 82.5743 11.0486C82.2591 11.1186 81.9965 11.2149 81.7864 11.3375C81.5938 11.4601 81.4449 11.6001 81.3399 11.7577C81.2348 11.9153 81.1823 12.0904 81.1823 12.283C81.1823 12.6157 81.3136 12.8783 81.5763 13.0709C81.8389 13.2635 82.1891 13.4299 82.6268 13.5699C83.0821 13.71 83.5723 13.8588 84.0976 14.0164C84.728 14.1915 85.3758 14.3754 86.0412 14.568C86.7065 14.7431 87.3193 14.9707 87.8796 15.2508C88.4574 15.531 88.9214 15.925 89.2716 16.4327C89.6218 16.9405 89.7969 17.6146 89.7969 18.4551C89.7969 19.2605 89.6393 19.9521 89.3242 20.5299C89.0265 21.0902 88.5975 21.5455 88.0372 21.8956C87.4944 22.2283 86.8466 22.4735 86.0937 22.631C85.3583 22.7886 84.5529 22.8674 83.6774 22.8674ZM89.7571 22.5522L94.6948 15.4347L90.0985 8.73736H93.9856L96.7171 13.0184H96.8747L99.6587 8.73736H103.309L98.6869 15.3559L103.572 22.5522H99.7374L96.6646 17.7722H96.507L93.4078 22.5522H89.7571ZM55.2137 45.5522V27.5351H57.7351L62.9616 40.6934C63.0667 40.9735 63.1717 41.2712 63.2768 41.5864C63.3994 41.9015 63.5044 42.1992 63.592 42.4794C63.697 42.742 63.7758 42.9696 63.8283 43.1622H63.9597C64.0472 42.9171 64.1435 42.6457 64.2486 42.348C64.3536 42.0329 64.4587 41.7264 64.5637 41.4288C64.6688 41.1311 64.7476 40.886 64.8001 40.6934L70.0267 27.5351H72.548V45.5522H70.8671V33.7334C70.8671 33.4183 70.8671 33.0155 70.8671 32.5253C70.8846 32.035 70.8934 31.5448 70.8934 31.0545C70.9109 30.5467 70.9196 30.1177 70.9196 29.7676H70.7358C70.6482 30.0827 70.5519 30.3979 70.4469 30.7131C70.3593 31.0107 70.263 31.3084 70.158 31.606C70.0529 31.9037 69.9479 32.1838 69.8428 32.4465L64.5112 45.5522H63.2505L57.9189 32.4727C57.8139 32.2101 57.7088 31.9387 57.6038 31.6586C57.4987 31.3609 57.3936 31.0545 57.2886 30.7393C57.1835 30.4242 57.0872 30.1002 56.9997 29.7676H56.8158C56.8333 30.1002 56.8421 30.5117 56.8421 31.002C56.8421 31.4747 56.8509 31.9562 56.8684 32.4465C56.8859 32.9367 56.8946 33.3657 56.8946 33.7334V45.5522H55.2137ZM80.4957 45.8674C79.6028 45.8674 78.8148 45.7799 78.132 45.6048C77.4491 45.4297 76.8801 45.1758 76.4248 44.8431C75.9696 44.4929 75.6194 44.0639 75.3743 43.5562C75.1466 43.0309 75.0328 42.4356 75.0328 41.7702C75.0328 41.7002 75.0328 41.6214 75.0328 41.5338C75.0503 41.4463 75.0591 41.3675 75.0591 41.2975H76.5824C76.5649 41.4025 76.5561 41.4901 76.5561 41.5601C76.5561 41.6126 76.5561 41.6739 76.5561 41.744C76.5561 42.4794 76.7225 43.0572 77.0552 43.4774C77.4053 43.8801 77.8869 44.1603 78.4997 44.3178C79.1125 44.4754 79.8216 44.5542 80.6271 44.5542C81.3274 44.5542 81.949 44.4579 82.4918 44.2653C83.0346 44.0552 83.4636 43.7575 83.7788 43.3723C84.1114 42.9871 84.2778 42.5144 84.2778 41.9541C84.2778 41.2537 84.0677 40.7284 83.6474 40.3782C83.2447 40.0105 82.7194 39.7304 82.0716 39.5378C81.4237 39.3277 80.7496 39.1263 80.0493 38.9337C79.5065 38.7761 78.9637 38.6098 78.4209 38.4347C77.8781 38.2421 77.3878 38.0057 76.9501 37.7256C76.5299 37.4454 76.1884 37.0952 75.9258 36.675C75.6632 36.2373 75.5318 35.6945 75.5318 35.0466C75.5318 34.5038 75.6457 34.0136 75.8733 33.5758C76.1009 33.1206 76.4248 32.7354 76.845 32.4202C77.2828 32.0875 77.8081 31.8424 78.4209 31.6848C79.0512 31.5097 79.7691 31.4222 80.5745 31.4222C81.52 31.4222 82.308 31.5272 82.9383 31.7374C83.5862 31.9475 84.0939 32.2451 84.4616 32.6303C84.8468 32.998 85.1182 33.4007 85.2758 33.8385C85.4509 34.2762 85.5384 34.7315 85.5384 35.2042C85.5384 35.2567 85.5384 35.3268 85.5384 35.4143C85.5384 35.4844 85.5297 35.5632 85.5122 35.6507H83.9889V35.2567C83.9889 34.889 83.9013 34.5126 83.7262 34.1274C83.5686 33.7422 83.236 33.4183 82.7282 33.1556C82.2379 32.8755 81.4938 32.7354 80.4957 32.7354C79.9179 32.7354 79.4189 32.7879 78.9987 32.893C78.5785 32.998 78.2283 33.1469 77.9481 33.3395C77.668 33.5146 77.4491 33.7422 77.2915 34.0223C77.1515 34.3025 77.0814 34.6352 77.0814 35.0204C77.0814 35.5807 77.2478 36.0096 77.5804 36.3073C77.9306 36.5874 78.3771 36.8151 78.9199 36.9902C79.4627 37.1478 80.0405 37.3316 80.6533 37.5417C81.2662 37.7343 81.879 37.9269 82.4918 38.1195C83.1046 38.3121 83.6649 38.5485 84.1727 38.8286C84.6805 39.1088 85.0832 39.4765 85.3809 39.9317C85.696 40.387 85.8536 40.9823 85.8536 41.7177C85.8536 42.3831 85.7135 42.9784 85.4334 43.5037C85.1707 44.0114 84.8031 44.4404 84.3303 44.7906C83.8575 45.1408 83.2885 45.4034 82.6231 45.5785C81.9753 45.7711 81.2662 45.8674 80.4957 45.8674ZM92.3782 45.8674C91.4852 45.8674 90.6973 45.7799 90.0144 45.6048C89.3315 45.4297 88.7625 45.1758 88.3073 44.8431C87.852 44.4929 87.5018 44.0639 87.2567 43.5562C87.0291 43.0309 86.9153 42.4356 86.9153 41.7702C86.9153 41.7002 86.9153 41.6214 86.9153 41.5338C86.9328 41.4463 86.9415 41.3675 86.9415 41.2975H88.4648C88.4473 41.4025 88.4386 41.4901 88.4386 41.5601C88.4386 41.6126 88.4386 41.6739 88.4386 41.744C88.4386 42.4794 88.6049 43.0572 88.9376 43.4774C89.2878 43.8801 89.7693 44.1603 90.3821 44.3178C90.9949 44.4754 91.7041 44.5542 92.5095 44.5542C93.2099 44.5542 93.8315 44.4579 94.3742 44.2653C94.917 44.0552 95.346 43.7575 95.6612 43.3723C95.9939 42.9871 96.1602 42.5144 96.1602 41.9541C96.1602 41.2537 95.9501 40.7284 95.5299 40.3782C95.1271 40.0105 94.6019 39.7304 93.954 39.5378C93.3062 39.3277 92.6321 39.1263 91.9317 38.9337C91.3889 38.7761 90.8461 38.6098 90.3033 38.4347C89.7605 38.2421 89.2703 38.0057 88.8325 37.7256C88.4123 37.4454 88.0709 37.0952 87.8082 36.675C87.5456 36.2373 87.4143 35.6945 87.4143 35.0466C87.4143 34.5038 87.5281 34.0136 87.7557 33.5758C87.9833 33.1206 88.3073 32.7354 88.7275 32.4202C89.1652 32.0875 89.6905 31.8424 90.3033 31.6848C90.9337 31.5097 91.6515 31.4222 92.457 31.4222C93.4025 31.4222 94.1904 31.5272 94.8207 31.7374C95.4686 31.9475 95.9764 32.2451 96.3441 32.6303C96.7293 32.998 97.0007 33.4007 97.1582 33.8385C97.3333 34.2762 97.4209 34.7315 97.4209 35.2042C97.4209 35.2567 97.4209 35.3268 97.4209 35.4143C97.4209 35.4844 97.4121 35.5632 97.3946 35.6507H95.8713V35.2567C95.8713 34.889 95.7838 34.5126 95.6087 34.1274C95.4511 33.7422 95.1184 33.4183 94.6106 33.1556C94.1204 32.8755 93.3762 32.7354 92.3782 32.7354C91.8004 32.7354 91.3014 32.7879 90.8811 32.893C90.4609 32.998 90.1107 33.1469 89.8306 33.3395C89.5504 33.5146 89.3315 33.7422 89.174 34.0223C89.0339 34.3025 88.9639 34.6352 88.9639 35.0204C88.9639 35.5807 89.1302 36.0096 89.4629 36.3073C89.8131 36.5874 90.2595 36.8151 90.8023 36.9902C91.3451 37.1478 91.9229 37.3316 92.5358 37.5417C93.1486 37.7343 93.7614 37.9269 94.3742 38.1195C94.9871 38.3121 95.5474 38.5485 96.0551 38.8286C96.5629 39.1088 96.9656 39.4765 97.2633 39.9317C97.5785 40.387 97.736 40.9823 97.736 41.7177C97.736 42.3831 97.596 42.9784 97.3158 43.5037C97.0532 44.0114 96.6855 44.4404 96.2127 44.7906C95.74 45.1408 95.1709 45.4034 94.5056 45.5785C93.8577 45.7711 93.1486 45.8674 92.3782 45.8674ZM99.9008 50.0959V31.7374H101.056L101.24 33.8122H101.424C101.932 32.9893 102.553 32.3852 103.289 32C104.024 31.6148 104.856 31.4222 105.784 31.4222C106.957 31.4222 107.946 31.6761 108.752 32.1838C109.557 32.6916 110.179 33.4883 110.617 34.5739C111.054 35.6595 111.273 37.069 111.273 38.8024C111.273 40.4132 111.045 41.744 110.59 42.7945C110.153 43.8276 109.531 44.598 108.725 45.1058C107.92 45.6135 106.948 45.8674 105.81 45.8674C105.285 45.8674 104.76 45.7974 104.234 45.6573C103.709 45.5172 103.219 45.2896 102.764 44.9744C102.308 44.6593 101.923 44.2303 101.608 43.6875H101.424V50.0959H99.9008ZM105.495 44.5279C106.406 44.5279 107.167 44.3441 107.78 43.9764C108.393 43.5912 108.857 42.9959 109.172 42.1904C109.487 41.3675 109.645 40.3082 109.645 39.0125V38.2771C109.645 36.8764 109.47 35.782 109.119 34.9941C108.787 34.1887 108.314 33.6196 107.701 33.2869C107.106 32.9367 106.423 32.7617 105.653 32.7617C104.672 32.7617 103.867 32.9805 103.236 33.4183C102.606 33.856 102.142 34.4951 101.844 35.3355C101.564 36.176 101.424 37.2003 101.424 38.4084V38.9074C101.424 40.1156 101.547 41.0874 101.792 41.8228C102.054 42.5581 102.387 43.1272 102.79 43.5299C103.193 43.9151 103.63 44.1778 104.103 44.3178C104.576 44.4579 105.04 44.5279 105.495 44.5279Z" fill="#00DBFF"/>
<circle cx="74.0436" cy="4.84336" r="2.54356" fill="#00DBFF"/>
<path d="M29 25C29 27.2091 27.2091 29 25 29C22.7909 29 21 27.2091 21 25C21 22.7909 22.7909 21 25 21C27.2091 21 29 22.7909 29 25Z" fill="#00DBFF"/>
</g>
<defs>
<clipPath id="clip0_1627_4734">
<rect width="113" height="50" fill="white"/>
</clipPath>
</defs>
</svg>
