<svg width="410" height="90" viewBox="0 0 410 90" fill="none" xmlns="http://www.w3.org/2000/svg">
<g clip-path="url(#clip0_1520_4698)">
<path d="M42.5056 62.2586V18.6094H46.2102V5C28.38 5.25451 14 19.7689 14 37.6556C14 55.5422 28.38 70.0566 46.2102 70.3111V70.1132L42.5056 62.2586Z" fill="#0071BC"/>
<path d="M51.3498 18.9204V62.2585L47.3553 70.7211V84.1467C65.242 83.8922 79.6715 69.3283 79.6715 51.378C79.6786 34.7851 67.3418 21.0979 51.3498 18.9204Z" fill="#84D3EF"/>
<path d="M108.012 35.4V41.1246H89.3314V35.4H108.012ZM94.3329 27.3856H102.317V58.5996C102.317 59.5638 102.448 60.307 102.709 60.8292C102.97 61.3515 103.362 61.703 103.884 61.8837C104.406 62.0645 105.029 62.1549 105.752 62.1549C106.274 62.1549 106.756 62.1248 107.198 62.0645C107.64 62.0043 108.012 61.944 108.313 61.8837L108.343 67.8494C107.68 68.0703 106.927 68.2511 106.083 68.3917C105.26 68.5323 104.326 68.6026 103.281 68.6026C101.494 68.6026 99.9269 68.3013 98.5811 67.6987C97.2354 67.076 96.1909 66.0818 95.4477 64.7159C94.7045 63.3299 94.3329 61.5021 94.3329 59.2324V27.3856ZM121.751 35.4V68H113.766V35.4H121.751ZM113.224 26.8734C113.224 25.6883 113.626 24.7041 114.429 23.9207C115.253 23.1374 116.357 22.7457 117.743 22.7457C119.129 22.7457 120.224 23.1374 121.028 23.9207C121.851 24.7041 122.263 25.6883 122.263 26.8734C122.263 28.0384 121.851 29.0126 121.028 29.796C120.224 30.5793 119.129 30.971 117.743 30.971C116.357 30.971 115.253 30.5793 114.429 29.796C113.626 29.0126 113.224 28.0384 113.224 26.8734ZM137.267 42.0887V68H129.313V35.4H136.815L137.267 42.0887ZM136.092 50.525H133.652C133.652 48.2552 133.923 46.1663 134.465 44.2581C135.028 42.3499 135.851 40.6927 136.936 39.2867C138.02 37.8606 139.356 36.7558 140.943 35.9725C142.55 35.1891 144.408 34.7974 146.517 34.7974C147.983 34.7974 149.329 35.0184 150.554 35.4603C151.78 35.8821 152.834 36.555 153.718 37.479C154.622 38.3828 155.315 39.5679 155.797 41.0342C156.279 42.4804 156.52 44.2179 156.52 46.2466V68H148.566V47.0601C148.566 45.5335 148.345 44.3384 147.903 43.4747C147.481 42.611 146.868 42.0084 146.065 41.6669C145.262 41.3054 144.297 41.1246 143.173 41.1246C141.927 41.1246 140.853 41.3757 139.949 41.8778C139.065 42.3599 138.332 43.0328 137.749 43.8965C137.187 44.7602 136.765 45.7545 136.484 46.8793C136.223 48.0041 136.092 49.2194 136.092 50.525ZM155.917 49.0486L152.633 49.6512C152.653 47.6024 152.935 45.6842 153.477 43.8965C154.019 42.0887 154.813 40.512 155.857 39.1662C156.922 37.8003 158.237 36.7358 159.804 35.9725C161.391 35.1891 163.219 34.7974 165.288 34.7974C166.894 34.7974 168.341 35.0284 169.626 35.4904C170.932 35.9323 172.047 36.6454 172.971 37.6296C173.895 38.5937 174.598 39.8491 175.08 41.3958C175.582 42.9424 175.833 44.8305 175.833 47.0601V68H167.818V47.03C167.818 45.4431 167.597 44.2279 167.156 43.3843C166.734 42.5407 166.121 41.9582 165.318 41.6368C164.514 41.2953 163.57 41.1246 162.486 41.1246C161.381 41.1246 160.417 41.3355 159.593 41.7573C158.79 42.159 158.107 42.7215 157.544 43.4446C157.002 44.1677 156.59 45.0113 156.309 45.9754C156.048 46.9195 155.917 47.9439 155.917 49.0486ZM197.616 68.6026C195.146 68.6026 192.926 68.2009 190.958 67.3974C188.989 66.594 187.312 65.4792 185.926 64.0531C184.56 62.6068 183.506 60.9296 182.763 59.0214C182.039 57.0932 181.678 55.0243 181.678 52.8148V51.6096C181.678 49.0988 182.039 46.8191 182.763 44.7703C183.486 42.7014 184.51 40.9237 185.836 39.4374C187.161 37.951 188.748 36.8061 190.596 36.0026C192.444 35.1992 194.483 34.7974 196.712 34.7974C199.022 34.7974 201.061 35.1891 202.829 35.9725C204.596 36.7358 206.073 37.8204 207.258 39.2265C208.443 40.6325 209.337 42.3197 209.939 44.2882C210.542 46.2366 210.843 48.3958 210.843 50.766V54.1104H185.293V48.6268H203.01V48.0242C202.969 46.7588 202.728 45.6038 202.286 44.5594C201.845 43.4948 201.162 42.6512 200.238 42.0285C199.314 41.3857 198.119 41.0643 196.652 41.0643C195.467 41.0643 194.433 41.3255 193.549 41.8477C192.685 42.3499 191.962 43.073 191.38 44.017C190.817 44.941 190.395 46.0457 190.114 47.3313C189.833 48.6168 189.692 50.0429 189.692 51.6096V52.8148C189.692 54.1807 189.873 55.4461 190.235 56.6111C190.616 57.7761 191.169 58.7905 191.892 59.6542C192.635 60.4978 193.519 61.1606 194.543 61.6427C195.588 62.1047 196.773 62.3357 198.098 62.3357C199.766 62.3357 201.272 62.0143 202.618 61.3715C203.984 60.7087 205.169 59.7345 206.173 58.449L210.18 62.6068C209.497 63.6112 208.573 64.5753 207.408 65.4993C206.264 66.4232 204.878 67.1765 203.251 67.759C201.624 68.3214 199.746 68.6026 197.616 68.6026ZM234.103 59.0817C234.103 58.3988 233.922 57.7861 233.561 57.2438C233.199 56.7015 232.516 56.2094 231.512 55.7675C230.528 55.3055 229.081 54.8736 227.173 54.4719C225.486 54.1104 223.929 53.6584 222.503 53.1161C221.077 52.5738 219.852 51.921 218.827 51.1577C217.803 50.3743 217 49.4604 216.417 48.4159C215.855 47.3513 215.573 46.1261 215.573 44.7401C215.573 43.3943 215.865 42.1289 216.447 40.9438C217.03 39.7387 217.873 38.6841 218.978 37.7802C220.083 36.8563 221.429 36.1332 223.015 35.6109C224.602 35.0686 226.39 34.7974 228.378 34.7974C231.15 34.7974 233.531 35.2494 235.519 36.1533C237.528 37.0571 239.064 38.3025 240.129 39.8893C241.193 41.456 241.726 43.2236 241.726 45.1921H233.772C233.772 44.3284 233.571 43.545 233.169 42.842C232.787 42.139 232.195 41.5765 231.391 41.1547C230.588 40.7128 229.574 40.4919 228.348 40.4919C227.244 40.4919 226.31 40.6727 225.546 41.0342C224.803 41.3958 224.241 41.8678 223.859 42.4503C223.477 43.0328 223.287 43.6756 223.287 44.3786C223.287 44.9008 223.387 45.3728 223.588 45.7947C223.809 46.1964 224.16 46.568 224.642 46.9094C225.124 47.2509 225.777 47.5622 226.601 47.8435C227.444 48.1247 228.479 48.3958 229.704 48.6569C232.135 49.139 234.254 49.7818 236.061 50.5852C237.889 51.3686 239.315 52.4131 240.34 53.7187C241.364 55.0243 241.876 56.6914 241.876 58.7202C241.876 60.1664 241.565 61.4921 240.942 62.6972C240.32 63.8823 239.416 64.9168 238.231 65.8006C237.046 66.6844 235.63 67.3773 233.983 67.8795C232.335 68.3616 230.477 68.6026 228.409 68.6026C225.416 68.6026 222.885 68.0703 220.816 67.0057C218.747 65.9211 217.18 64.5552 216.116 62.9081C215.051 61.241 214.519 59.5136 214.519 57.7259H222.142C222.202 58.9913 222.543 60.0057 223.166 60.769C223.789 61.5322 224.572 62.0846 225.516 62.4261C226.48 62.7474 227.495 62.9081 228.559 62.9081C229.764 62.9081 230.779 62.7474 231.602 62.4261C232.426 62.0846 233.049 61.6327 233.47 61.0702C233.892 60.4877 234.103 59.8249 234.103 59.0817ZM255.887 21.6912V68H247.932V21.6912H255.887ZM276.314 35.4L262.123 51.3385L254.44 59.142L251.909 52.9654L257.845 45.4934L266.703 35.4H276.314ZM268.179 68L258.086 52.8148L263.389 47.6627L277.399 68H268.179ZM294.573 68.6026C292.102 68.6026 289.883 68.2009 287.914 67.3974C285.946 66.594 284.268 65.4792 282.882 64.0531C281.517 62.6068 280.462 60.9296 279.719 59.0214C278.996 57.0932 278.634 55.0243 278.634 52.8148V51.6096C278.634 49.0988 278.996 46.8191 279.719 44.7703C280.442 42.7014 281.466 40.9237 282.792 39.4374C284.118 37.951 285.705 36.8061 287.553 36.0026C289.4 35.1992 291.439 34.7974 293.669 34.7974C295.979 34.7974 298.017 35.1891 299.785 35.9725C301.553 36.7358 303.029 37.8204 304.214 39.2265C305.399 40.6325 306.293 42.3197 306.896 44.2882C307.498 46.2366 307.799 48.3958 307.799 50.766V54.1104H282.25V48.6268H299.966V48.0242C299.926 46.7588 299.685 45.6038 299.243 44.5594C298.801 43.4948 298.118 42.6512 297.194 42.0285C296.27 41.3857 295.075 41.0643 293.609 41.0643C292.423 41.0643 291.389 41.3255 290.505 41.8477C289.642 42.3499 288.918 43.073 288.336 44.017C287.773 44.941 287.352 46.0457 287.07 47.3313C286.789 48.6168 286.649 50.0429 286.649 51.6096V52.8148C286.649 54.1807 286.829 55.4461 287.191 56.6111C287.573 57.7761 288.125 58.7905 288.848 59.6542C289.591 60.4978 290.475 61.1606 291.499 61.6427C292.544 62.1047 293.729 62.3357 295.055 62.3357C296.722 62.3357 298.228 62.0143 299.574 61.3715C300.94 60.7087 302.125 59.7345 303.129 58.449L307.137 62.6068C306.454 63.6112 305.53 64.5753 304.365 65.4993C303.22 66.4232 301.834 67.1765 300.207 67.759C298.58 68.3214 296.702 68.6026 294.573 68.6026ZM328.559 35.4V41.1246H309.878V35.4H328.559ZM314.88 27.3856H322.864V58.5996C322.864 59.5638 322.995 60.307 323.256 60.8292C323.517 61.3515 323.909 61.703 324.431 61.8837C324.953 62.0645 325.576 62.1549 326.299 62.1549C326.821 62.1549 327.303 62.1248 327.745 62.0645C328.187 62.0043 328.559 61.944 328.86 61.8837L328.89 67.8494C328.227 68.0703 327.474 68.2511 326.63 68.3917C325.807 68.5323 324.873 68.6026 323.828 68.6026C322.041 68.6026 320.474 68.3013 319.128 67.6987C317.782 67.076 316.738 66.0818 315.995 64.7159C315.251 63.3299 314.88 61.5021 314.88 59.2324V27.3856ZM347.239 62.3357C348.364 62.3357 349.368 62.1147 350.252 61.6728C351.136 61.2309 351.839 60.6083 352.361 59.8048C352.903 59.0014 353.194 58.0674 353.235 57.0028H360.737C360.697 59.2123 360.074 61.1908 358.869 62.9383C357.664 64.6858 356.057 66.0717 354.048 67.0961C352.06 68.1004 349.83 68.6026 347.359 68.6026C344.849 68.6026 342.659 68.1808 340.791 67.3372C338.923 66.4935 337.366 65.3185 336.121 63.812C334.896 62.3055 333.972 60.558 333.349 58.5695C332.747 56.581 332.445 54.4518 332.445 52.1821V51.2179C332.445 48.9482 332.747 46.8191 333.349 44.8305C333.972 42.842 334.896 41.0945 336.121 39.588C337.366 38.0815 338.923 36.9065 340.791 36.0629C342.659 35.2192 344.838 34.7974 347.329 34.7974C349.96 34.7974 352.27 35.3096 354.259 36.334C356.268 37.3584 357.834 38.8046 358.959 40.6727C360.104 42.5407 360.697 44.7401 360.737 47.271H353.235C353.194 46.106 352.933 45.0615 352.451 44.1375C351.969 43.2136 351.286 42.4704 350.402 41.908C349.519 41.3456 348.444 41.0643 347.179 41.0643C345.833 41.0643 344.708 41.3456 343.804 41.908C342.92 42.4704 342.227 43.2437 341.725 44.2279C341.243 45.1921 340.902 46.2767 340.701 47.4819C340.52 48.667 340.43 49.9123 340.43 51.2179V52.1821C340.43 53.5078 340.52 54.7732 340.701 55.9784C340.902 57.1836 341.243 58.2682 341.725 59.2324C342.227 60.1764 342.92 60.9296 343.804 61.4921C344.708 62.0545 345.853 62.3357 347.239 62.3357ZM373.843 21.7213V68H365.859V21.7213H373.843ZM372.578 50.525H370.228C370.228 48.2552 370.529 46.1663 371.131 44.2581C371.734 42.3499 372.588 40.6927 373.692 39.2867C374.797 37.8606 376.113 36.7558 377.639 35.9725C379.186 35.1891 380.893 34.7974 382.761 34.7974C384.368 34.7974 385.824 35.0284 387.13 35.4904C388.456 35.9323 389.591 36.6454 390.535 37.6296C391.479 38.6138 392.202 39.8993 392.704 41.4862C393.226 43.0529 393.487 44.9611 393.487 47.2107V68H385.473V47.1505C385.473 45.644 385.252 44.4589 384.81 43.5952C384.368 42.7114 383.736 42.0787 382.912 41.6971C382.109 41.3154 381.114 41.1246 379.929 41.1246C378.644 41.1246 377.539 41.3757 376.615 41.8778C375.691 42.3599 374.928 43.0328 374.325 43.8965C373.743 44.7602 373.301 45.7545 372.999 46.8793C372.718 48.0041 372.578 49.2194 372.578 50.525Z" fill="#E6E6E6"/>
</g>
<defs>
<clipPath id="clip0_1520_4698">
<rect width="410" height="90" fill="white"/>
</clipPath>
</defs>
</svg>
