<svg width="258" height="90" viewBox="0 0 258 90" fill="none" xmlns="http://www.w3.org/2000/svg">
<path d="M146.34 37.6048C149.509 36.4355 151.547 33.8629 151.547 29.6532C151.547 23.8065 147.019 21 141.585 21H128V50H133.887V38.3065H140.226L145.208 49.7661H152L146.34 37.6048ZM134.113 33.3952V25.6774H141.585C144.075 25.6774 145.66 26.8468 145.66 29.4194C145.66 31.9919 144.302 33.1613 141.585 33.1613H134.113V33.3952Z" fill="white"/>
<path d="M100 21H122V25.5528H113.86V49H107.92V25.5528H100V21Z" fill="white"/>
<path d="M158 21H178V25.5528H163.778V32.1545H176.444V36.935H163.778V44.4472H178V49H158V21Z" fill="white"/>
<path d="M202.854 49L192.583 30.3333V49H187V21H194.369L204.417 39.2114H204.641V21H210V49H202.854Z" fill="white"/>
<path d="M225.5 25.9677H228.462C235.019 25.9677 236.077 30.7097 236.077 35C236.077 39.5161 235.019 44.4839 228.462 44.2581H225.5V25.9677ZM220 49H228.885C237.135 49 242 44.7097 242 35C242 25.2903 236.923 21 228.885 21H220V49Z" fill="white"/>
<path d="M118 72H115.091V60.2609L111.697 72H108.545L105.152 60.2609V72H102V57H107.091L110 67.2174L113.152 57H118V72Z" fill="white"/>
<path d="M142 57H137V72H142V57Z" fill="white"/>
<path d="M201.729 62.2174C201.729 62.6522 201.254 63.087 200.78 63.087C200.542 63.087 200.305 63.3043 199.831 63.3043C199.356 63.3043 198.881 63.3043 198.169 63.3043H197.695H195.322V59.6087H197.932C199.119 59.6087 199.831 59.6087 200.305 59.6087C200.542 59.6087 201.017 59.8261 201.254 59.8261C201.492 60.0435 201.729 60.2609 201.966 60.4783C202.203 60.6956 202.203 61.1304 202.203 61.3478C201.966 61.7826 201.966 62 201.729 62.2174ZM202.203 65.6957C202.203 65.6957 202.915 65.4783 203.153 65.4783C203.864 65.2609 204.576 64.6087 205.051 63.9565C205.525 63.3043 205.525 62.2174 205.525 61.3478C205.525 60.4783 205.288 59.6087 204.814 58.9565C204.339 58.087 203.627 57.6522 202.678 57.4348C202.203 57.2174 201.966 57.2174 201.492 57.2174C200.78 57.2174 200.068 57 198.881 57H192V72H195.322V66.1304H198.407L201.966 72H206L202.203 65.6957Z" fill="white"/>
<path d="M232.583 67.9861C231.907 68.6944 231.007 68.9306 229.881 68.9306C228.98 68.9306 228.305 68.6944 227.629 68.2222C227.179 67.9861 226.729 67.5139 226.278 66.8056C226.053 66.5694 225.828 66.0972 225.828 65.625C225.603 64.9167 225.603 64.2083 225.603 63.5C225.603 62.0833 225.828 60.6667 226.503 59.7222C227.179 58.5417 228.305 57.8333 229.881 57.8333C231.457 57.8333 232.808 58.5417 233.484 59.9583C233.934 60.9028 234.159 62.0833 234.159 63.5C233.934 65.3889 233.484 66.8056 232.583 67.9861ZM235.285 57.3611C233.934 55.7083 232.133 55 229.656 55C227.179 55 225.378 55.7083 224.026 57.3611C222.675 58.7778 222 60.9028 222 63.5C222 65.625 222.45 67.5139 223.576 69.1667C224.927 71.0556 226.954 72 229.431 72C231.907 72 233.934 71.0556 235.285 69.4028C236.411 67.9861 236.861 66.0972 236.861 63.7361C237.311 60.9028 236.636 59.0139 235.285 57.3611Z" fill="white"/>
<path d="M171.557 60.9028C171.311 59.9583 170.82 58.0694 167.869 58.0694C166.148 58.0694 163.689 59.25 163.689 63.7361C163.689 66.5694 164.918 69.1667 167.869 69.1667C169.836 69.1667 171.066 68.2222 171.557 66.0972H175C174.262 69.6389 171.803 72 167.623 72C163.197 72 160 69.1667 160 63.5C160 57.8333 163.443 55 167.623 55C172.541 55 174.754 58.3056 174.754 60.6667H171.557V60.9028Z" fill="white"/>
<path d="M243 50.6522H240.778V55H239.944V50.6522H238V50H243V50.6522Z" fill="white"/>
<path d="M248 55H247.571V50.8696L246.714 55H246.286L245.429 50.8696V55H245V50.2174H245.571L246.286 53.6957C246.286 53.6957 246.286 53.913 246.429 54.1304C246.429 54.3478 246.429 54.3478 246.429 54.3478L246.571 53.4783L247.286 50H247.857V55H248Z" fill="white"/>
<path d="M88 45.5C88 67.775 69.775 86 47.5 86C36.025 86 25.45 81.275 18.25 73.4C27.25 79.475 45.25 75.425 61.225 62.825C76.975 50.45 85.525 34.25 81.925 23.9C85.75 30.2 88 37.625 88 45.5ZM18.25 45.5H13.525L14.65 42.8C14.65 42.8 23.2 41 31.75 33.35H35.125L30.85 42.575H37.825L36.475 45.275H29.5C23.65 56.75 24.325 60.35 25.45 63.275C28.15 70.925 43 68.9 57.4 57.425C72.025 46.175 78.55 30.425 72.25 22.325C66.85 15.35 53.125 16.475 40.075 24.35C54.25 15.125 69.325 12.65 76.975 18.05C77.2 18.275 77.425 18.5 77.65 18.725C70.45 10.4 59.65 5 47.5 5C25.225 5 7 23.225 7 45.5C7 54.5 9.925 62.6 14.65 69.35C14.425 68.9 14.2 68.45 13.75 68C11.275 61.925 12.85 53.825 18.25 45.5Z" fill="#D71920"/>
<path d="M81.2677 23.9062C79.9381 21.6545 78.3869 19.6279 76.8358 17.8265C69.0798 12.4222 54.4544 14.8992 40.4937 24.1314C53.1248 16.2502 66.6423 14.8992 72.1822 22.1048C78.3869 30.2112 71.9606 45.9736 57.5568 57.2324C43.1529 68.4913 28.7491 70.743 26.0899 63.087C24.9819 60.1597 24.3171 56.5569 30.0787 45.0729H36.9482L38.2778 42.3707H31.4082L35.6186 33.1385H32.2946C23.8739 41.0197 15.4532 42.5959 15.4532 42.5959L13.902 45.298H18.5556C13.2372 53.6296 11.6861 61.736 14.1236 67.8157C15.4532 69.8423 16.7828 71.6437 18.5556 73.22C27.4195 79.2998 45.1473 75.2466 60.8807 62.6367C76.3926 50.4771 84.5917 34.0392 81.2677 23.9062Z" fill="white"/>
</svg>
