<svg width="262" height="90" viewBox="0 0 262 90" fill="none" xmlns="http://www.w3.org/2000/svg">
<g clip-path="url(#clip0_1604_4865)">
<path d="M39.3933 84.7528C30.838 83.2106 22.9135 78.8606 16.8026 72.3356C9.66656 64.822 6 55.4894 6 45.0099C6 34.5304 9.66656 25.1977 16.8026 17.6446C22.3615 11.7523 28.3936 8.15373 36.3575 5.97874C41.2069 4.67375 50.8266 4.67375 55.676 5.97874C69.1989 9.696 79.6072 19.2264 83.944 31.96C87.2951 41.8858 86.5066 53.7889 81.8938 63.003C77.9513 70.8329 70.697 77.872 62.8514 81.4706C57.1347 84.0806 53.7835 84.8319 47.1995 84.9901C43.9666 85.0297 40.4183 84.9506 39.3933 84.7528ZM52.6796 78.0302C63.6399 75.6179 72.4318 68.4602 77.2022 58.0598C85.797 39.3945 74.5607 17.091 53.7047 11.5151C49.2496 10.3287 42.705 10.3683 38.1317 11.5546C31.3899 13.3342 24.9242 17.4469 20.1143 22.9436C17.0391 26.5027 13.7668 33.0672 12.7023 37.8917C11.6378 42.7954 11.6773 42.9535 13.4908 40.2249C14.3582 38.9199 16.5266 36.389 18.3401 34.649C20.9422 32.1577 22.4798 31.0504 25.3579 29.6268C32.5727 26.0282 32.0996 26.1073 53.0345 25.9095L71.4461 25.7514V27.8868C71.4461 29.0336 71.0519 31.8809 70.6182 34.2536L69.7508 38.4849H64.8621C60.3282 38.4849 59.9339 38.5245 60.2099 39.1967C60.3676 39.5526 60.8801 40.7785 61.3532 41.8463C62.0234 43.5072 62.1811 44.6144 62.1417 48.9644C62.1417 53.8285 62.1023 54.303 60.7618 58.1389C57.6472 66.997 51.9306 74.0756 44.834 77.7533L42.8627 78.7815H46.0168C47.7515 78.7815 50.7478 78.4652 52.6796 78.0302ZM37.2249 66.0875C38.2894 65.4548 39.6298 64.2684 40.2606 63.438C43.2964 59.6021 45.8196 51.9698 45.9379 46.1962C46.0168 43.5072 45.859 42.7163 45.0311 41.0554L44.0455 39.0781L41.7588 38.9595C33.8343 38.564 27.4868 44.4167 25.555 53.9867C24.4116 59.4834 24.9636 63.1216 27.2108 65.4943C29.9706 68.4207 33.3612 68.6184 37.2249 66.0875Z" fill="black"/>
<path d="M159.668 61.3439C156.2 60.7527 153.519 58.7819 151.903 55.6681C150.997 53.9338 150.878 53.1849 150.878 50.1104C150.878 47.3514 151.036 46.1689 151.667 44.7499C154.071 39.5471 159.353 37.1427 165.226 38.6405C169.01 39.6259 171.729 42.0302 172.202 44.9076L172.439 46.366H169.601H166.802L166.211 44.9864C165.029 42.1091 160.969 41.6361 158.643 44.1587C156.397 46.6025 155.924 51.2141 157.579 54.4856C159.629 58.4272 164.989 58.1512 166.487 53.9732L166.96 52.6725H169.837C171.414 52.6725 172.715 52.7513 172.715 52.8695C172.715 52.9484 172.36 54.0126 171.926 55.1951C170.192 59.8067 165.226 62.3293 159.668 61.3439Z" fill="white"/>
<path d="M184.934 61.3045C182.253 60.8709 181.189 60.3585 179.218 58.5454C174.843 54.525 174.685 45.7353 178.903 41.5179C181.228 39.1923 183.396 38.3252 187.101 38.3252C194.275 38.3252 198.729 42.7792 198.729 49.9134C198.729 57.7177 192.817 62.6447 184.934 61.3045ZM190.294 56.417C192.817 54.8009 193.723 48.5733 191.91 45.3806C190.333 42.5427 187.023 41.6361 184.5 43.331C182.569 44.6317 181.78 46.4448 181.78 49.7163C181.78 53.2243 182.884 55.6681 184.934 56.7323C186.55 57.56 188.757 57.4418 190.294 56.417Z" fill="white"/>
<path d="M241.495 60.5947C237.711 58.8604 235.661 55.0765 235.622 49.913C235.583 45.8532 236.607 43.2124 239.012 41.0051C241.18 39.0737 242.993 38.3643 246.028 38.3643C251.467 38.3643 255.212 42.227 255.763 48.3758L256 50.7014H247.644C238.342 50.7014 238.578 50.6225 239.327 53.3816C240.194 56.7714 243.426 58.8998 247.013 58.5057C249.181 58.2298 250.561 57.3626 251.625 55.5889C252.295 54.4064 252.61 54.2488 253.99 54.2488C255.409 54.2488 255.527 54.3276 255.29 55.1553C254.029 59.2546 250.955 61.3436 246.067 61.3436C243.978 61.3436 242.599 61.1071 241.495 60.5947ZM252.177 46.681C251.112 41.3598 244.648 39.3891 241.022 43.2912C240.194 44.1978 238.933 46.7204 238.933 47.5481C238.933 47.7846 241.298 47.9423 245.673 47.9423H252.453L252.177 46.681Z" fill="white"/>
<path d="M94.2776 58.3479V55.7464L100.111 48.8093C103.304 44.9859 107.009 40.532 108.388 38.9159L110.872 35.9203L103.186 35.8021L95.4601 35.7233V32.9642V30.2051H107.679H119.898V32.8459C119.898 35.2109 119.78 35.605 118.755 36.7087C116.705 38.9159 103.343 55.0369 103.343 55.3128C103.343 55.5099 107.167 55.5493 111.818 55.5099L120.292 55.3523V58.1508V60.9493H107.285H94.2776V58.3479Z" fill="white"/>
<path d="M124.233 49.9124V38.876H126.993H129.752V49.9124V60.9487H126.993H124.233V49.9124Z" fill="white"/>
<path d="M135.27 49.9128V38.8764H138.029H140.788V40.8472V42.818L142.68 40.8866C143.941 39.5465 145.045 38.7976 146.227 38.4823C149.026 37.7728 149.262 37.9304 149.381 40.8866L149.499 43.5275L147.095 43.6851C144.375 43.8822 143.035 44.6705 141.931 46.7596C141.3 47.942 141.182 49.0457 141.182 54.5244V60.9492H138.226H135.27V49.9128Z" fill="white"/>
<path d="M203.853 45.5772V30.2051H205.43H207.006V45.5772V60.9493H205.43H203.853V45.5772Z" fill="white"/>
<path d="M213.313 49.9124V38.876H215.087H216.86V49.9124V60.9487H215.087H213.313V49.9124Z" fill="white"/>
<path d="M225.65 60.0032L224.546 59.0573L224.428 50.3464L224.31 41.6355H222.339H220.408V40.256V38.8764H222.378H224.349V35.5261V32.1758H226.123H227.897V35.5261V38.8764H230.064H232.232V40.256V41.6355H230.064H227.897V49.5187V57.4018L228.921 57.796C229.473 58.0325 230.459 58.1901 231.089 58.1901C232.154 58.1901 232.232 58.3084 232.232 59.5697V60.9492H229.513C227.187 60.9492 226.596 60.7916 225.65 60.0032Z" fill="white"/>
<path d="M124.233 32.57V30.2051H127.111H129.949L129.83 32.57L129.673 34.935H126.953H124.233V32.57Z" fill="white"/>
<path d="M213.313 32.3729V30.2051H215.087H216.86V32.3729V34.5408H215.087H213.313V32.3729Z" fill="white"/>
<path d="M51.3129 34.6899C50.7694 34.5972 50.3494 34.2884 50.0962 33.8005C49.9541 33.5287 49.9356 33.4114 49.9356 32.9296C49.9356 32.4973 49.9603 32.312 50.0591 32.0896C50.4359 31.2744 51.2635 30.8976 52.1838 31.1323C52.7767 31.2867 53.2029 31.6635 53.277 32.1143L53.314 32.3429H52.8694H52.4308L52.3382 32.1267C52.1529 31.6758 51.5167 31.6017 51.1523 31.997C50.8003 32.3799 50.7262 33.1026 50.9856 33.6152C51.3067 34.2328 52.1467 34.1896 52.3814 33.5349L52.4555 33.3311H52.9064C53.1535 33.3311 53.3573 33.3434 53.3573 33.362C53.3573 33.3743 53.3017 33.5411 53.2338 33.7264C52.962 34.449 52.1838 34.8443 51.3129 34.6899Z" fill="white"/>
<path d="M55.2719 34.6838C54.8519 34.6159 54.6852 34.5356 54.3763 34.2515C53.6908 33.6215 53.6661 32.2442 54.3269 31.5833C54.6913 31.2189 55.031 31.083 55.6116 31.083C56.7357 31.083 57.4336 31.7809 57.4336 32.8988C57.4336 34.1217 56.5072 34.8938 55.2719 34.6838ZM56.1119 33.9179C56.5072 33.6647 56.6492 32.6888 56.3651 32.1886C56.1181 31.7439 55.5993 31.6018 55.204 31.8674C54.9013 32.0712 54.7778 32.3553 54.7778 32.868C54.7778 33.4177 54.9507 33.8006 55.2719 33.9673C55.5251 34.097 55.871 34.0785 56.1119 33.9179Z" fill="white"/>
<path d="M64.1349 34.5733C63.542 34.3015 63.2208 33.7086 63.2146 32.8995C63.2084 32.2633 63.369 31.8495 63.7458 31.5037C64.0855 31.201 64.3696 31.0898 64.8452 31.0898C65.6975 31.0898 66.2842 31.6951 66.3707 32.6586L66.4078 33.023H65.0984C63.6408 33.023 63.6778 33.0107 63.7952 33.443C63.9311 33.9742 64.4375 34.3077 64.9996 34.2459C65.3393 34.2027 65.5554 34.0668 65.7222 33.7889C65.8272 33.6036 65.8766 33.5789 66.0928 33.5789C66.3151 33.5789 66.3337 33.5912 66.2966 33.7209C66.099 34.3633 65.6172 34.6906 64.8513 34.6906C64.524 34.6906 64.3078 34.6536 64.1349 34.5733ZM65.8087 32.393C65.6419 31.5592 64.629 31.2504 64.0608 31.8619C63.9311 32.0039 63.7334 32.3992 63.7334 32.5289C63.7334 32.566 64.104 32.5907 64.7896 32.5907H65.8519L65.8087 32.393Z" fill="white"/>
<path d="M41.0664 34.2204V33.8128L41.9805 32.7258C42.4808 32.1267 43.0614 31.4287 43.2775 31.1755L43.6666 30.7061L42.4623 30.6876L41.2517 30.6752V30.2429V29.8105H43.1663H45.081V30.2244C45.081 30.5949 45.0625 30.6567 44.9019 30.8296C44.5807 31.1755 42.487 33.7016 42.487 33.7449C42.487 33.7757 43.0861 33.7819 43.8149 33.7757L45.1428 33.751V34.1895V34.6281H43.1046H41.0664V34.2204Z" fill="white"/>
<path d="M45.7604 32.8983V31.1689H46.1927H46.6251V32.8983V34.6277H46.1927H45.7604V32.8983Z" fill="white"/>
<path d="M47.4897 32.8991V31.1697H47.9221H48.3544V31.4785V31.7873L48.6509 31.4847C48.8485 31.2747 49.0215 31.1574 49.2068 31.108C49.6453 30.9968 49.6823 31.0215 49.7009 31.4847L49.7194 31.8985L49.3426 31.9232C48.9165 31.9541 48.7065 32.0776 48.5335 32.405C48.4347 32.5903 48.4162 32.7632 48.4162 33.6217V34.6284H47.953H47.4897V32.8991Z" fill="white"/>
<path d="M58.2365 32.2193V29.8105H58.4836H58.7306V32.2193V34.6281H58.4836H58.2365V32.2193Z" fill="white"/>
<path d="M59.7188 32.8983V31.1689H59.9968H60.2747V32.8983V34.6277H59.9968H59.7188V32.8983Z" fill="white"/>
<path d="M61.652 34.4796L61.4791 34.3314L61.4606 32.9664L61.442 31.6015H61.1332H60.8306V31.3853V31.1691H61.1394H61.4482V30.6441V30.1191H61.7261H62.0041V30.6441V31.1691H62.3438H62.6835V31.3853V31.6015H62.3438H62.0041V32.8367V34.072L62.1646 34.1337C62.2511 34.1708 62.4055 34.1955 62.5043 34.1955C62.6711 34.1955 62.6835 34.214 62.6835 34.4117V34.6278H62.2573C61.8929 34.6278 61.8002 34.6031 61.652 34.4796Z" fill="white"/>
<path d="M45.7604 30.1811V29.8105H46.2113H46.656L46.6374 30.1811L46.6127 30.5517H46.1866H45.7604V30.1811Z" fill="white"/>
<path d="M59.7188 30.1502V29.8105H59.9968H60.2747V30.1502V30.4899H59.9968H59.7188V30.1502Z" fill="white"/>
<path d="M40.1598 79.0801C38.6226 78.8042 37.7555 78.2918 38.7409 78.2918C39.8445 78.2918 45.8357 75.1385 48.1612 73.3648C53.5612 69.1868 57.4239 63.6686 59.9465 56.4949C61.1684 52.9475 61.3261 52.0409 61.3261 48.5329C61.3261 43.9607 60.3012 40.7286 58.2122 38.6002L56.9903 37.3783L58.3699 37.1418C59.1582 37.0236 61.8385 36.9053 64.3611 36.9053H68.9333L69.8004 32.6879C70.234 30.3229 70.6281 28.0368 70.6281 27.5244V26.5784L53.4035 26.7755C33.8139 26.9332 34.1293 26.8938 26.8768 30.4412C23.6053 32.0572 22.6199 32.8061 19.1907 36.2747C15.7221 39.7433 14.9338 40.7681 13.1995 44.2761L11.1893 48.2965L10.9528 46.4439C10.3616 41.7929 11.9777 34.2251 14.855 28.431C19.309 19.3654 27.468 12.7041 37.3219 10.0633C42.0518 8.80196 50.6444 8.80197 55.256 10.0239C68.0661 13.453 77.5653 23.1098 80.9156 35.9988C82.0193 40.3739 82.0587 47.6658 80.9156 52.3957C77.7624 65.5999 67.4749 75.7692 54.2312 78.6859C50.605 79.4742 43.2737 79.7107 40.1598 79.0801Z" fill="white"/>
<path d="M30.2271 68.4779C26.1279 67.4137 24.1177 64.1816 24.1177 58.5058C24.1177 52.5146 25.7731 47.0358 28.8476 42.976C31.5672 39.3498 35.3906 37.6155 41.5788 37.1425C44.4562 36.9454 44.7321 36.9848 45.5992 37.852C47.1364 39.4286 47.9247 42.8183 47.6094 46.8387C46.8605 56.7321 42.8401 64.9699 37.519 67.5714C35.5482 68.5173 32.0402 68.9509 30.2271 68.4779Z" fill="white"/>
</g>
<defs>
<clipPath id="clip0_1604_4865">
<rect width="262" height="90" fill="white"/>
</clipPath>
</defs>
</svg>
