<svg width="160" height="80" viewBox="0 0 160 80" fill="none" xmlns="http://www.w3.org/2000/svg">
<path d="M124.7 53.4995C124.566 29.5972 104.978 9.88953 80.9235 10.0005C56.8688 10.1115 36.8887 29.5971 37.0004 53.4994" stroke="#E6E6E6" stroke-width="2"/>
<path d="M37.0003 53.4995L42.4815 53.4995M124.7 53.4995L99.6428 53.4995M81.0536 11.822L80.8503 53.4995M51.8779 23.2052C57.3688 30.5042 62.4905 45.5039 63.6241 53.4995M112.171 23.2052C104.96 32.7917 99.6428 42.2622 99.6428 53.4995M99.6428 53.4995L40.1332 53.4995" stroke="#E6E6E6" stroke-width="2" stroke-linecap="round"/>
<path d="M123.988 51.9375C104.064 19.152 68.7992 15.0188 45.2074 42.7078C42.8147 45.5358 40.5785 48.6123 38.5659 51.9375" stroke="#E6E6E6" stroke-width="2" stroke-linecap="round" stroke-linejoin="round"/>
<path d="M125 53.897C105.18 33.8027 70.0993 31.2695 46.6309 48.2401C44.2507 49.9733 42.0262 51.859 40.0241 53.897" stroke="#E6E6E6" stroke-width="2" stroke-linecap="round" stroke-linejoin="round"/>
<path d="M81 62L81 54" stroke="#E6E6E6" stroke-width="2" stroke-linecap="round" stroke-linejoin="round"/>
<path d="M48.5359 60.1213L45 59.4141" stroke="#E6E6E6" stroke-width="2" stroke-linecap="round" stroke-linejoin="round"/>
<path d="M28.0001 67.2322L29.5983 63.9999" stroke="#E6E6E6" stroke-width="2" stroke-linecap="round" stroke-linejoin="round"/>
<path d="M39.6638 68.1242L38.1597 64.1329" stroke="#E6E6E6" stroke-width="2" stroke-linecap="round" stroke-linejoin="round"/>
<path d="M21 55.673L25.1825 56.5095" stroke="#E6E6E6" stroke-width="2" stroke-linecap="round" stroke-linejoin="round"/>
<path d="M140 55C140.552 55 141 54.5523 141 54C141 53.4477 140.552 53 140 53L140 55ZM37 55L140 55L140 53L37 53L37 55Z" fill="#E6E6E6"/>
<path d="M59.2219 72.9559C58.875 73.3857 58.9421 74.0153 59.3719 74.3622C59.8016 74.7091 60.4312 74.6419 60.7781 74.2122L59.2219 72.9559ZM73.4165 55.3719L59.2219 72.9559L60.7781 74.2122L74.9727 56.6281L73.4165 55.3719Z" fill="#E6E6E6"/>
<path d="M136 48L142 54.0174" stroke="#E6E6E6" stroke-width="2" stroke-linecap="round" stroke-linejoin="round"/>
<path d="M136 60.0249L142 54.0075" stroke="#E6E6E6" stroke-width="2" stroke-linecap="round" stroke-linejoin="round"/>
<ellipse cx="72.5" cy="57" rx="11.5" ry="12" transform="rotate(180 72.5 57)" fill="#242E42" stroke="#E6E6E6" stroke-width="2"/>
<path d="M111.483 25.9359C121.682 25.9623 129.962 21.5315 129.976 16.0395C129.99 10.5475 121.733 6.07405 111.534 6.04771C101.335 6.02136 93.0548 10.4521 93.0406 15.9441C93.0349 18.1371 94.348 20.1677 96.5769 21.8175C97.2813 24.1264 98.1206 29.1688 95.8432 30.8676C92.9966 32.9912 103.657 30.7842 104.382 25.1555C106.567 25.6521 108.966 25.9294 111.483 25.9359Z" fill="#242E42" stroke="#E6E6E6" stroke-width="2"/>
<circle cx="111.508" cy="15.992" r="1.8861" transform="rotate(0.148005 111.508 15.992)" fill="#E6E6E6"/>
<circle cx="104.908" cy="15.9745" r="1.8861" transform="rotate(0.148005 104.908 15.9745)" fill="#E6E6E6"/>
<circle cx="118.109" cy="16.0086" r="1.8861" transform="rotate(0.148005 118.109 16.0086)" fill="#E6E6E6"/>
<circle cx="35.5" cy="53.5" r="5.5" transform="rotate(180 35.5 53.5)" fill="#242E42" stroke="#E6E6E6" stroke-width="2"/>
<circle cx="81" cy="10" r="4" fill="#242E42" stroke="#E6E6E6" stroke-width="2"/>
<circle cx="81" cy="37" r="4" transform="rotate(180 81 37)" fill="#242E42" stroke="#E6E6E6" stroke-width="2"/>
<circle cx="124" cy="54" r="4" fill="#242E42" stroke="#E6E6E6" stroke-width="2"/>
<circle cx="51" cy="21" r="4" transform="rotate(180 51 21)" fill="#242E42" stroke="#E6E6E6" stroke-width="2"/>
<path d="M91.3281 74.3252L92.8076 68.8906H94.7266L92.3291 76H91.0889L91.3281 74.3252ZM89.9854 68.8906L91.4648 74.3252L91.7139 76H90.459L88.0762 68.8906H89.9854ZM97.8146 76.0977C97.385 76.0977 97.0008 76.0309 96.6623 75.8975C96.3238 75.7607 96.0373 75.5736 95.8029 75.3359C95.5718 75.0983 95.3944 74.8249 95.2707 74.5156C95.1503 74.2064 95.09 73.8792 95.09 73.5342V73.3486C95.09 72.9613 95.1437 72.6032 95.2512 72.2744C95.3586 71.9424 95.5181 71.6527 95.7297 71.4053C95.9413 71.1579 96.2066 70.9658 96.5256 70.8291C96.8446 70.6891 97.2157 70.6191 97.6389 70.6191C98.0132 70.6191 98.3485 70.6794 98.6447 70.7998C98.9409 70.9202 99.1916 71.0928 99.3967 71.3174C99.605 71.542 99.7629 71.8138 99.8703 72.1328C99.981 72.4518 100.036 72.8099 100.036 73.207V73.876H95.7199V72.8457H98.4299V72.7188C98.4331 72.543 98.4022 72.3932 98.3371 72.2695C98.2753 72.1458 98.1841 72.0514 98.0637 71.9863C97.9432 71.9212 97.7967 71.8887 97.6242 71.8887C97.4452 71.8887 97.2971 71.9277 97.1799 72.0059C97.0659 72.084 96.9764 72.1914 96.9113 72.3281C96.8495 72.4616 96.8055 72.6162 96.7795 72.792C96.7534 72.9678 96.7404 73.1533 96.7404 73.3486V73.5342C96.7404 73.7295 96.7665 73.9069 96.8186 74.0664C96.8739 74.2259 96.952 74.3626 97.0529 74.4766C97.1571 74.5872 97.2808 74.6735 97.424 74.7354C97.5705 74.7972 97.7365 74.8281 97.9221 74.8281C98.1467 74.8281 98.368 74.7858 98.5861 74.7012C98.8042 74.6165 98.9914 74.4766 99.1477 74.2812L99.8947 75.1699C99.7873 75.3229 99.6343 75.471 99.4357 75.6143C99.2404 75.7575 99.0061 75.8747 98.7326 75.9658C98.4592 76.0537 98.1532 76.0977 97.8146 76.0977ZM102.665 72.0254V76H101.02V70.7168H102.558L102.665 72.0254ZM104.228 70.6777L104.199 72.2061C104.134 72.1995 104.046 72.1914 103.935 72.1816C103.824 72.1719 103.732 72.167 103.657 72.167C103.465 72.167 103.299 72.1898 103.159 72.2354C103.022 72.2777 102.908 72.3428 102.817 72.4307C102.729 72.5153 102.664 72.6227 102.621 72.7529C102.582 72.8831 102.565 73.0345 102.568 73.207L102.27 73.0117C102.27 72.6569 102.304 72.3346 102.372 72.0449C102.444 71.752 102.545 71.4997 102.675 71.2881C102.805 71.0732 102.963 70.9089 103.149 70.7949C103.334 70.6777 103.543 70.6191 103.774 70.6191C103.855 70.6191 103.935 70.624 104.013 70.6338C104.094 70.6436 104.166 70.6582 104.228 70.6777ZM107.863 74.5156C107.863 74.4245 107.832 74.3464 107.77 74.2812C107.712 74.2129 107.607 74.151 107.458 74.0957C107.308 74.0371 107.098 73.9785 106.828 73.9199C106.571 73.8646 106.328 73.7913 106.1 73.7002C105.876 73.609 105.679 73.4984 105.509 73.3682C105.34 73.238 105.207 73.0833 105.109 72.9043C105.015 72.7253 104.967 72.5202 104.967 72.2891C104.967 72.0645 105.015 71.8529 105.109 71.6543C105.207 71.4525 105.348 71.2751 105.534 71.1221C105.723 70.9658 105.952 70.8438 106.222 70.7559C106.492 70.6647 106.8 70.6191 107.145 70.6191C107.62 70.6191 108.031 70.6924 108.376 70.8389C108.721 70.9821 108.986 71.1839 109.171 71.4443C109.36 71.7015 109.455 71.9993 109.455 72.3379H107.809C107.809 72.2044 107.786 72.0905 107.741 71.9961C107.699 71.9017 107.629 71.8301 107.531 71.7812C107.433 71.7292 107.303 71.7031 107.14 71.7031C107.026 71.7031 106.922 71.7243 106.828 71.7666C106.737 71.8089 106.663 71.8675 106.608 71.9424C106.553 72.0173 106.525 72.1051 106.525 72.2061C106.525 72.2777 106.541 72.3428 106.574 72.4014C106.61 72.4567 106.663 72.5088 106.735 72.5576C106.807 72.6032 106.898 72.6455 107.008 72.6846C107.119 72.7204 107.253 72.7529 107.409 72.7822C107.764 72.8473 108.096 72.9401 108.405 73.0605C108.714 73.181 108.965 73.3519 109.157 73.5732C109.352 73.7946 109.45 74.0924 109.45 74.4668C109.45 74.7012 109.396 74.9176 109.289 75.1162C109.181 75.3115 109.027 75.484 108.825 75.6338C108.623 75.7803 108.38 75.8942 108.097 75.9756C107.814 76.057 107.495 76.0977 107.14 76.0977C106.636 76.0977 106.209 76.0081 105.861 75.8291C105.513 75.6468 105.249 75.4189 105.07 75.1455C104.894 74.8688 104.806 74.5889 104.806 74.3057H106.339C106.346 74.4684 106.385 74.6019 106.457 74.7061C106.532 74.8102 106.631 74.8867 106.754 74.9355C106.878 74.9844 107.021 75.0088 107.184 75.0088C107.334 75.0088 107.458 74.9876 107.555 74.9453C107.656 74.903 107.733 74.846 107.785 74.7744C107.837 74.6995 107.863 74.6133 107.863 74.5156ZM112.26 70.7168V76H110.609V70.7168H112.26ZM110.512 69.3545C110.512 69.1201 110.596 68.9281 110.765 68.7783C110.935 68.6286 111.154 68.5537 111.425 68.5537C111.695 68.5537 111.915 68.6286 112.084 68.7783C112.253 68.9281 112.338 69.1201 112.338 69.3545C112.338 69.5889 112.253 69.7809 112.084 69.9307C111.915 70.0804 111.695 70.1553 111.425 70.1553C111.154 70.1553 110.935 70.0804 110.765 69.9307C110.596 69.7809 110.512 69.5889 110.512 69.3545ZM113.37 73.4121V73.3096C113.37 72.9222 113.425 72.5658 113.536 72.2402C113.647 71.9115 113.81 71.6266 114.024 71.3857C114.239 71.1449 114.505 70.9577 114.82 70.8242C115.136 70.6875 115.501 70.6191 115.914 70.6191C116.331 70.6191 116.697 70.6875 117.013 70.8242C117.332 70.9577 117.599 71.1449 117.813 71.3857C118.028 71.6266 118.191 71.9115 118.302 72.2402C118.412 72.5658 118.468 72.9222 118.468 73.3096V73.4121C118.468 73.7962 118.412 74.1527 118.302 74.4814C118.191 74.807 118.028 75.0918 117.813 75.3359C117.599 75.5768 117.333 75.764 117.018 75.8975C116.702 76.0309 116.337 76.0977 115.924 76.0977C115.51 76.0977 115.144 76.0309 114.825 75.8975C114.506 75.764 114.239 75.5768 114.024 75.3359C113.81 75.0918 113.647 74.807 113.536 74.4814C113.425 74.1527 113.37 73.7962 113.37 73.4121ZM115.016 73.3096V73.4121C115.016 73.6107 115.03 73.7962 115.06 73.9688C115.089 74.1413 115.138 74.2926 115.206 74.4229C115.274 74.5498 115.367 74.6491 115.484 74.7207C115.602 74.7923 115.748 74.8281 115.924 74.8281C116.096 74.8281 116.24 74.7923 116.354 74.7207C116.471 74.6491 116.563 74.5498 116.632 74.4229C116.7 74.2926 116.749 74.1413 116.778 73.9688C116.808 73.7962 116.822 73.6107 116.822 73.4121V73.3096C116.822 73.1175 116.808 72.9368 116.778 72.7676C116.749 72.5951 116.7 72.4437 116.632 72.3135C116.563 72.18 116.471 72.0758 116.354 72.001C116.236 71.9261 116.09 71.8887 115.914 71.8887C115.742 71.8887 115.597 71.9261 115.479 72.001C115.366 72.0758 115.274 72.18 115.206 72.3135C115.138 72.4437 115.089 72.5951 115.06 72.7676C115.03 72.9368 115.016 73.1175 115.016 73.3096ZM121.116 71.8447V76H119.471V70.7168H121.014L121.116 71.8447ZM120.921 73.1777L120.535 73.1875C120.535 72.7839 120.584 72.4242 120.682 72.1084C120.779 71.7894 120.918 71.5192 121.097 71.2979C121.276 71.0765 121.489 70.9089 121.737 70.7949C121.987 70.6777 122.265 70.6191 122.571 70.6191C122.816 70.6191 123.039 70.6549 123.24 70.7266C123.446 70.7982 123.621 70.9137 123.768 71.0732C123.918 71.2327 124.031 71.4443 124.11 71.708C124.191 71.9684 124.232 72.2907 124.232 72.6748V76H122.576V72.6699C122.576 72.4583 122.547 72.2972 122.488 72.1865C122.43 72.0726 122.345 71.9945 122.235 71.9521C122.124 71.9098 121.989 71.8887 121.829 71.8887C121.66 71.8887 121.517 71.9212 121.4 71.9863C121.282 72.0514 121.188 72.1426 121.116 72.2598C121.048 72.3737 120.998 72.5088 120.965 72.665C120.936 72.8213 120.921 72.9922 120.921 73.1777ZM131.853 68.8906V76H130.208V70.7461L128.587 71.2197V69.9697L131.702 68.8906H131.853ZM134.443 75.2285C134.443 74.9941 134.528 74.7988 134.697 74.6426C134.866 74.4831 135.084 74.4033 135.351 74.4033C135.622 74.4033 135.84 74.4831 136.006 74.6426C136.175 74.7988 136.26 74.9941 136.26 75.2285C136.26 75.4629 136.175 75.6598 136.006 75.8193C135.84 75.9756 135.622 76.0537 135.351 76.0537C135.084 76.0537 134.866 75.9756 134.697 75.8193C134.528 75.6598 134.443 75.4629 134.443 75.2285ZM141.281 68.8906V76H139.636V70.7461L138.015 71.2197V69.9697L141.13 68.8906H141.281Z" fill="#E6E6E6"/>
<path d="M15.2699 46.139L34.7057 53.7056L27.1391 34.2698L23.2289 38.1799L15.9591 30.91L11.9101 34.959L19.18 42.2288L15.2699 46.139Z" fill="#242E42" stroke="#E6E6E6" stroke-width="2" stroke-linejoin="round"/>
<path d="M66 59.5L73 52.5L76 59.5H79.5" stroke="#E6E6E6" stroke-width="2" stroke-linecap="round" stroke-linejoin="round"/>
</svg>
