<svg width="70" height="70" viewBox="0 0 70 70" fill="none" xmlns="http://www.w3.org/2000/svg">
<path d="M63 35.097L63 34.8103C62.955 26.7453 59.4972 19.4979 53.9999 14.4249M24.5867 9C27.7625 7.72852 31.2269 7.02049 34.8566 7.00031C37.6869 6.98719 40.4211 7.39327 42.9999 8.16019M8.99994 24.5669C7.69406 27.8205 6.98301 31.3755 7.00032 35.097C7.04113 43.8746 11.1339 51.6838 17.4999 56.7753M50.9999 57.8974C46.5017 61.0315 41.0388 62.8794 35.1437 62.907C33.2116 62.9159 31.324 62.7295 29.4999 62.3663" stroke="#E6E6E6" stroke-width="2" stroke-linecap="round" stroke-linejoin="round"/>
<path d="M34.9664 63L34.9664 29M34.9664 7.02611L34.9664 11M8.17884 35.0131L39 35.0131L42 29L44.5 33L46.5 30.5M14.2232 52.2358C21.289 46.9628 29.741 44.6934 38 45.4274M32.9058 7.45667C30.3849 9.68108 28.2471 12.2034 26.5 14.9324M32.9058 62.2824C31.4359 60.9907 30.076 59.5555 28.8259 58.0198C21.1919 48.576 19.03 36.2179 22 25.1518M57 25.5L60.5 24" stroke="#E6E6E6" stroke-width="2" stroke-linecap="round"/>
<path d="M23 16C23 19.866 19.866 23 16 23C12.134 23 9 19.866 9 16C9 12.134 12.134 9 16 9C19.866 9 23 12.134 23 16Z" stroke="#E6E6E6" stroke-width="2"/>
<circle cx="35" cy="20" r="6" stroke="#E6E6E6" stroke-width="2"/>
<circle cx="49.5" cy="23.5" r="4.5" stroke="#E6E6E6" stroke-width="2"/>
<circle cx="49.5" cy="10.5" r="3.5" stroke="#E6E6E6" stroke-width="2"/>
<circle cx="22.5" cy="60.5" r="3.5" stroke="#E6E6E6" stroke-width="2"/>
<path d="M53.661 51.8161C60.5753 53.7503 67.0247 52.3002 68.0662 48.5771C69.1077 44.8541 64.3468 40.2679 57.4326 38.3337C50.5183 36.3995 44.0689 37.8497 43.0274 41.5727C42.6115 43.0594 43.1208 44.6836 44.3229 46.2217C44.3669 47.9203 43.9889 51.4987 42.1248 52.2233C39.7946 53.1291 47.4411 53.6348 48.9904 49.9525C50.3795 50.7 51.9547 51.3388 53.661 51.8161Z" stroke="#E6E6E6" stroke-width="2"/>
<circle cx="55.5468" cy="45.0747" r="2" transform="rotate(15.6285 55.5468 45.0747)" fill="#E6E6E6"/>
<circle cx="48.8056" cy="43.189" r="2" transform="rotate(15.6285 48.8056 43.189)" fill="#E6E6E6"/>
<circle cx="62.288" cy="46.9609" r="2" transform="rotate(15.6285 62.288 46.9609)" fill="#E6E6E6"/>
</svg>
