<svg width="160" height="80" viewBox="0 0 160 80" fill="none" xmlns="http://www.w3.org/2000/svg">
<g clip-path="url(#clip0_2426_5249)">
<path d="M39.7645 13.2354C25.0577 13.3171 12.9318 25.273 13.0001 39.9554C13.0684 54.6377 25.0577 66.8331 39.7645 66.7649" stroke="#E6E6E6" stroke-width="2"/>
<path d="M38.7645 66.7651C38.7645 67.3174 39.2122 67.7651 39.7645 67.7651C40.3167 67.7651 40.7645 67.3174 40.7645 66.7651L38.7645 66.7651ZM40.7645 13.2353C40.7645 12.683 40.3168 12.2353 39.7645 12.2353C39.2122 12.2353 38.7645 12.683 38.7645 13.2353L40.7645 13.2353ZM14.1256 38.8761C13.5733 38.8735 13.1235 39.319 13.1208 39.8713C13.1181 40.4236 13.5637 40.8735 14.1159 40.8761L14.1256 38.8761ZM39.7596 41.0002C40.3119 41.0029 40.7618 40.5573 40.7645 40.005C40.7671 39.4528 40.3216 39.0029 39.7693 39.0002L39.7596 41.0002ZM20.5266 56.8828C20.084 57.2131 19.993 57.8397 20.3233 58.2823C20.6536 58.7249 21.2802 58.816 21.7228 58.4857L20.5266 56.8828ZM21.7228 20.0812C21.2802 19.7509 20.6536 19.842 20.3233 20.2846C19.993 20.7272 20.084 21.3538 20.5266 21.6841L21.7228 20.0812ZM38.2978 14.4198C38.712 14.0544 38.7514 13.4224 38.386 13.0083C38.0206 12.5942 37.3887 12.5547 36.9746 12.9201L38.2978 14.4198ZM33.7562 61.7556L32.9785 62.3842L32.9806 62.3869L33.7562 61.7556ZM36.9761 66.5605C37.3909 66.9251 38.0228 66.8843 38.3874 66.4694C38.7519 66.0546 38.7112 65.4227 38.2963 65.0582L36.9761 66.5605ZM39.7645 28.5297L40.7645 28.5297V28.5297L39.7645 28.5297ZM39.9037 51.5049C40.4506 51.428 40.8316 50.9222 40.7547 50.3753C40.6778 49.8284 40.1721 49.4475 39.6252 49.5244L39.9037 51.5049ZM38.7645 64.8529C38.7645 65.4052 39.2122 65.8529 39.7645 65.8529C40.3167 65.8529 40.7645 65.4052 40.7645 64.8529L38.7645 64.8529ZM40.7645 63.4195C40.7645 62.8673 40.3168 62.4195 39.7645 62.4195C39.2122 62.4195 38.7645 62.8673 38.7645 63.4195L40.7645 63.4195ZM14.1159 40.8761L39.7596 41.0002L39.7693 39.0002L14.1256 38.8761L14.1159 40.8761ZM36.9746 12.9201C22.7856 25.4399 21.0057 47.573 32.9785 62.3842L34.5338 61.1269C23.2263 47.1386 24.9215 26.2225 38.2978 14.4198L36.9746 12.9201ZM32.9806 62.3869C34.2008 63.8859 35.5323 65.2917 36.9761 66.5605L38.2963 65.0582C36.9444 63.8701 35.6892 62.5462 34.5317 61.1243L32.9806 62.3869ZM20.5266 21.6841C26.471 26.1202 32.5173 29.5297 39.7645 29.5297L39.7645 27.5297C33.1833 27.5297 27.5754 24.4488 21.7228 20.0812L20.5266 21.6841ZM40.7645 28.5297L40.7645 13.2353L38.7645 13.2353L38.7645 28.5297L40.7645 28.5297ZM39.6252 49.5244C37.0718 49.8835 33.4622 50.8619 29.9373 52.1641C26.4209 53.4631 22.886 55.122 20.5266 56.8828L21.7228 58.4857C23.8544 56.8949 27.1796 55.315 30.6304 54.0401C34.0728 52.7684 37.5375 51.8377 39.9037 51.5049L39.6252 49.5244ZM40.7645 64.8529L40.7645 28.5297L38.7645 28.5297L38.7645 64.8529L40.7645 64.8529ZM40.7645 66.7651L40.7645 63.4195L38.7645 63.4195L38.7645 66.7651L40.7645 66.7651Z" fill="#E6E6E6"/>
<path d="M120.235 66.7651C134.942 66.6833 147.068 54.7275 147 40.0451C146.931 25.3627 134.942 13.1674 120.235 13.2356" stroke="#E6E6E6" stroke-width="2"/>
<path d="M121.235 13.2354C121.235 12.6831 120.788 12.2354 120.235 12.2354C119.683 12.2354 119.235 12.6831 119.235 13.2354L121.235 13.2354ZM119.235 66.7652C119.235 67.3175 119.683 67.7652 120.235 67.7652C120.788 67.7652 121.235 67.3175 121.235 66.7652L119.235 66.7652ZM145.874 41.1243C146.426 41.127 146.876 40.6815 146.879 40.1292C146.882 39.5769 146.436 39.127 145.884 39.1244L145.874 41.1243ZM120.24 39.0003C119.688 38.9976 119.238 39.4432 119.235 39.9954C119.233 40.5477 119.678 40.9976 120.231 41.0003L120.24 39.0003ZM139.473 23.1177C139.916 22.7874 140.007 22.1608 139.677 21.7182C139.346 21.2756 138.72 21.1845 138.277 21.5148L139.473 23.1177ZM138.277 59.9193C138.72 60.2496 139.346 60.1585 139.677 59.7159C140.007 59.2733 139.916 58.6467 139.473 58.3164L138.277 59.9193ZM121.702 65.5807C121.288 65.9461 121.248 66.5781 121.614 66.9922C121.979 67.4063 122.611 67.4458 123.025 67.0804L121.702 65.5807ZM126.244 18.2449L127.021 17.6163L127.019 17.6136L126.244 18.2449ZM123.024 13.44C122.609 13.0754 121.977 13.1162 121.612 13.531C121.248 13.9459 121.289 14.5777 121.704 14.9423L123.024 13.44ZM120.235 51.4707L119.235 51.4707L119.235 51.4707L120.235 51.4707ZM120.096 28.4956C119.549 28.5725 119.168 29.0782 119.245 29.6251C119.322 30.172 119.828 30.553 120.375 30.4761L120.096 28.4956ZM121.235 15.1476C121.235 14.5953 120.788 14.1476 120.235 14.1476C119.683 14.1476 119.235 14.5953 119.235 15.1476L121.235 15.1476ZM119.235 16.5809C119.235 17.1332 119.683 17.5809 120.235 17.5809C120.788 17.5809 121.235 17.1332 121.235 16.5809L119.235 16.5809ZM145.884 39.1244L120.24 39.0003L120.231 41.0003L145.874 41.1243L145.884 39.1244ZM123.025 67.0804C137.214 54.5605 138.994 32.4275 127.021 17.6163L125.466 18.8736C136.774 32.8619 135.078 53.7779 121.702 65.5807L123.025 67.0804ZM127.019 17.6136C125.799 16.1146 124.468 14.7088 123.024 13.44L121.704 14.9423C123.055 16.1304 124.311 17.4543 125.468 18.8762L127.019 17.6136ZM139.473 58.3164C133.529 53.8803 127.483 50.4708 120.235 50.4707L120.235 52.4707C126.817 52.4708 132.424 55.5517 138.277 59.9193L139.473 58.3164ZM119.235 51.4707L119.235 66.7652L121.235 66.7652L121.235 51.4707L119.235 51.4707ZM120.375 30.4761C122.928 30.117 126.538 29.1386 130.062 27.8364C133.579 26.5373 137.114 24.8784 139.473 23.1177L138.277 21.5148C136.145 23.1056 132.82 24.6855 129.369 25.9604C125.927 27.2321 122.462 28.1628 120.096 28.4956L120.375 30.4761ZM119.235 15.1476L119.235 51.4707L121.235 51.4707L121.235 15.1476L119.235 15.1476ZM119.235 13.2354L119.235 16.5809L121.235 16.5809L121.235 13.2354L119.235 13.2354Z" fill="#E6E6E6"/>
<path d="M71.9999 41C72.5522 41 72.9999 40.5523 72.9999 40C72.9999 39.4477 72.5522 39 71.9999 39L71.9999 41ZM31.9999 41L71.9999 41L71.9999 39L31.9999 39L31.9999 41Z" fill="#E6E6E6"/>
<path d="M120 41C120.552 41 121 40.5523 121 40C121 39.4477 120.552 39 120 39L120 41ZM106 41L120 41L120 39L106 39L106 41Z" fill="#E6E6E6"/>
<path d="M37.9999 40L53.9999 40" stroke="#E6E6E6" stroke-width="2" stroke-linecap="round" stroke-linejoin="round"/>
<path d="M49 29L49 53" stroke="#E6E6E6" stroke-width="2" stroke-linecap="round" stroke-linejoin="round"/>
<path d="M111 53L111 29" stroke="#E6E6E6" stroke-width="2" stroke-linecap="round" stroke-linejoin="round"/>
<path d="M58 34L58 48" stroke="#E6E6E6" stroke-width="2" stroke-linecap="round" stroke-linejoin="round"/>
<path d="M66 37L66 45" stroke="#E6E6E6" stroke-width="2" stroke-linecap="round" stroke-linejoin="round"/>
<path d="M67.293 62.2929C66.9024 62.6834 66.9024 63.3166 67.293 63.7071C67.6835 64.0976 68.3166 64.0976 68.7072 63.7071L67.293 62.2929ZM77.293 52.2929L67.293 62.2929L68.7072 63.7071L78.7072 53.7071L77.293 52.2929Z" fill="#E6E6E6"/>
<circle cx="89.1492" cy="39.9792" r="16.5996" transform="rotate(-141.697 89.1492 39.9792)" stroke="#E6E6E6" stroke-width="2"/>
<path d="M86.5272 40.312L91.839 40.312" stroke="#E6E6E6" stroke-width="2" stroke-linecap="round" stroke-linejoin="round"/>
<path d="M83.8712 42.9678L86.5271 40.3118" stroke="#E6E6E6" stroke-width="2" stroke-linecap="round" stroke-linejoin="round"/>
<path d="M94.4949 37.6558L91.839 40.3117" stroke="#E6E6E6" stroke-width="2" stroke-linecap="round" stroke-linejoin="round"/>
<path d="M89.1831 35L89.1831 45.6237" stroke="#E6E6E6" stroke-width="2" stroke-linecap="round" stroke-linejoin="round"/>
<path d="M94.4949 42.9678L91.839 40.3118" stroke="#E6E6E6" stroke-width="2" stroke-linecap="round" stroke-linejoin="round"/>
<path d="M83.8712 37.6558L86.5271 40.3117" stroke="#E6E6E6" stroke-width="2" stroke-linecap="round" stroke-linejoin="round"/>
</g>
<defs>
<clipPath id="clip0_2426_5249">
<rect width="160" height="80" fill="white"/>
</clipPath>
</defs>
</svg>
