<svg width="70" height="70" viewBox="0 0 70 70" fill="none" xmlns="http://www.w3.org/2000/svg">
<path d="M15 37L56 37" stroke="#E6E6E6" stroke-width="2" stroke-linecap="round" stroke-linejoin="round"/>
<path d="M27 37L27 55" stroke="#E6E6E6" stroke-width="2" stroke-linecap="round" stroke-linejoin="round"/>
<path d="M46 37L46 48" stroke="#E6E6E6" stroke-width="2" stroke-linecap="round" stroke-linejoin="round"/>
<path d="M20 29L20 36" stroke="#E6E6E6" stroke-width="2" stroke-linecap="round" stroke-linejoin="round"/>
<path d="M54 16H44" stroke="#E6E6E6" stroke-width="2" stroke-linecap="round" stroke-linejoin="round"/>
<path d="M59 21L44 21" stroke="#E6E6E6" stroke-width="2" stroke-linecap="round" stroke-linejoin="round"/>
<path d="M59 26L44 26" stroke="#E6E6E6" stroke-width="2" stroke-linecap="round" stroke-linejoin="round"/>
<path d="M37 13L37 36" stroke="#E6E6E6" stroke-width="2" stroke-linecap="round" stroke-linejoin="round"/>
<circle cx="27" cy="60" r="5" stroke="#E6E6E6" stroke-width="2"/>
<circle cx="10" cy="37" r="5" stroke="#E6E6E6" stroke-width="2"/>
<circle cx="14" cy="51" r="4" stroke="#E6E6E6" stroke-width="2"/>
<circle cx="61" cy="37" r="5" stroke="#E6E6E6" stroke-width="2"/>
<circle cx="20" cy="19" r="9" stroke="#E6E6E6" stroke-width="2"/>
<circle cx="46" cy="57" r="8" stroke="#E6E6E6" stroke-width="2"/>
<circle cx="37" cy="9" r="4" stroke="#E6E6E6" stroke-width="2"/>
<path d="M20 15L20 20" stroke="#E6E6E6" stroke-width="2" stroke-linecap="round" stroke-linejoin="round"/>
<path d="M20 23H20.1" stroke="#E6E6E6" stroke-width="2" stroke-linecap="round" stroke-linejoin="round"/>
<path d="M45 54L48.0149 57.0149" stroke="#E6E6E6" stroke-width="2" stroke-linecap="round" stroke-linejoin="round"/>
<path d="M45 60.0249L48.0149 57.01" stroke="#E6E6E6" stroke-width="2" stroke-linecap="round" stroke-linejoin="round"/>
</svg>
