<svg width="160" height="80" viewBox="0 0 160 80" fill="none" xmlns="http://www.w3.org/2000/svg">
<path d="M28 43L62 43" stroke="#E6E6E6" stroke-width="2" stroke-linecap="round" stroke-linejoin="round"/>
<path d="M94 43L129 43" stroke="#E6E6E6" stroke-width="2" stroke-linecap="round" stroke-linejoin="round"/>
<path d="M99 43L99 61" stroke="#E6E6E6" stroke-width="2" stroke-linecap="round" stroke-linejoin="round"/>
<path d="M50 43L50 61" stroke="#E6E6E6" stroke-width="2" stroke-linecap="round" stroke-linejoin="round"/>
<path d="M56 29L56 43" stroke="#E6E6E6" stroke-width="2" stroke-linecap="round" stroke-linejoin="round"/>
<circle cx="56" cy="19" r="9" stroke="#E6E6E6" stroke-width="2"/>
<path d="M56 24H56.1" stroke="#E6E6E6" stroke-width="2" stroke-linecap="round" stroke-linejoin="round"/>
<path d="M54 16C54 15.3333 54.7273 14 56.1818 14C57.6364 14 58 15.3333 58 16C58 18 55.8182 18 55.8182 21" stroke="#E6E6E6" stroke-width="2" stroke-linecap="round"/>
<path d="M121 43L121 51" stroke="#E6E6E6" stroke-width="2" stroke-linecap="round" stroke-linejoin="round"/>
<path d="M33 35L33 42" stroke="#E6E6E6" stroke-width="2" stroke-linecap="round" stroke-linejoin="round"/>
<path d="M122 26H114" stroke="#E6E6E6" stroke-width="2" stroke-linecap="round" stroke-linejoin="round"/>
<path d="M126 31L114 31" stroke="#E6E6E6" stroke-width="2" stroke-linecap="round" stroke-linejoin="round"/>
<path d="M126 36H114" stroke="#E6E6E6" stroke-width="2" stroke-linecap="round" stroke-linejoin="round"/>
<path d="M107 21L107 43" stroke="#E6E6E6" stroke-width="2" stroke-linecap="round" stroke-linejoin="round"/>
<circle cx="99" cy="66" r="5" stroke="#E6E6E6" stroke-width="2"/>
<circle cx="50" cy="66" r="5" stroke="#E6E6E6" stroke-width="2"/>
<circle cx="23" cy="43" r="5" stroke="#E6E6E6" stroke-width="2"/>
<circle cx="134" cy="43" r="5" stroke="#E6E6E6" stroke-width="2"/>
<circle cx="33" cy="26" r="8" stroke="#E6E6E6" stroke-width="2"/>
<circle cx="121" cy="60" r="8" stroke="#E6E6E6" stroke-width="2"/>
<circle cx="107" cy="17" r="4" stroke="#E6E6E6" stroke-width="2"/>
<path d="M33 22L33 27" stroke="#E6E6E6" stroke-width="2" stroke-linecap="round" stroke-linejoin="round"/>
<path d="M121 58L124.015 61.0149" stroke="#E6E6E6" stroke-width="2" stroke-linecap="round" stroke-linejoin="round"/>
<path d="M118 61.0249L121.015 58.01" stroke="#E6E6E6" stroke-width="2" stroke-linecap="round" stroke-linejoin="round"/>
<path d="M33 30H33.1" stroke="#E6E6E6" stroke-width="2" stroke-linecap="round" stroke-linejoin="round"/>
<path d="M88.4331 52.5599C91.3388 49.9048 93.187 46.1048 93.2561 41.8587C93.3892 33.6748 86.8628 26.9326 78.679 26.7995C70.4951 26.6664 63.7529 33.1928 63.6198 41.3766C63.4866 49.5604 70.013 56.3027 78.1969 56.4358L80.3919 56.0397" stroke="#E6E6E6" stroke-width="2" stroke-linecap="round"/>
<path d="M77.7581 52.0718L81.8394 56.5551L77.8543 60.1829" stroke="#E6E6E6" stroke-width="2" stroke-linecap="round" stroke-linejoin="round"/>
<path d="M78 34V42L83 46" stroke="#E6E6E6" stroke-width="2" stroke-linecap="round" stroke-linejoin="round"/>
</svg>
