<svg width="160" height="70" viewBox="0 0 160 70" fill="none" xmlns="http://www.w3.org/2000/svg">
<path d="M44 7C28.6145 7.08557 15.9289 19.5932 16.0004 34.9532C16.0718 50.3132 28.6144 63.0713 43.9999 63" stroke="#E6E6E6" stroke-width="2"/>
<path d="M43 63.0005C43 63.5528 43.4477 64.0005 44 64.0005C44.5523 64.0005 45 63.5528 45 63.0005L43 63.0005ZM45 7.00017C45 6.44788 44.5523 6.00017 44 6.00017C43.4477 6.00017 43 6.44788 43 7.00017L45 7.00017ZM17.1777 33.8705C16.6254 33.8679 16.1755 34.3134 16.1728 34.8657C16.1702 35.418 16.6157 35.8678 17.168 35.8705L17.1777 33.8705ZM43.9952 36.0003C44.5474 36.003 44.9973 35.5574 45 35.0052C45.0027 34.4529 44.5571 34.003 44.0048 34.0003L43.9952 36.0003ZM23.9019 52.6991C23.4593 53.0294 23.3683 53.656 23.6986 54.0986C24.0289 54.5412 24.6555 54.6322 25.0981 54.3019L23.9019 52.6991ZM25.0981 14.1991C24.6555 13.8687 24.0289 13.9598 23.6986 14.4024C23.3683 14.845 23.4593 15.4716 23.9019 15.8019L25.0981 14.1991ZM42.4351 8.20473C42.8493 7.83932 42.8888 7.20739 42.5234 6.79327C42.1579 6.37915 41.526 6.33965 41.1119 6.70506L42.4351 8.20473ZM37.7144 57.7597L36.9367 58.3884L36.9389 58.391L37.7144 57.7597ZM41.1134 62.7517C41.5283 63.1163 42.1601 63.0755 42.5247 62.6607C42.8893 62.2458 42.8485 61.614 42.4336 61.2494L41.1134 62.7517ZM44 23.0005L45 23.0005V23.0005L44 23.0005ZM44.1393 46.9903C44.6862 46.9133 45.0672 46.4076 44.9903 45.8607C44.9133 45.3138 44.4076 44.9328 43.8607 45.0097L44.1393 46.9903ZM43 61C43 61.5523 43.4477 62 44 62C44.5523 62 45 61.5523 45 61L43 61ZM45 59.5005C45 58.9482 44.5523 58.5005 44 58.5005C43.4477 58.5005 43 58.9482 43 59.5005L45 59.5005ZM17.168 35.8705L43.9952 36.0003L44.0048 34.0003L17.1777 33.8705L17.168 35.8705ZM41.1119 6.70506C26.2868 19.7862 24.4268 42.9126 36.9367 58.3884L38.4921 57.1311C26.6473 42.4782 28.4227 20.5688 42.4351 8.20473L41.1119 6.70506ZM36.9389 58.391C38.2139 59.9574 39.6051 61.4263 41.1134 62.7517L42.4336 61.2494C41.0172 60.0047 39.7023 58.6177 38.4899 57.1284L36.9389 58.391ZM23.9019 15.8019C30.1185 20.4411 36.4337 24.0005 44 24.0005L44 22.0005C37.0997 22.0005 31.2229 18.7698 25.0981 14.1991L23.9019 15.8019ZM45 23.0005L45 7.00017L43 7.00017L43 23.0005L45 23.0005ZM43.8607 45.0097C41.1938 45.3849 37.4209 46.4073 33.7353 47.7688C30.0581 49.1273 26.365 50.861 23.9019 52.6991L25.0981 54.3019C27.3333 52.6338 30.8168 50.9792 34.4284 49.6449C38.0315 48.3138 41.6595 47.339 44.1393 46.9903L43.8607 45.0097ZM45 61L45 23.0005L43 23.0005L43 61L45 61ZM45 63.0005L45 59.5005L43 59.5005L43 63.0005L45 63.0005Z" fill="#E6E6E6"/>
<path d="M48 23H66" stroke="#E6E6E6" stroke-width="2" stroke-linecap="round" stroke-linejoin="round"/>
<path d="M48 48H66" stroke="#E6E6E6" stroke-width="2" stroke-linecap="round" stroke-linejoin="round"/>
<path d="M48 29H56" stroke="#E6E6E6" stroke-width="2" stroke-linecap="round" stroke-linejoin="round"/>
<path d="M101 27L101 35" stroke="#E6E6E6" stroke-width="2" stroke-linecap="round" stroke-linejoin="round"/>
<path d="M119 43L119 35" stroke="#E6E6E6" stroke-width="2" stroke-linecap="round" stroke-linejoin="round"/>
<path d="M136 43L136 35" stroke="#E6E6E6" stroke-width="2" stroke-linecap="round" stroke-linejoin="round"/>
<path d="M75 27L75 35" stroke="#E6E6E6" stroke-width="2" stroke-linecap="round" stroke-linejoin="round"/>
<path d="M48 42H56" stroke="#E6E6E6" stroke-width="2" stroke-linecap="round" stroke-linejoin="round"/>
<path d="M48 17L55 17" stroke="#E6E6E6" stroke-width="2" stroke-linecap="round" stroke-linejoin="round"/>
<path d="M48 54L55 54" stroke="#E6E6E6" stroke-width="2" stroke-linecap="round" stroke-linejoin="round"/>
<path d="M42 35L65 35" stroke="#E6E6E6" stroke-width="2" stroke-linecap="round" stroke-linejoin="round"/>
<path d="M152 36C152.552 36 153 35.5523 153 35C153 34.4477 152.552 34 152 34L152 36ZM36 36L152 36L152 34L36 34L36 36Z" fill="#E6E6E6"/>
<path d="M80.4834 52.6909C80.2015 53.1658 80.358 53.7794 80.8329 54.0612C81.3079 54.3431 81.9214 54.1866 82.2033 53.7117L80.4834 52.6909ZM88.4404 39.285L80.4834 52.6909L82.2033 53.7117L90.1602 40.3058L88.4404 39.285Z" fill="#E6E6E6"/>
<path d="M147 29L154 35.0174" stroke="#E6E6E6" stroke-width="2" stroke-linecap="round" stroke-linejoin="round"/>
<path d="M147 41.0249L154 35.0075" stroke="#E6E6E6" stroke-width="2" stroke-linecap="round" stroke-linejoin="round"/>
<ellipse cx="88.5" cy="39" rx="8.5" ry="9" transform="rotate(180 88.5 39)" fill="#242E42" stroke="#E6E6E6" stroke-width="2"/>
<path d="M128.143 24.4912C137.603 24.5156 145.283 20.4059 145.296 15.3119C145.309 10.218 137.651 6.06869 128.191 6.04425C118.731 6.01981 111.051 10.1295 111.038 15.2235C111.032 17.2575 112.25 19.1409 114.318 20.6712C114.971 22.8127 115.75 27.4897 113.637 29.0654C110.997 31.0351 120.884 28.988 121.557 23.7672C123.584 24.2279 125.809 24.4851 128.143 24.4912Z" fill="#242E42" stroke="#E6E6E6" stroke-width="2"/>
<circle cx="128.167" cy="15.2682" r="2.13378" transform="rotate(0.148005 128.167 15.2682)" fill="#D9D9D9"/>
<circle cx="120.7" cy="15.2482" r="2.13378" transform="rotate(0.148005 120.7 15.2482)" fill="#D9D9D9"/>
<circle cx="135.635" cy="15.2867" r="2.13378" transform="rotate(0.148005 135.635 15.2867)" fill="#D9D9D9"/>
<circle cx="63.6255" cy="34.5" r="4.5" transform="rotate(180 63.6255 34.5)" fill="#242E42" stroke="#E6E6E6" stroke-width="2"/>
<circle cx="119" cy="48" r="4" fill="#242E42" stroke="#E6E6E6" stroke-width="2"/>
<circle cx="101" cy="22" r="4" transform="rotate(180 101 22)" fill="#242E42" stroke="#E6E6E6" stroke-width="2"/>
<circle cx="136" cy="44" r="4" fill="#242E42" stroke="#E6E6E6" stroke-width="2"/>
<circle cx="75" cy="23" r="4" transform="rotate(180 75 23)" fill="#242E42" stroke="#E6E6E6" stroke-width="2"/>
<path d="M18.0067 61.8694L25.1256 43.5835L6.8397 50.7024L10.5185 54.3812L3.67871 61.2209L7.4881 65.0303L14.3279 58.1906L18.0067 61.8694Z" fill="#242E42" stroke="#E6E6E6" stroke-width="2" stroke-linejoin="round"/>
<path d="M87 39L90 39" stroke="#E6E6E6" stroke-width="2" stroke-linecap="round" stroke-linejoin="round"/>
<path d="M85 41L86 40" stroke="#E6E6E6" stroke-width="2" stroke-linecap="round" stroke-linejoin="round"/>
<path d="M92 37.207L91 38.207" stroke="#E6E6E6" stroke-width="2" stroke-linecap="round" stroke-linejoin="round"/>
<path d="M88.5 41.207L88.5 39.7928" stroke="#E6E6E6" stroke-width="2" stroke-linecap="round" stroke-linejoin="round"/>
<path d="M88.5 37L88.5 38.4142" stroke="#E6E6E6" stroke-width="2" stroke-linecap="round" stroke-linejoin="round"/>
<path d="M92 41L91 40" stroke="#E6E6E6" stroke-width="2" stroke-linecap="round" stroke-linejoin="round"/>
<path d="M85 37.207L86 38.207" stroke="#E6E6E6" stroke-width="2" stroke-linecap="round" stroke-linejoin="round"/>
<path d="M91.01 62.4927L92.3415 57.6016H94.0686L91.9109 64H90.7947L91.01 62.4927ZM89.8015 57.6016L91.133 62.4927L91.3572 64H90.2278L88.0832 57.6016H89.8015ZM96.8479 64.0879C96.4612 64.0879 96.1154 64.0278 95.8108 63.9077C95.5061 63.7847 95.2483 63.6162 95.0373 63.4023C94.8293 63.1885 94.6696 62.9424 94.5583 62.6641C94.4499 62.3857 94.3957 62.0913 94.3957 61.7808V61.6138C94.3957 61.2651 94.4441 60.9429 94.5407 60.647C94.6374 60.3481 94.781 60.0874 94.9714 59.8647C95.1618 59.6421 95.4006 59.4692 95.6877 59.3462C95.9748 59.2202 96.3088 59.1572 96.6897 59.1572C97.0266 59.1572 97.3283 59.2114 97.5949 59.3198C97.8615 59.4282 98.0871 59.5835 98.2717 59.7856C98.4592 59.9878 98.6013 60.2324 98.698 60.5195C98.7976 60.8066 98.8474 61.1289 98.8474 61.4863V62.0884H94.9626V61.1611H97.4016V61.0469C97.4045 60.8887 97.3767 60.7539 97.3181 60.6426C97.2624 60.5312 97.1804 60.4463 97.072 60.3877C96.9636 60.3291 96.8318 60.2998 96.6765 60.2998C96.5154 60.2998 96.382 60.335 96.2766 60.4053C96.174 60.4756 96.0935 60.5723 96.0349 60.6953C95.9792 60.8154 95.9397 60.9546 95.9162 61.1128C95.8928 61.271 95.8811 61.438 95.8811 61.6138V61.7808C95.8811 61.9565 95.9045 62.1162 95.9514 62.2598C96.0012 62.4033 96.0715 62.5264 96.1623 62.6289C96.2561 62.7285 96.3674 62.8062 96.4963 62.8618C96.6281 62.9175 96.7776 62.9453 96.9445 62.9453C97.1467 62.9453 97.3459 62.9072 97.5422 62.8311C97.7385 62.7549 97.907 62.6289 98.0476 62.4531L98.7199 63.2529C98.6233 63.3906 98.4856 63.5239 98.3069 63.6528C98.1311 63.7817 97.9201 63.8872 97.674 63.9692C97.4279 64.0483 97.1526 64.0879 96.8479 64.0879ZM101.214 60.4229V64H99.7326V59.2451H101.117L101.214 60.4229ZM102.62 59.21L102.593 60.5854C102.535 60.5796 102.456 60.5723 102.356 60.5635C102.257 60.5547 102.173 60.5503 102.106 60.5503C101.933 60.5503 101.783 60.5708 101.657 60.6118C101.534 60.6499 101.432 60.7085 101.35 60.7876C101.271 60.8638 101.212 60.9604 101.174 61.0776C101.139 61.1948 101.123 61.3311 101.126 61.4863L100.858 61.3105C100.858 60.9912 100.888 60.7012 100.95 60.4404C101.014 60.1768 101.105 59.9497 101.222 59.7593C101.34 59.5659 101.482 59.418 101.649 59.3154C101.816 59.21 102.003 59.1572 102.211 59.1572C102.284 59.1572 102.356 59.1616 102.426 59.1704C102.5 59.1792 102.564 59.1924 102.62 59.21ZM105.891 62.6641C105.891 62.582 105.863 62.5117 105.808 62.4531C105.755 62.3916 105.661 62.3359 105.527 62.2861C105.392 62.2334 105.203 62.1807 104.96 62.1279C104.728 62.0781 104.51 62.0122 104.305 61.9302C104.103 61.8481 103.925 61.7485 103.773 61.6313C103.621 61.5142 103.501 61.375 103.413 61.2139C103.328 61.0527 103.285 60.8682 103.285 60.6602C103.285 60.458 103.328 60.2676 103.413 60.0889C103.501 59.9072 103.628 59.7476 103.795 59.6099C103.965 59.4692 104.172 59.3594 104.415 59.2803C104.658 59.1982 104.935 59.1572 105.245 59.1572C105.673 59.1572 106.042 59.2231 106.353 59.355C106.663 59.4839 106.902 59.6655 107.069 59.8999C107.239 60.1313 107.324 60.3994 107.324 60.7041H105.843C105.843 60.584 105.822 60.4814 105.781 60.3965C105.743 60.3115 105.68 60.2471 105.592 60.2031C105.505 60.1562 105.387 60.1328 105.241 60.1328C105.138 60.1328 105.045 60.1519 104.96 60.1899C104.878 60.228 104.812 60.2808 104.762 60.3481C104.712 60.4155 104.687 60.4946 104.687 60.5854C104.687 60.6499 104.702 60.7085 104.731 60.7612C104.763 60.811 104.812 60.8579 104.876 60.9019C104.941 60.9429 105.023 60.981 105.122 61.0161C105.222 61.0483 105.342 61.0776 105.483 61.104C105.802 61.1626 106.101 61.2461 106.379 61.3545C106.657 61.4629 106.883 61.6167 107.056 61.8159C107.232 62.0151 107.32 62.2832 107.32 62.6201C107.32 62.8311 107.271 63.0259 107.174 63.2046C107.078 63.3804 106.939 63.5356 106.757 63.6704C106.575 63.8022 106.357 63.9048 106.102 63.978C105.847 64.0513 105.56 64.0879 105.241 64.0879C104.787 64.0879 104.403 64.0073 104.09 63.8462C103.776 63.6821 103.539 63.4771 103.378 63.231C103.219 62.9819 103.14 62.73 103.14 62.4751H104.52C104.526 62.6216 104.561 62.7417 104.626 62.8354C104.693 62.9292 104.782 62.998 104.894 63.042C105.005 63.0859 105.134 63.1079 105.28 63.1079C105.415 63.1079 105.527 63.0889 105.614 63.0508C105.705 63.0127 105.774 62.9614 105.821 62.897C105.868 62.8296 105.891 62.752 105.891 62.6641ZM109.848 59.2451V64H108.363V59.2451H109.848ZM108.275 58.019C108.275 57.8081 108.351 57.6353 108.504 57.5005C108.656 57.3657 108.854 57.2983 109.097 57.2983C109.34 57.2983 109.538 57.3657 109.69 57.5005C109.842 57.6353 109.919 57.8081 109.919 58.019C109.919 58.23 109.842 58.4028 109.69 58.5376C109.538 58.6724 109.34 58.7397 109.097 58.7397C108.854 58.7397 108.656 58.6724 108.504 58.5376C108.351 58.4028 108.275 58.23 108.275 58.019ZM110.848 61.6709V61.5786C110.848 61.23 110.898 60.9092 110.997 60.6162C111.097 60.3203 111.243 60.064 111.437 59.8472C111.63 59.6304 111.869 59.4619 112.153 59.3418C112.437 59.2188 112.765 59.1572 113.137 59.1572C113.512 59.1572 113.842 59.2188 114.126 59.3418C114.413 59.4619 114.653 59.6304 114.847 59.8472C115.04 60.064 115.187 60.3203 115.286 60.6162C115.386 60.9092 115.436 61.23 115.436 61.5786V61.6709C115.436 62.0166 115.386 62.3374 115.286 62.6333C115.187 62.9263 115.04 63.1826 114.847 63.4023C114.653 63.6191 114.415 63.7876 114.131 63.9077C113.846 64.0278 113.518 64.0879 113.146 64.0879C112.774 64.0879 112.444 64.0278 112.157 63.9077C111.87 63.7876 111.63 63.6191 111.437 63.4023C111.243 63.1826 111.097 62.9263 110.997 62.6333C110.898 62.3374 110.848 62.0166 110.848 61.6709ZM112.329 61.5786V61.6709C112.329 61.8496 112.342 62.0166 112.368 62.1719C112.395 62.3271 112.439 62.4634 112.5 62.5806C112.562 62.6948 112.645 62.7842 112.751 62.8486C112.856 62.9131 112.988 62.9453 113.146 62.9453C113.301 62.9453 113.43 62.9131 113.533 62.8486C113.638 62.7842 113.722 62.6948 113.783 62.5806C113.845 62.4634 113.889 62.3271 113.915 62.1719C113.942 62.0166 113.955 61.8496 113.955 61.6709V61.5786C113.955 61.4058 113.942 61.2432 113.915 61.0908C113.889 60.9355 113.845 60.7993 113.783 60.6821C113.722 60.562 113.638 60.4683 113.533 60.4009C113.427 60.3335 113.296 60.2998 113.137 60.2998C112.982 60.2998 112.852 60.3335 112.746 60.4009C112.644 60.4683 112.562 60.562 112.5 60.6821C112.439 60.7993 112.395 60.9355 112.368 61.0908C112.342 61.2432 112.329 61.4058 112.329 61.5786ZM117.819 60.2603V64H116.338V59.2451H117.727L117.819 60.2603ZM117.644 61.46L117.297 61.4688C117.297 61.1055 117.34 60.7817 117.428 60.4976C117.516 60.2104 117.641 59.9673 117.802 59.7681C117.963 59.5688 118.155 59.418 118.378 59.3154C118.603 59.21 118.854 59.1572 119.129 59.1572C119.349 59.1572 119.549 59.1895 119.731 59.2539C119.916 59.3184 120.074 59.4224 120.206 59.5659C120.34 59.7095 120.443 59.8999 120.513 60.1372C120.587 60.3716 120.623 60.6616 120.623 61.0073V64H119.133V61.0029C119.133 60.8125 119.107 60.6675 119.054 60.5679C119.002 60.4653 118.925 60.395 118.826 60.3569C118.726 60.3188 118.605 60.2998 118.461 60.2998C118.309 60.2998 118.18 60.3291 118.074 60.3877C117.969 60.4463 117.884 60.5283 117.819 60.6338C117.758 60.7363 117.713 60.8579 117.683 60.9985C117.657 61.1392 117.644 61.293 117.644 61.46ZM127.482 57.6016V64H126.002V59.2715L124.543 59.6978V58.5728L127.346 57.6016H127.482ZM129.814 63.3057C129.814 63.0947 129.89 62.9189 130.042 62.7783C130.194 62.6348 130.391 62.563 130.631 62.563C130.874 62.563 131.07 62.6348 131.22 62.7783C131.372 62.9189 131.448 63.0947 131.448 63.3057C131.448 63.5166 131.372 63.6938 131.22 63.8374C131.07 63.978 130.874 64.0483 130.631 64.0483C130.391 64.0483 130.194 63.978 130.042 63.8374C129.89 63.6938 129.814 63.5166 129.814 63.3057ZM135.968 57.6016V64H134.487V59.2715L133.028 59.6978V58.5728L135.832 57.6016H135.968ZM138.299 63.3057C138.299 63.0947 138.375 62.9189 138.527 62.7783C138.68 62.6348 138.876 62.563 139.116 62.563C139.359 62.563 139.556 62.6348 139.705 62.7783C139.857 62.9189 139.934 63.0947 139.934 63.3057C139.934 63.5166 139.857 63.6938 139.705 63.8374C139.556 63.978 139.359 64.0483 139.116 64.0483C138.876 64.0483 138.68 63.978 138.527 63.8374C138.375 63.6938 138.299 63.5166 138.299 63.3057ZM144.453 57.6016V64H142.972V59.2715L141.513 59.6978V58.5728L144.317 57.6016H144.453Z" fill="#E6E6E6"/>
</svg>
