<svg width="70" height="70" viewBox="0 0 70 70" fill="none" xmlns="http://www.w3.org/2000/svg">
<path d="M63 34.8564C62.9138 19.392 50.3211 6.92851 34.8566 7.00031C19.392 7.08646 6.92852 19.6791 7.00032 35.1436C7.07211 50.608 19.6792 63.0715 35.1437 62.9997C50.4934 62.9279 62.9138 50.4932 63 35.1436L63 34.8564Z" stroke="#E6E6E6" stroke-width="2"/>
<path d="M29.7563 8C15.4147 24.1464 15.4147 45.8536 29.7563 62" stroke="#E6E6E6" stroke-width="2" stroke-linecap="round" stroke-linejoin="bevel"/>
<path d="M40.2438 62C54.5855 45.8536 54.5855 24.1464 40.2438 8" stroke="#E6E6E6" stroke-width="2" stroke-linecap="round" stroke-linejoin="bevel"/>
<path d="M62 29.7559C45.8536 15.4141 24.1464 15.4141 8 29.7559" stroke="#E6E6E6" stroke-width="2" stroke-linecap="round"/>
<path d="M8 40.2441C24.1464 54.5859 45.8536 54.5859 62 40.2442" stroke="#E6E6E6" stroke-width="2" stroke-linecap="round"/>
<path d="M7 35H22.5" stroke="#E6E6E6" stroke-width="2" stroke-linecap="round" stroke-linejoin="round"/>
<path d="M48 35L63 35" stroke="#E6E6E6" stroke-width="2" stroke-linecap="round" stroke-linejoin="round"/>
<path d="M35 7L35 19" stroke="#E6E6E6" stroke-width="2" stroke-linecap="round" stroke-linejoin="round"/>
<path d="M35 25L35 35" stroke="#E6E6E6" stroke-width="2" stroke-linecap="round" stroke-linejoin="round"/>
<path d="M41.4641 37.8071L35 35" stroke="#E6E6E6" stroke-width="2" stroke-linecap="round" stroke-linejoin="round"/>
<path d="M35 48L35 62" stroke="#E6E6E6" stroke-width="2" stroke-linecap="round" stroke-linejoin="round"/>
</svg>
