<svg width="82" height="46" viewBox="0 0 82 46" fill="none" xmlns="http://www.w3.org/2000/svg">
<g clip-path="url(#clip0_1775_4772)">
<g clip-path="url(#clip1_1775_4772)">
<path d="M39.5555 25.7222H43.5111V41.5444H39.5555V25.7222Z" fill="#E6E6E6"/>
<path d="M51.2331 41.0691C50.2461 40.8317 49.3065 40.4226 48.4556 39.8598L49.8443 36.6854C50.564 37.1591 51.3466 37.525 52.1682 37.7719C53.0072 38.0413 53.8809 38.1814 54.7605 38.1876C56.3807 38.1876 57.1862 37.7719 57.1862 36.9405C57.1814 36.7301 57.113 36.5264 56.9903 36.3573C56.8677 36.1882 56.6968 36.0619 56.5011 35.9957C55.779 35.705 55.0321 35.4836 54.2698 35.3344C53.3271 35.1356 52.3991 34.8704 51.4923 34.5408C50.7427 34.2609 50.0741 33.793 49.548 33.1803C48.9819 32.4707 48.6948 31.5715 48.7426 30.6578C48.7347 29.7659 48.993 28.8926 49.4832 28.1541C50.0442 27.3555 50.8189 26.7389 51.7145 26.378C52.8682 25.9112 54.1032 25.6894 55.3438 25.7261C56.3193 25.7256 57.2917 25.8397 58.2416 26.0662C59.1221 26.2663 59.9679 26.6007 60.7506 27.0582L59.4545 30.2515C58.1965 29.5118 56.7768 29.1058 55.3253 29.0706C54.6846 29.0199 54.043 29.1541 53.4736 29.4579C53.3065 29.5518 53.1658 29.6881 53.0653 29.8536C52.9648 30.0191 52.9077 30.2082 52.8996 30.4027C52.8919 30.6147 52.9544 30.8232 53.077 30.9946C53.1996 31.166 53.3752 31.2903 53.5754 31.3475C54.2866 31.6256 55.021 31.8375 55.7696 31.9804C56.7127 32.1779 57.6408 32.4431 58.5471 32.7741C59.2899 33.0531 59.9543 33.5138 60.4821 34.1156C61.0592 34.8164 61.3537 35.7147 61.3061 36.6287C61.3153 37.5134 61.053 38.3789 60.5562 39.104C59.9922 39.8997 59.2185 40.5156 58.325 40.8802C57.1745 41.3479 55.943 41.5729 54.7049 41.5415C53.5324 41.5388 52.3653 41.38 51.2331 41.0691V41.0691Z" fill="#E6E6E6"/>
<path d="M76.8802 41.5444L73.5985 36.6459L70.3758 41.5444H65.2667L71.0243 33.5598L65.5123 25.7222H70.5822L73.7459 30.2778L76.8605 25.7222H81.7044L76.1826 33.3443L82.0778 41.5052L76.8802 41.5444Z" fill="#E6E6E6"/>
<path d="M23.4816 24.4597H12.6447L27.5491 41.5441H36.5302L27.1356 30.7684C30.1794 29.8011 32.7875 27.7646 34.4952 25.0215C36.2029 22.2784 36.8995 19.0068 36.4609 15.7894C36.0222 12.572 34.4769 9.61761 32.1 7.45246C29.7231 5.2873 26.669 4.05192 23.4816 3.96631H0V10.8236H23.4816C25.2668 10.8236 26.9789 11.546 28.2412 12.832C29.5035 14.118 30.2126 15.8622 30.2126 17.6808C30.2126 19.4995 29.5035 21.2436 28.2412 22.5296C26.9789 23.8156 25.2668 24.5381 23.4816 24.5381V24.4597Z" fill="url(#paint0_linear_1775_4772)"/>
<path d="M23.531 13.6591H0V41.5441H6.74517V20.6254H23.531C24.4255 20.6254 25.2833 20.2568 25.9158 19.6008C26.5483 18.9448 26.9036 18.055 26.9036 17.1273C26.9036 16.1995 26.5483 15.3098 25.9158 14.6537C25.2833 13.9977 24.4255 13.6292 23.531 13.6292V13.6591Z" fill="url(#paint1_linear_1775_4772)"/>
</g>
</g>
<defs>
<linearGradient id="paint0_linear_1775_4772" x1="-0.538073" y1="2.35583" x2="36.4979" y2="41.6298" gradientUnits="userSpaceOnUse">
<stop stop-color="#2797FF"/>
<stop offset="1" stop-color="#1EBE54"/>
</linearGradient>
<linearGradient id="paint1_linear_1775_4772" x1="-0.538073" y1="2.35583" x2="36.4979" y2="41.6298" gradientUnits="userSpaceOnUse">
<stop stop-color="#2797FF"/>
<stop offset="1" stop-color="#1EBE54"/>
</linearGradient>
<clipPath id="clip0_1775_4772">
<rect width="82" height="46" fill="white"/>
</clipPath>
<clipPath id="clip1_1775_4772">
<rect width="89" height="40.5444" fill="white" transform="translate(0 1)"/>
</clipPath>
</defs>
</svg>
