<svg width="27" height="42" viewBox="0 0 27 42" fill="none" xmlns="http://www.w3.org/2000/svg">
<path d="M8.8125 30.3333C8.8125 36.5556 18.1875 36.5556 18.1875 30.3333M10.375 11.6667V10.1111C10.375 5.96296 16.625 5.96296 16.625 10.1111V12.4444M4.125 10.1111C3.17803 11 1 13.4889 1 16.3333M22.875 10.1111C23.822 11 26 13.4889 26 16.3333M24.4375 28.7778H2.5625C2.5625 27.3519 6.66406 28.7778 6.66406 21.271C6.66406 19.2692 6.66406 19.1735 6.66406 17.9223C6.66406 15.8371 8.03125 11.6667 13.5 11.6667C17.875 11.6667 20.3359 16.0456 20.3359 17.9223C20.3359 18.965 20.3111 19.7698 20.3359 21.271C20.4602 28.7778 24.4375 27.4638 24.4375 28.7778Z" stroke="#E6E6E6" stroke-width="2" stroke-linecap="round" stroke-linejoin="round"/>
</svg>
