<svg width="70" height="70" viewBox="0 0 70 70" fill="none" xmlns="http://www.w3.org/2000/svg">
<g clip-path="url(#clip0_1419_5260)">
<path d="M35 7C19.6145 7.08557 6.92894 19.5932 7.00037 34.9532C7.0718 50.3132 19.6144 63.0713 34.9999 63" stroke="#E6E6E6" stroke-width="2"/>
<path d="M34 63C34 63.5523 34.4477 64 35 64C35.5523 64 36 63.5523 36 63L34 63ZM36 6.99968C36 6.4474 35.5523 5.99968 35 5.99968C34.4477 5.99968 34 6.4474 34 6.99968L36 6.99968ZM8.17766 33.8701C7.62538 33.8674 7.17551 34.3129 7.17283 34.8652C7.17016 35.4175 7.61571 35.8674 8.16798 35.87L8.17766 33.8701ZM34.9952 35.9998C35.5474 36.0025 35.9973 35.557 36 35.0047C36.0027 34.4524 35.5571 34.0025 35.0048 33.9999L34.9952 35.9998ZM14.9019 52.6986C14.4593 53.0289 14.3683 53.6555 14.6986 54.0981C15.0289 54.5407 15.6555 54.6317 16.0981 54.3014L14.9019 52.6986ZM16.0981 14.1986C15.6555 13.8683 15.0289 13.9593 14.6986 14.4019C14.3683 14.8445 14.4593 15.4711 14.9019 15.8014L16.0981 14.1986ZM33.4351 8.20424C33.8493 7.83884 33.8888 7.2069 33.5234 6.79278C33.1579 6.37866 32.526 6.33917 32.1119 6.70457L33.4351 8.20424ZM28.7144 57.7592L27.9367 58.3879L27.9389 58.3905L28.7144 57.7592ZM32.1134 62.7513C32.5283 63.1158 33.1601 63.0751 33.5247 62.6602C33.8892 62.2453 33.8485 61.6135 33.4336 61.2489L32.1134 62.7513ZM30.1393 48.325C30.6862 48.2481 31.0672 47.7424 30.9903 47.1955C30.9133 46.6486 30.4076 46.2676 29.8607 46.3445L30.1393 48.325ZM34 39.5C34 40.0523 34.4477 40.5 35 40.5C35.5523 40.5 36 40.0523 36 39.5L34 39.5ZM36 59.5C36 58.9477 35.5523 58.5 35 58.5C34.4477 58.5 34 58.9477 34 59.5L36 59.5ZM8.16798 35.87L34.9952 35.9998L35.0048 33.9999L8.17766 33.8701L8.16798 35.87ZM32.1119 6.70457C17.2868 19.7857 15.4268 42.9121 27.9367 58.3879L29.4921 57.1306C17.6473 42.4777 19.4227 20.5683 33.4351 8.20424L32.1119 6.70457ZM27.9389 58.3905C29.2139 59.9569 30.6051 61.4258 32.1134 62.7513L33.4336 61.2489C32.0172 60.0042 30.7023 58.6172 29.4899 57.1279L27.9389 58.3905ZM14.9019 15.8014C21.1185 20.4406 27.4337 24 35 24L35 22C28.0997 22 22.2229 18.7693 16.0981 14.1986L14.9019 15.8014ZM36 23L36 6.99968L34 6.99968L34 23L36 23ZM29.8607 46.3445C24.5348 47.0936 19.724 49.1 14.9019 52.6986L16.0981 54.3014C20.6726 50.8876 25.1719 49.0237 30.1393 48.325L29.8607 46.3445ZM36 39.5L36 23L34 23L34 39.5L36 39.5ZM36 63L36 59.5L34 59.5L34 63L36 63Z" fill="#E6E6E6"/>
<path d="M39 23H57" stroke="#E6E6E6" stroke-width="2" stroke-linecap="round" stroke-linejoin="round"/>
<path d="M55 53L58 53" stroke="#E6E6E6" stroke-width="2" stroke-linecap="round" stroke-linejoin="round"/>
<path d="M55 47L58 47" stroke="#E6E6E6" stroke-width="2" stroke-linecap="round" stroke-linejoin="round"/>
<path d="M41 49L44 49" stroke="#E6E6E6" stroke-width="2" stroke-linecap="round" stroke-linejoin="round"/>
<path d="M39 51L40 50" stroke="#E6E6E6" stroke-width="2" stroke-linecap="round" stroke-linejoin="round"/>
<path d="M46 47.207L45 48.207" stroke="#E6E6E6" stroke-width="2" stroke-linecap="round" stroke-linejoin="round"/>
<path d="M42.5 51.207L42.5 49.7928" stroke="#E6E6E6" stroke-width="2" stroke-linecap="round" stroke-linejoin="round"/>
<path d="M42.5 47L42.5 48.4142" stroke="#E6E6E6" stroke-width="2" stroke-linecap="round" stroke-linejoin="round"/>
<path d="M46 51L45 50" stroke="#E6E6E6" stroke-width="2" stroke-linecap="round" stroke-linejoin="round"/>
<path d="M39 47.207L40 48.207" stroke="#E6E6E6" stroke-width="2" stroke-linecap="round" stroke-linejoin="round"/>
<path d="M52 41L60 41" stroke="#E6E6E6" stroke-width="2" stroke-linecap="round" stroke-linejoin="round"/>
<path d="M39 29H58" stroke="#E6E6E6" stroke-width="2" stroke-linecap="round" stroke-linejoin="round"/>
<path d="M48 56L52.9497 60.9497" stroke="#E6E6E6" stroke-width="2" stroke-linecap="round" stroke-linejoin="round"/>
<path d="M39 17L46 17" stroke="#E6E6E6" stroke-width="2" stroke-linecap="round" stroke-linejoin="round"/>
<path d="M33 35L56 35" stroke="#E6E6E6" stroke-width="2" stroke-linecap="round" stroke-linejoin="round"/>
<path d="M51 49.5C51 54.1944 47.1944 58 42.5 58C37.8056 58 34 54.1944 34 49.5C34 44.8056 37.8056 41 42.5 41C47.1944 41 51 44.8056 51 49.5Z" stroke="#E6E6E6" stroke-width="2"/>
</g>
<defs>
<clipPath id="clip0_1419_5260">
<rect width="70" height="70" fill="white"/>
</clipPath>
</defs>
</svg>
