<svg width="70" height="70" viewBox="0 0 70 70" fill="none" xmlns="http://www.w3.org/2000/svg">
<path d="M34.8566 7.00049C19.3921 7.08664 6.92857 19.6793 7.00036 35.1438C7.07216 50.6082 19.6793 63.0717 35.1438 62.9999" stroke="#E6E6E6" stroke-width="2" stroke-linecap="round" stroke-linejoin="round"/>
<path d="M35 7C11.0001 23.7444 11.0001 46.2556 35 63" stroke="#E6E6E6" stroke-width="2" stroke-linecap="round" stroke-linejoin="bevel"/>
<path d="M7 35H53" stroke="#E6E6E6" stroke-width="2" stroke-linecap="round" stroke-linejoin="round"/>
<path d="M55 28.998L61.0174 35.0154" stroke="#E6E6E6" stroke-width="2" stroke-linecap="round" stroke-linejoin="round"/>
<path d="M55 41.0229L61.0174 35.0056" stroke="#E6E6E6" stroke-width="2" stroke-linecap="round" stroke-linejoin="round"/>
<path d="M51 35C39.3333 33.8406 16 28.2174 16 15" stroke="#E6E6E6" stroke-width="2" stroke-linecap="round" stroke-linejoin="round"/>
<path d="M47 27C39.6667 26.1884 25 22.2522 25 13" stroke="#E6E6E6" stroke-width="2" stroke-linecap="round" stroke-linejoin="round"/>
<path d="M46 43C38.6667 43.8116 24 47.7478 24 57" stroke="#E6E6E6" stroke-width="2" stroke-linecap="round" stroke-linejoin="round"/>
<path d="M51 35C39.3333 36.1594 16 41.7826 16 55" stroke="#E6E6E6" stroke-width="2" stroke-linecap="round" stroke-linejoin="round"/>
</svg>
