<svg width="70" height="70" viewBox="0 0 70 70" fill="none" xmlns="http://www.w3.org/2000/svg">
<path d="M44.5 8.65283C55.2358 12.5206 62.9328 22.7515 63.0001 34.8101L63.0001 35.0968C62.9139 50.421 50.4935 62.8351 35.1438 62.9068C19.6793 62.9785 7.07217 50.5357 7.00038 35.0968C6.94471 23.1251 14.4264 12.8773 25 8.83822" stroke="#E6E6E6" stroke-width="2" stroke-linecap="round"/>
<path d="M34.9665 63L34.9665 50.5M8.17888 35.0131L61.754 35.0131M55.7097 52.2358C43.3049 42.9786 26.628 42.9786 14.2233 52.2358M14.2233 17.7903C26.628 27.0475 43.3049 27.0475 55.7097 17.7903M37.027 62.2824C47.6826 52.8803 51.4915 38.1559 47.8968 25M32.9059 62.2824C31.436 60.9907 30.076 59.5555 28.8259 58.0198C21.5006 48.9578 19.2137 37.2123 21.665 26.5" stroke="#E6E6E6" stroke-width="2"/>
<rect x="21" y="23" width="28" height="27" rx="4" fill="#242E42" stroke="#E6E6E6" stroke-width="2"/>
<path d="M41 23C41 23 41 19.2107 41 11.0903C41 2.96992 29 2.9699 29 11.0904C29 14.3383 29 16.5038 29 16.5038" stroke="#E6E6E6" stroke-width="2"/>
<circle cx="63" cy="35" r="4" fill="#242E42" stroke="#E6E6E6" stroke-width="2"/>
<circle cx="56" cy="17" r="4" fill="#242E42" stroke="#E6E6E6" stroke-width="2"/>
<circle cx="56" cy="53" r="4" fill="#242E42" stroke="#E6E6E6" stroke-width="2"/>
<circle cx="13" cy="53" r="4" fill="#242E42" stroke="#E6E6E6" stroke-width="2"/>
<circle cx="7" cy="35" r="4" fill="#242E42" stroke="#E6E6E6" stroke-width="2"/>
<circle cx="13" cy="17" r="4" fill="#242E42" stroke="#E6E6E6" stroke-width="2"/>
<circle cx="35" cy="63" r="4" fill="#242E42" stroke="#E6E6E6" stroke-width="2"/>
<path d="M40 34C40 36.0503 38.7659 38.2284 37 39C37 39.5 37 44 37 45C36.2889 45 33 45 33 45C33 44 33 39.416 33 39C31.2341 38.2284 30 36.0503 30 34C30 31.2386 32.2386 29 35 29C37.7614 29 40 31.2386 40 34Z" fill="#242E42" stroke="#E6E6E6" stroke-width="2"/>
</svg>
