<svg width="70" height="70" viewBox="0 0 70 70" fill="none" xmlns="http://www.w3.org/2000/svg">
<path d="M39.1127 57C51.2634 56.9324 61.0561 47.0546 60.9997 34.924C60.9433 22.7935 51.0377 13.017 38.887 13.0733" stroke="#E6E6E6" stroke-width="2"/>
<path d="M40 12.9981C39.999 12.4458 39.5504 11.999 38.9981 12C38.4458 12.001 37.999 12.4496 38 13.0019L40 12.9981ZM38.0264 56.9795C38.0264 57.5318 38.4741 57.9795 39.0264 57.9795C39.5787 57.9795 40.0264 57.5318 40.0264 56.9795L38.0264 56.9795ZM60.0738 35.9897C60.6261 35.9897 61.0738 35.542 61.0738 34.9897C61.0738 34.4375 60.6261 33.9897 60.0738 33.9897L60.0738 35.9897ZM39.0264 33.9897C38.4741 33.9897 38.0264 34.4375 38.0264 34.9897C38.0264 35.542 38.4741 35.9897 39.0264 35.9897L39.0264 33.9897ZM55.9227 22.259C56.3653 21.9287 56.4564 21.3021 56.1261 20.8595C55.7957 20.4169 55.1692 20.3258 54.7265 20.6562L55.9227 22.259ZM54.7265 49.3233C55.1692 49.6536 55.7957 49.5626 56.1261 49.12C56.4564 48.6774 56.3653 48.0508 55.9227 47.7205L54.7265 49.3233ZM39.9838 55.8913C39.5697 56.2567 39.5302 56.8887 39.8956 57.3028C40.261 57.7169 40.8929 57.7564 41.307 57.391L39.9838 55.8913ZM43.8511 16.913L44.6288 16.2844L44.6266 16.2817L43.8511 16.913ZM41.3055 12.8127C40.8907 12.4481 40.2588 12.4889 39.8943 12.9037C39.5297 13.3186 39.5705 13.9504 39.9853 14.315L41.3055 12.8127ZM60.0738 33.9897L39.0264 33.9897L39.0264 35.9897L60.0738 35.9897L60.0738 33.9897ZM41.307 57.391C53.1006 46.9849 54.5784 28.5929 44.6288 16.2844L43.0734 17.5417C52.3578 29.0273 50.9646 46.2023 39.9838 55.8913L41.307 57.391ZM44.6266 16.2817C43.6131 15.0366 42.5064 13.8679 41.3055 12.8127L39.9853 14.315C41.0943 15.2896 42.1247 16.3763 43.0756 17.5443L44.6266 16.2817ZM39.0264 27.9127C44.9525 27.9127 50.8751 26.0259 55.9227 22.259L54.7265 20.6562C50.0276 24.1628 44.5253 25.9127 39.0264 25.9127L39.0264 27.9127ZM38 13.0019L38.0264 26.9146L40.0264 26.9108L40 12.9981L38 13.0019ZM55.9227 47.7205C50.8751 43.9536 44.9525 42.0667 39.0264 42.0667L39.0264 44.0667C44.5253 44.0667 50.0276 45.8166 54.7265 49.3233L55.9227 47.7205ZM38.0264 26.9127L38.0264 43.0667L40.0264 43.0667L40.0264 26.9127L38.0264 26.9127ZM38.0264 43.0667L38.0264 56.9795L40.0264 56.9795L40.0264 43.0667L38.0264 43.0667Z" fill="#E6E6E6"/>
<path d="M23 43L34 43" stroke="#E6E6E6" stroke-width="2" stroke-linecap="round"/>
<path d="M12 43L19 43" stroke="#E6E6E6" stroke-width="2" stroke-linecap="round"/>
<path d="M25 57L33 57" stroke="#E6E6E6" stroke-width="2" stroke-linecap="round"/>
<path d="M9 35L34 35" stroke="#E6E6E6" stroke-width="2" stroke-linecap="round"/>
<path d="M18 27L33 27" stroke="#E6E6E6" stroke-width="2" stroke-linecap="round"/>
<path d="M26 13L31 13" stroke="#E6E6E6" stroke-width="2" stroke-linecap="round"/>
</svg>
