<svg width="57" height="42" viewBox="0 0 57 42" fill="none" xmlns="http://www.w3.org/2000/svg">
<path d="M22.9713 22.334L18.7211 18.0836L22.9713 13.8336M33.0285 13.7828L37.2787 17.982L32.9778 22.2833M26.358 23.771L29.642 12.2289M28 29.4813C39.598 29.4813 49 24.4487 49 18.2406C49 12.0326 39.598 7 28 7C16.402 7 7 12.0326 7 18.2406C7 20.7195 8.49908 23.011 11.0385 24.8695C11.8462 27.4773 12.8154 33.1746 10.2308 35.1016C7 37.5103 19.1154 34.9844 19.9231 28.6198C22.4095 29.1748 25.1379 29.4813 28 29.4813Z" stroke="#E6E6E6" stroke-width="2" stroke-linecap="round"/>
</svg>
