<svg width="28" height="28" viewBox="0 0 28 28" fill="none" xmlns="http://www.w3.org/2000/svg">
<g clip-path="url(#clip0_2000_850)">
<path d="M6.26428 14.9714L4.63571 16.6L2.57843 18.6573C1.01634 20.2194 1.01633 22.7521 2.57843 24.3141L3.43586 25.1716C4.99795 26.7337 7.53061 26.7337 9.09271 25.1716L16.4644 17.7999C18.0265 16.2378 18.0265 13.7051 16.4644 12.143L16.0357 11.7143L15.6286 11.3072M21.7357 12.5286L23.3643 10.9L25.4216 8.8427C26.9837 7.28061 26.9837 4.74795 25.4216 3.18585L24.5641 2.32843C23.002 0.76633 20.4694 0.766328 18.9073 2.32843L11.5356 9.70013C9.97349 11.2622 9.97349 13.7949 11.5356 15.357L11.9643 15.7857L12.3714 16.1928" stroke="#E6E6E6" stroke-width="2" stroke-linecap="round" stroke-linejoin="round"/>
</g>
<defs>
<clipPath id="clip0_2000_850">
<rect width="28" height="28" fill="white"/>
</clipPath>
</defs>
</svg>
