<svg width="28" height="28" viewBox="0 0 28 28" fill="none" xmlns="http://www.w3.org/2000/svg">
<path d="M9 9H8C7.46957 9 6.96086 9.22692 6.58579 9.63085C6.21071 10.0348 6 10.5826 6 11.1538V20.8462C6 21.4174 6.21071 21.9652 6.58579 22.3692C6.96086 22.7731 7.46957 23 8 23H17C17.5304 23 18.0391 22.7731 18.4142 22.3692C18.7893 21.9652 19 21.4174 19 20.8462V19.7692M19.3944 7.08936L22.0017 9.57972M23.3849 8.58507C23.7787 8.19123 24 7.65707 24 7.10009C24 6.54311 23.7787 6.00894 23.3849 5.6151C22.9911 5.22126 22.4569 5 21.8999 5C21.3429 5 20.8088 5.22126 20.4149 5.6151L12 14V17H15L23.3849 8.58507Z" stroke="#E6E6E6" stroke-width="2" stroke-linecap="round" stroke-linejoin="round"/>
</svg>
