<svg width="28" height="28" viewBox="0 0 28 28" fill="none" xmlns="http://www.w3.org/2000/svg">
<path d="M22.0145 12.2202H21.0605C20.8827 11.5295 20.606 10.8815 20.246 10.2898L20.9322 9.60125C21.1167 9.41675 21.2203 9.16925 21.2203 8.906C21.2203 8.645 21.1167 8.3975 20.9322 8.21075L19.7892 7.06775C19.418 6.6965 18.77 6.6965 18.401 7.06775L17.6855 7.77875C17.1005 7.43675 16.4727 7.1735 15.7797 7.00475V5.98775C15.7797 5.4455 15.3477 5 14.8055 5H13.19C12.6478 5 12.2225 5.4455 12.2225 5.98775V7.00925C11.5318 7.178 10.8995 7.44125 10.3122 7.78325L9.59675 7.07225C9.2255 6.701 8.5775 6.701 8.20625 7.07225L7.06325 8.21525C6.881 8.3975 6.77525 8.65175 6.77525 8.9105C6.77525 9.1715 6.8765 9.419 7.06325 9.6035L7.7495 10.292C7.3895 10.8837 7.11275 11.5318 6.935 12.2225H5.97875C5.4365 12.2225 5 12.659 5 13.199V14.8145C5 15.3567 5.4365 15.782 5.97875 15.782H6.93275C7.1105 16.4727 7.38725 17.1253 7.74725 17.717L7.061 18.4078C6.8765 18.5922 6.773 18.8398 6.773 19.103C6.773 19.3663 6.87425 19.6138 7.061 19.7983L8.204 20.9412C8.3885 21.1257 8.636 21.2292 8.897 21.2292C9.158 21.2292 9.4055 21.128 9.59225 20.9412L10.31 20.2303C10.8972 20.5723 11.5295 20.8355 12.2202 21.0042V22.0212C12.2202 22.5635 12.6455 23 13.1877 23H14.8033C15.3455 23 15.7775 22.5635 15.7775 22.0212V21.002C16.4682 20.8333 17.0983 20.57 17.6833 20.228L18.3942 20.9368C18.5787 21.1235 18.8263 21.2247 19.0895 21.2247C19.3528 21.2247 19.598 21.1235 19.7847 20.9368L20.9278 19.7937C21.1123 19.6093 21.2135 19.3618 21.2157 19.1008C21.2157 18.8375 21.1123 18.5923 20.9278 18.4055L20.2437 17.7147C20.6037 17.123 20.8805 16.4705 21.0583 15.7798H22.0122C22.5545 15.7798 23 15.3545 23 14.8123V13.1967C23 12.6568 22.5545 12.2202 22.0145 12.2202Z" stroke="#525C70" stroke-width="2" stroke-miterlimit="10"/>
<path d="M17 14C17 15.6569 15.6569 17 14 17C12.3431 17 11 15.6569 11 14C11 12.3431 12.3431 11 14 11C15.6569 11 17 12.3431 17 14Z" stroke="#525C70" stroke-width="2" stroke-miterlimit="10"/>
</svg>
