<svg width="28" height="28" viewBox="0 0 28 28" fill="none" xmlns="http://www.w3.org/2000/svg">
<path d="M5 20.75V7.25C5 6.65326 5.23705 6.08097 5.65901 5.65901C6.08097 5.23705 6.65326 5 7.25 5H20.75C21.3467 5 21.919 5.23705 22.341 5.65901C22.7629 6.08097 23 6.65326 23 7.25V20.75C23 21.3467 22.7629 21.919 22.341 22.341C21.919 22.7629 21.3467 23 20.75 23H7.25C6.65326 23 6.08097 22.7629 5.65901 22.341C5.23705 21.919 5 21.3467 5 20.75Z" stroke="#525C70" stroke-width="2" stroke-linecap="round" stroke-linejoin="round"/>
<path d="M5 11H23" stroke="#525C70" stroke-width="2" stroke-linecap="round" stroke-linejoin="round"/>
<path d="M12 16L14 19L16 16" stroke="#525C70" stroke-width="2" stroke-linecap="round" stroke-linejoin="round"/>
</svg>
