<svg width="28" height="28" viewBox="0 0 28 28" fill="none" xmlns="http://www.w3.org/2000/svg">
<path d="M16.5 14C20.6421 14 24 16.8728 24 20.4167V21.3333M11.8635 6.05556C12.6052 4.26388 14.4017 3 16.5 3C19.2614 3 21.5 5.18883 21.5 7.88889C21.5 10.3819 19.5914 12.4392 17.125 12.74M4 25V24.0833C4 20.5395 7.35787 17.6667 11.5 17.6667C15.6421 17.6667 19 20.5395 19 24.0833V25M11.5 16.4444C14.2614 16.4444 16.5 14.2556 16.5 11.5556C16.5 8.8555 14.2614 6.66667 11.5 6.66667C8.73857 6.66667 6.5 8.8555 6.5 11.5556C6.5 14.2556 8.73857 16.4444 11.5 16.4444Z" stroke="#E6E6E6" stroke-width="2" stroke-linecap="round" stroke-linejoin="round"/>
</svg>
