<svg width="28" height="28" viewBox="0 0 28 28" fill="none" xmlns="http://www.w3.org/2000/svg">
<path d="M26.9992 19.1187V22.3597C27.0007 22.6605 26.9261 22.9584 26.7802 23.234C26.6344 23.5097 26.4205 23.7572 26.1522 23.9606C25.8839 24.164 25.5672 24.3188 25.2223 24.4152C24.8774 24.5116 24.5119 24.5474 24.1493 24.5203C20.1266 24.1591 16.2626 23.0231 12.8676 21.2037C9.70898 19.545 7.03104 17.332 5.02394 14.7217C2.81462 11.9033 1.43971 8.69453 1.01061 5.35523C0.977943 5.05648 1.02091 4.75539 1.13676 4.47111C1.25262 4.18684 1.43884 3.92561 1.68355 3.70407C1.92827 3.48253 2.22612 3.30552 2.55815 3.18433C2.89018 3.06313 3.24911 3.00039 3.61208 3.0001H7.5339C8.16833 2.99494 8.78338 3.18061 9.26442 3.52248C9.74546 3.86436 10.0597 4.33912 10.1484 4.85828C10.314 5.89547 10.621 6.91385 11.0635 7.89401C11.2394 8.28069 11.2775 8.70093 11.1732 9.10494C11.069 9.50894 10.8267 9.87978 10.4753 10.1735L8.81503 11.5455C10.676 14.2502 13.3858 16.4896 16.6587 18.0275L18.3189 16.6555C18.6743 16.365 19.1231 16.1649 19.612 16.0787C20.1008 15.9926 20.6093 16.024 21.0772 16.1694C22.2633 16.5351 23.4956 16.7888 24.7507 16.9256C25.3857 16.9996 25.9657 17.264 26.3802 17.6683C26.7948 18.0727 27.0151 18.5888 26.9992 19.1187Z" stroke="#E6E6E6" stroke-width="2" stroke-linecap="round" stroke-linejoin="round"/>
</svg>
