<svg width="28" height="28" viewBox="0 0 28 28" fill="none" xmlns="http://www.w3.org/2000/svg">
<path d="M6 4H22C22.5523 4 23 4.44772 23 5V7C23 7.55228 22.5523 8 22 8H6C5.44772 8 5 7.55228 5 7V5C5 4.44772 5.44772 4 6 4ZM6 12H22C22.5523 12 23 12.4477 23 13V15C23 15.5523 22.5523 16 22 16H6C5.44772 16 5 15.5523 5 15V13C5 12.4477 5.44772 12 6 12ZM6 20H22C22.5523 20 23 20.4477 23 21V23C23 23.5523 22.5523 24 22 24H6C5.44772 24 5 23.5523 5 23V21C5 20.4477 5.44772 20 6 20Z" stroke="#525C70" stroke-width="2"/>
</svg>
