<svg width="28" height="28" viewBox="0 0 28 28" fill="none" xmlns="http://www.w3.org/2000/svg">
<path d="M16 14C19.3137 14 22 16.3505 22 19.25V20M12.2908 7.5C12.8842 6.03408 14.3213 5 16 5C18.2091 5 20 6.79086 20 9C20 11.0398 18.4731 12.723 16.5 12.9691M6 23V22.25C6 19.3505 8.68629 17 12 17C15.3137 17 18 19.3505 18 22.25V23M12 16C14.2091 16 16 14.2091 16 12C16 9.79086 14.2091 8 12 8C9.79086 8 8 9.79086 8 12C8 14.2091 9.79086 16 12 16Z" stroke="#E6E6E6" stroke-width="2" stroke-linecap="round" stroke-linejoin="round"/>
</svg>
