<svg width="28" height="28" viewBox="0 0 28 28" fill="none" xmlns="http://www.w3.org/2000/svg">
<path d="M2.5 11.6064L2.5 11.9255C2.5 12.4433 2.87207 13.5 3.9581 13.5C5.1648 13.5 5.5 12.3511 5.5 11.9255L5.5 7" stroke="#525C70" stroke-width="2" stroke-linecap="round" stroke-linejoin="round"/>
<path d="M8.29642 12.3256C8.35133 12.7171 8.93066 13.6853 10.0673 13.6853C11.4882 13.6853 11.9 12.9875 11.9 12.1975C11.9 11.6637 11.7147 11.1512 10.7469 10.7456C9.77905 10.3399 8.39938 9.86157 8.39938 8.80249C8.39938 7.74342 9.44958 7.00001 10.0673 7C11.382 6.99997 11.882 7.99998 11.882 7.99998" stroke="#525C70" stroke-width="2" stroke-linecap="round" stroke-linejoin="round"/>
<path d="M21.5 13.5L21.5 7.5L25.5 13.5L25.5 7.5" stroke="#525C70" stroke-width="2" stroke-linecap="round" stroke-linejoin="round"/>
<path d="M18.5 10.5C18.5 12.433 18 14 16.5 14C15 14 14.5 12.433 14.5 10.5C14.5 8.567 15 7 16.5 7C18 7 18.5 8.567 18.5 10.5Z" stroke="#525C70" stroke-width="2"/>
<path d="M11 20.8462L14 24M14 24L17 20.8462M14 24L14 18" stroke="#525C70" stroke-width="2" stroke-linecap="round" stroke-linejoin="round"/>
</svg>
