<svg width="28" height="28" viewBox="0 0 28 28" fill="none" xmlns="http://www.w3.org/2000/svg">
<path d="M5 22.25V17.75C5 17.5511 5.07902 17.3603 5.21967 17.2197C5.36032 17.079 5.55109 17 5.75 17H10.25C10.4489 17 10.6397 17.079 10.7803 17.2197C10.921 17.3603 11 17.5511 11 17.75V22.25C11 22.4489 10.921 22.6397 10.7803 22.7803C10.6397 22.921 10.4489 23 10.25 23H5.75C5.55109 23 5.36032 22.921 5.21967 22.7803C5.07902 22.6397 5 22.4489 5 22.25Z" stroke="#E6E6E6" stroke-width="2" stroke-linecap="round" stroke-linejoin="round"/>
<path d="M5 12V6C5 5.73478 5.11853 5.48043 5.3295 5.29289C5.54048 5.10536 5.82663 5 6.125 5H12.875C13.1734 5 13.4595 5.10536 13.6705 5.29289C13.8815 5.48043 14 5.73478 14 6V12C14 12.2652 13.8815 12.5196 13.6705 12.7071C13.4595 12.8946 13.1734 13 12.875 13H6.125C5.82663 13 5.54048 12.8946 5.3295 12.7071C5.11853 12.5196 5 12.2652 5 12Z" stroke="#E6E6E6" stroke-width="2" stroke-linecap="round" stroke-linejoin="round"/>
<path d="M15 22.5V19.5C15 19.3674 15.1054 19.2402 15.2929 19.1464C15.4804 19.0527 15.7348 19 16 19H22C22.2652 19 22.5196 19.0527 22.7071 19.1464C22.8946 19.2402 23 19.3674 23 19.5V22.5C23 22.6326 22.8946 22.7598 22.7071 22.8536C22.5196 22.9473 22.2652 23 22 23H16C15.7348 23 15.4804 22.9473 15.2929 22.8536C15.1054 22.7598 15 22.6326 15 22.5Z" stroke="#E6E6E6" stroke-width="2" stroke-linecap="round" stroke-linejoin="round"/>
<path d="M18 13.75V6.25C18 5.91848 18.0658 5.60054 18.1831 5.36612C18.3003 5.1317 18.4592 5 18.625 5H22.375C22.5408 5 22.6997 5.1317 22.8169 5.36612C22.9342 5.60054 23 5.91848 23 6.25V13.75C23 14.0815 22.9342 14.3995 22.8169 14.6339C22.6997 14.8683 22.5408 15 22.375 15H18.625C18.4592 15 18.3003 14.8683 18.1831 14.6339C18.0658 14.3995 18 14.0815 18 13.75Z" stroke="#E6E6E6" stroke-width="2" stroke-linecap="round" stroke-linejoin="round"/>
</svg>
