<svg width="28" height="28" viewBox="0 0 28 28" fill="none" xmlns="http://www.w3.org/2000/svg">
<path d="M10.5 11.5V14.5Z" fill="#C1C7CD"/>
<path d="M10 21.4296C11.3508 23.4048 13.6216 24.7009 16.195 24.7009C20.3371 24.7009 23.695 21.343 23.695 17.2009C23.695 14.6237 22.3951 12.3501 20.4151 11M7.5 11.5H10.5M10.5 11.5H13.5M10.5 11.5V8.5M10.5 11.5V14.5M17.0878 7.91221C19.4187 9.18434 21 11.6575 21 14.5C21 18.6421 17.6421 22 13.5 22C10.6575 22 8.18434 20.4187 6.91221 18.0878M17.0878 7.91221C17.6694 8.97794 18 10.2004 18 11.5C18 15.6421 14.6421 19 10.5 19C9.20037 19 7.97794 18.6694 6.91221 18.0878M17.0878 7.91221C15.8157 5.58131 13.3425 4 10.5 4C6.35786 4 3 7.35786 3 11.5C3 14.3425 4.58131 16.8157 6.91221 18.0878" stroke="#525C70" stroke-width="2" stroke-linecap="round" stroke-linejoin="round"/>
</svg>
