<svg width="28" height="28" viewBox="0 0 28 28" fill="none" xmlns="http://www.w3.org/2000/svg">
<path d="M15 2.5V9M15 19V25.5M8 14H3M27 14H24H22M23.2426 6L20 9.24264L16.5009 13.0026C15.6965 13.867 14.3222 13.85 13.5395 12.9659L10.2426 9.24264L7 6M6 22.2427L9 19.2427M23.2426 21.2427L21.2426 19.2427M27 13.9385C26.9631 7.31084 21.5662 1.96936 14.9385 2.00013C8.31087 2.03705 2.96936 7.43392 3.00013 14.0615C3.0309 20.6892 8.43395 26.0306 15.0616 25.9999C21.64 25.9691 26.9631 20.6399 27 14.0615V13.9385ZM20 19H10C8.89543 19 8 18.1046 8 17V11C8 9.89543 8.89543 9 10 9H20C21.1046 9 22 9.89543 22 11V17C22 18.1046 21.1046 19 20 19Z" stroke="#E6E6E6" stroke-width="2" stroke-miterlimit="1.03528" stroke-linecap="round" stroke-linejoin="round"/>
</svg>
