<svg width="28" height="28" viewBox="0 0 28 28" fill="none" xmlns="http://www.w3.org/2000/svg">
<path d="M9 9.5L12.5697 13.1521C13.3543 13.9548 14.6457 13.9548 15.4303 13.1521L19 9.5M14 2.5V9M14 19V25.5M7 14H2M26 14H23H21M22.2426 6L19 9.24264M5 22.2427L8 19.2427M6 6L9.24264 9.24264M22.2426 21.2427L20.2426 19.2427M26 13.9385C25.9631 7.31084 20.5662 1.96936 13.9385 2.00013C7.31087 2.03705 1.96936 7.43392 2.00013 14.0615C2.0309 20.6892 7.43395 26.0306 14.0616 25.9999C20.64 25.9691 25.9631 20.6399 26 14.0615V13.9385ZM19 19H9C7.89543 19 7 18.1046 7 17V11C7 9.89543 7.89543 9 9 9H19C20.1046 9 21 9.89543 21 11V17C21 18.1046 20.1046 19 19 19Z" stroke="#E6E6E6" stroke-width="2" stroke-miterlimit="1.03528" stroke-linecap="round" stroke-linejoin="round"/>
</svg>
